M48
;Layer_Color=9474304
;FILE_FORMAT=4:3
METRIC,LZ
;TYPE=PLATED
T1F00S00C0.400
T2F00S00C1.778
T3F00S00C3.000
T4F00S00C5.080
;TYPE=NON_PLATED
T5F00S00C1.524
%
T01
X03175Y01525
X032
X032125Y0155
X031875
X032Y01575
X03175
X0315
X03125
X031
X031125Y0155
X031375
X031625
X0315Y01525
X03125
X031
X03075
X030875Y0155
Y015
X031125
X031375
X0315Y01475
X03125
X031
X03075
X030875Y0145
X031Y01425
X03125
X0315
X03075
X0286258Y0145313
X0241859Y0158547
X0210947Y0146964
X0127838Y0150876
X0122428Y0156667
X003875Y01975
X004125
X004375
X004625
X004875
X00475Y0195
X0045
X00425
X004
X006375
X006625
X006875
X007125
X007375
X007625
X007875
X00775Y01975
X0075
X00725
X007
X00675
X0065
X00625
Y01925
X0065
X00675
X007
X00725
X0075
X00775
X008
X00825
X0085
X00875
X009
X00925
X0095
X00975
X01
X01025
X0105
X01075
X010625Y0195
X010375
X010125
X009875
X009625
X009375
X009125
X008875
X008625
X008375
X008125
X00825Y01975
X0085
X00875
X009
X00925
X0095
X00975
X01
X01025
X0105
X01075
X0115652Y0195338
X0116795
X0117938
X0117856Y0193116
X0116713
X011557
Y019083
X0116713
X0117856
X0118999
Y0193116
Y0188544
X0117856
X0116713
X011557
Y0186258
X0116713
X0117856
X0118999
Y0183972
X0117856
X0116713
X011557
X009332Y0174219
X008Y01975
X0119081Y0195338
X0120224
X0121367
X012251
X0123653
X0124796
X0125939
X0125857Y0193116
X0124714
X0123571
X0122428
X0121285
X0120142
Y019083
X0121285
X0122428
X0123571
X0124714
X0125857
Y0188544
X0124714
X0123571
X0122428
X0121285
X0120142
Y0186258
X0121285
X0122428
X0123571
X0124714
X0125857
Y0183972
X0124714
X0123571
X0122428
X0121285
X0120142
X0121336Y0164135
X0124231Y0164465
X0125324Y0165811
X0125374Y0167157
X0126721Y0169215
X01492Y0165989
X01524Y0165913
X0150622Y0162966
X0149174Y0161519
X0156693Y0163373
X0150622Y0171577
X0149666Y0176773
X0147142Y0179527
X02125Y01825
X021375Y0185
X021625
X021875
X022125
X022375
X022625
X022875
X02275Y01875
X0225
X02225
X022
X02175
X0215
X02125
X021375Y019
X021625
X021875
X022125
X022375
X022625
X022875
X02275Y01925
X0225
X02225
X022
X02175
X0215
X02125
X021375Y0195
X021625
X021875
X022125
X022375
X022625
X022875
X02275Y01975
X0225
X02225
X022
X02175
X0215
X02125
X022Y01825
X02275
X0229464Y0171602
X0235521Y017159
X0234214Y0166445
X0231445Y0166421
X0236068Y0160198
X029116Y0162738
Y0164948
X0289966Y0167132
X0287401Y0167157
X0291351Y0171615
X0288315Y0186538
X031Y01875
X03125
X0315
X031625Y019
X031375
X031125
Y0185
X031375
X031625
X0315Y01825
X03125
X031
X031125Y018
X031Y01775
Y01725
X03125
X031375Y017
X031625
X0315Y01675
X03125
X031
X031125Y017
Y0165
X031375
X031625
X0315Y01625
X03125
X031
X031125Y016
X031375
X031625
X031875
X032125
X032Y01625
X03175
X031875Y0165
X032125
X032Y01675
X03175
X031875Y017
X032125
X032Y01725
X032125Y0175
Y018
X032Y01825
X03175
X031875Y0185
X032125
X032Y01875
X03175
X031875Y019
X032125
X022625Y02
X022375
X022125
X021875
X021625
X021375
X02125Y02025
X021375Y0205
X0215Y02075
X02175
X022
X02225
X0225
X02275
Y02025
X02225
X022
X022125Y0205
X02125Y02075
X014Y02
X01375
X0135
X01325
X013
X013625Y02025
X0108204Y0205943
X010625Y02
X010375
X010125
X009875
X009625
X009375
X009125
X008875
X008625
X008375
X008125
Y02225
X008375
X008625
X008875
X009125
X009375
X009625
X009875
X010125
X010375
X010625
X010875
X011125
X011Y0225
X01075
X0105
X01025
X01
X00975
X0095
X00925
X009
X00875
X0085
X00825
X008
X008125Y02275
X008375
X008625
X008875
X009125
X009375
X009625
X009875
X010125
X010375
X010625
X010875
X011125
X011Y023
X01075
X0105
X01025
X01
X00975
X0095
X00925
X009
X00875
X0085
X00825
X008
X008125Y02325
X008375
X008625
X008875
X009125
X009375
X009625
X009875
X010125
X010375
X010625
X010875
X011125
X011Y0235
X01075
X0105
X01025
X01
X00975
X0095
X00925
X009
X00875
X0085
X00825
X008
X008125Y02375
X008375
X008625
X008875
X009125
X009375
X009625
X009875
X010125
X010375
X010625
X010875
X011125
X011Y022
X011125Y02175
X011Y0215
X011125Y02125
X007875Y02225
X007625
X007375
X007125
X006875
X006625
X006375
X0065Y0225
X00675
X007
X00725
X0075
X00775
X007875Y02275
X007625
X007375
X007125
X006875
X006625
X006375
X0065Y023
X00675
X007
X00725
X0075
X00775
X007875Y02325
X007625
X007375
X007125
X006875
X006625
X006375
X006125
X005875
X005625
X005375
X005125
X004875
X004625
X004375
X004125
X00425Y0235
X0045
X00475
X005
X00525
X0055
X00575
X006
X00625
X0065
X00675
X007
X00725
X0075
X00775
X007875Y02375
X007625
X007375
X007125
X006875
X006625
X006375
X006125
X005875
X005625
X005375
X005125
X004875
X004625
X004375
X004125
X004Y0235
Y023
X00425
X0045
X00475
X005
X00525
X0055
X00575
X006
X00625
Y0225
X00475
X0045
X00425
X004
X004125Y02275
X004375
X004625
X004875
Y02225
X004625
X004375
X004125
X00425Y022
X0045
X00475
X004875Y02175
X004625
X004375
X004125
X00425Y0215
X0045
X00475
X004875Y02125
X004625
X004375
X004125
X004Y0215
Y022
X0045Y021
X00475
X004875Y02075
X00475Y0205
X004875Y02025
X004625
X00475Y02
X0045
X00425
X004
X006375
X006625
X006875
X007125
X007375
X007625
X007875
X00375
X0035
X00325
X003375Y02025
X003625
X0035Y0205
X00325
X003375Y02075
X003625
X00375Y021
X0035
X00325
X003375Y02125
X003625
X003875
X00375Y0215
X0035
X00325
X003375Y02175
X003625
X003875
X00375Y022
X0035
X00325
X003375Y02225
X003625
X003875
X00375Y0225
X0035
X00325
X003375Y02275
X003625
X003875
X00375Y023
X0035
X00325
X003375Y02325
X003625
X003875
X00375Y0235
X0035
X00325
X003375Y02375
X003625
X003875
X004Y024
X00425
X0045
X00475
X005
X00525
X0055
X00575
X006
X00625
X0065
X00675
X007
X00725
X0075
X00775
X007875Y02425
X007625
X007375
X007125
X006875
X006625
X006375
X006125
X005875
X005625
X005375
X005125
X004875
X004625
X004375
X004125
X008125
X008375
X008625
X008875
X009125
X009375
X009625
X009875
X010125
X010375
X010625
X010875
X011125
X011Y024
X01075
X0105
X01025
X01
X00975
X0095
X00925
X009
X00875
X0085
X00825
X008
T02
X005588Y0161163
Y0182626
X0132588Y0182499
X0140081Y0182626
Y0161163
X0132588
X0216789
X0224739
Y0182626
X0216789Y0182499
X0301447
Y0161163
Y0203962
Y0225298
X0224739Y0225425
X0216789Y0225298
Y0203962
X0224739
X0140081
X0132588
Y0225298
X0140081Y0225425
X005588
Y0203962
T03
X0321539Y0145059
X0178359Y0145009
X0035687
Y0241427
X0178257
X0321513
T04
X0041605Y0176276
X0315595Y0176657
Y0206502
X0041605Y0206121
T05
X0301473Y0145313
X0312598
X0220675Y0145288
X013622Y0145237
Y0241097
X0220675Y0241148
X0301473
X0312522Y0241173
M30
