G04*
G04 #@! TF.GenerationSoftware,Altium Limited,Altium Designer,21.6.4 (81)*
G04*
G04 Layer_Color=32768*
%FSLAX43Y43*%
%MOMM*%
G71*
G04*
G04 #@! TF.SameCoordinates,3B1B0440-9CC4-4517-B04E-561091F89696*
G04*
G04*
G04 #@! TF.FilePolarity,Positive*
G04*
G01*
G75*
%ADD10C,0.150*%
D10*
X308553Y202962D02*
Y204962D01*
X304553Y202962D02*
X308553D01*
X306053Y203962D02*
X307053D01*
X306553Y203462D02*
Y204462D01*
X304553Y204962D02*
X308553D01*
X304553Y202962D02*
Y204962D01*
X142604Y173228D02*
X143604D01*
X143104Y172728D02*
Y173728D01*
X144104Y171228D02*
Y175228D01*
X142104Y171228D02*
Y175228D01*
Y171228D02*
X144104D01*
X142104Y175228D02*
X144104D01*
X142027Y179241D02*
X144027D01*
Y175241D02*
Y179241D01*
X143027Y176741D02*
Y177741D01*
X142527Y177241D02*
X143527D01*
X142027Y175241D02*
Y179241D01*
Y175241D02*
X144027D01*
X135246Y171246D02*
X137246D01*
X135246D02*
Y175246D01*
X136246Y172746D02*
Y173746D01*
X135746Y173246D02*
X136746D01*
X137246Y171246D02*
Y175246D01*
X135246D02*
X137246D01*
X135246Y175241D02*
X137246D01*
X135246D02*
Y179241D01*
X135746Y177241D02*
X136746D01*
X136246Y176741D02*
Y177741D01*
X137246Y175241D02*
Y179241D01*
X135246D02*
X137246D01*
X135246Y171232D02*
X137246D01*
Y167232D02*
Y171232D01*
X136246Y168732D02*
Y169732D01*
X135746Y169232D02*
X136746D01*
X135246Y167232D02*
Y171232D01*
Y167232D02*
X137246D01*
X118405Y161545D02*
X120405D01*
Y157545D02*
Y161545D01*
X119405Y159045D02*
Y160045D01*
X118905Y159545D02*
X119905D01*
X118405Y157545D02*
Y161545D01*
Y157545D02*
X120405D01*
X120412D02*
X122412D01*
X120412D02*
Y161545D01*
X121412Y159045D02*
Y160045D01*
X120912Y159545D02*
X121912D01*
X122412Y157545D02*
Y161545D01*
X120412D02*
X122412D01*
X122419Y157545D02*
X124419D01*
X122419D02*
Y161545D01*
X123419Y159045D02*
Y160045D01*
X122919Y159545D02*
X123919D01*
X124419Y157545D02*
Y161545D01*
X122419D02*
X124419D01*
X96863Y174924D02*
Y192174D01*
X108863Y174924D02*
Y192174D01*
X96863D02*
X108863D01*
X96863Y174924D02*
X108863D01*
X84863D02*
Y192174D01*
X96863Y174924D02*
Y192174D01*
X84863D02*
X96863D01*
X84863Y174924D02*
X96863D01*
X72863D02*
Y192174D01*
X84863Y174924D02*
Y192174D01*
X72863D02*
X84863D01*
X72863Y174924D02*
X84863D01*
X60863D02*
Y192174D01*
X72863Y174924D02*
Y192174D01*
X60863D02*
X72863D01*
X60863Y174924D02*
X72863D01*
X60863Y204924D02*
Y222174D01*
X72863Y204924D02*
Y222174D01*
X60863D02*
X72863D01*
X60863Y204924D02*
X72863D01*
Y222174D01*
X84863Y204924D02*
Y222174D01*
X72863D02*
X84863D01*
X72863Y204924D02*
X84863D01*
X84863D02*
Y222174D01*
X96863Y204924D02*
Y222174D01*
X84863D02*
X96863D01*
X84863Y204924D02*
X96863D01*
Y222174D01*
X108863Y204924D02*
Y222174D01*
X96863D02*
X108863D01*
X96863Y204924D02*
X108863D01*
X147539Y172574D02*
X149539D01*
X147539D02*
Y176574D01*
X148039Y174574D02*
X149039D01*
X148539Y174074D02*
Y175074D01*
X149539Y172574D02*
Y176574D01*
X147539D02*
X149539D01*
X149546Y172574D02*
X151546D01*
X149546D02*
Y176574D01*
X150046Y174574D02*
X151046D01*
X150546Y174074D02*
Y175074D01*
X151546Y172574D02*
Y176574D01*
X149546D02*
X151546D01*
X151552Y172574D02*
X153552D01*
X151552D02*
Y176574D01*
X152052Y174574D02*
X153052D01*
X152552Y174074D02*
Y175074D01*
X153552Y172574D02*
Y176574D01*
X151552D02*
X153552D01*
X155743Y166647D02*
X157743D01*
X155743D02*
Y170647D01*
X156243Y168647D02*
X157243D01*
X156743Y168147D02*
Y169147D01*
X157743Y166647D02*
Y170647D01*
X155743D02*
X157743D01*
X149927Y170635D02*
X151927D01*
Y166635D02*
Y170635D01*
X150427Y168635D02*
X151427D01*
X150927Y168135D02*
Y169135D01*
X149927Y166635D02*
Y170635D01*
Y166635D02*
X151927D01*
X143708Y192173D02*
X155708D01*
X143708Y209423D02*
X155708D01*
Y192173D02*
Y209423D01*
X143708Y192173D02*
Y209423D01*
X152518Y188360D02*
X154518D01*
X152518Y184360D02*
X154518D01*
X152518D02*
Y188360D01*
X154518Y184360D02*
Y188360D01*
X153518Y185860D02*
Y186860D01*
X153018Y186360D02*
X154018D01*
X234483Y172549D02*
X236483D01*
X234483D02*
Y176549D01*
X234983Y174549D02*
X235983D01*
X235483Y174049D02*
Y175049D01*
X236483Y172549D02*
Y176549D01*
X234483D02*
X236483D01*
X232502Y172549D02*
X234502D01*
X232502D02*
Y176549D01*
X233002Y174549D02*
X234002D01*
X233502Y174049D02*
Y175049D01*
X234502Y172549D02*
Y176549D01*
X232502D02*
X234502D01*
X236490Y172549D02*
X238490D01*
X236490D02*
Y176549D01*
X236990Y174549D02*
X237990D01*
X237490Y174049D02*
Y175049D01*
X238490Y172549D02*
Y176549D01*
X236490D02*
X238490D01*
X234915Y170609D02*
X236915D01*
Y166609D02*
Y170609D01*
X235415Y168609D02*
X236415D01*
X235915Y168109D02*
Y169109D01*
X234915Y166609D02*
Y170609D01*
Y166609D02*
X236915D01*
X240732Y166621D02*
X242732D01*
X240732D02*
Y170621D01*
X241232Y168621D02*
X242232D01*
X241732Y168121D02*
Y169121D01*
X242732Y166621D02*
Y170621D01*
X240732D02*
X242732D01*
X237455Y188377D02*
X239455D01*
X237455Y184377D02*
X239455D01*
X237455D02*
Y188377D01*
X239455Y184377D02*
Y188377D01*
X238455Y185877D02*
Y186877D01*
X237955Y186377D02*
X238955D01*
X228442Y192198D02*
X240442D01*
X228442Y209448D02*
X240442D01*
Y192198D02*
Y209448D01*
X228442Y192198D02*
Y209448D01*
X296561Y166617D02*
X298561D01*
X296561D02*
Y170617D01*
X297061Y168617D02*
X298061D01*
X297561Y168117D02*
Y169117D01*
X298561Y166617D02*
Y170617D01*
X296561D02*
X298561D01*
X290744D02*
X292744D01*
Y166617D02*
Y170617D01*
X291244Y168617D02*
X292244D01*
X291744Y168117D02*
Y169117D01*
X290744Y166617D02*
Y170617D01*
Y166617D02*
X292744D01*
X290313Y172574D02*
X292313D01*
X290313D02*
Y176574D01*
X290813Y174574D02*
X291813D01*
X291313Y174074D02*
Y175074D01*
X292313Y172574D02*
Y176574D01*
X290313D02*
X292313D01*
X292319Y172574D02*
X294319D01*
X292319D02*
Y176574D01*
X292819Y174574D02*
X293819D01*
X293319Y174074D02*
Y175074D01*
X294319Y172574D02*
Y176574D01*
X292319D02*
X294319D01*
X288357Y172574D02*
X290357D01*
X288357D02*
Y176574D01*
X288857Y174574D02*
X289857D01*
X289357Y174074D02*
Y175074D01*
X290357Y172574D02*
Y176574D01*
X288357D02*
X290357D01*
X284286Y192183D02*
X296286D01*
X284286Y209433D02*
X296286D01*
Y192183D02*
Y209433D01*
X284286Y192183D02*
Y209433D01*
X293284Y188342D02*
X295284D01*
X293284Y184342D02*
X295284D01*
X293284D02*
Y188342D01*
X295284Y184342D02*
Y188342D01*
X294284Y185842D02*
Y186842D01*
X293784Y186342D02*
X294784D01*
M02*
