G04*
G04 #@! TF.GenerationSoftware,Altium Limited,Altium Designer,21.6.4 (81)*
G04*
G04 Layer_Color=8388736*
%FSLAX43Y43*%
%MOMM*%
G71*
G04*
G04 #@! TF.SameCoordinates,3B1B0440-9CC4-4517-B04E-561091F89696*
G04*
G04*
G04 #@! TF.FilePolarity,Positive*
G04*
G01*
G75*
%ADD13C,0.200*%
G36*
X141697Y173390D02*
X141713Y173388D01*
X141729Y173386D01*
X141743Y173382D01*
X141757Y173378D01*
X141769Y173373D01*
X141781Y173368D01*
X141792Y173362D01*
X141801Y173357D01*
X141809Y173352D01*
X141817Y173347D01*
X141823Y173343D01*
X141828Y173338D01*
X141831Y173336D01*
X141833Y173334D01*
X141834Y173333D01*
X141844Y173323D01*
X141854Y173311D01*
X141862Y173298D01*
X141869Y173287D01*
X141875Y173274D01*
X141880Y173263D01*
X141884Y173251D01*
X141888Y173240D01*
X141890Y173230D01*
X141892Y173221D01*
X141894Y173213D01*
X141894Y173205D01*
X141895Y173199D01*
Y173194D01*
Y173192D01*
Y173191D01*
X141894Y173168D01*
X141890Y173149D01*
X141885Y173132D01*
X141879Y173117D01*
X141874Y173104D01*
X141871Y173100D01*
X141869Y173096D01*
X141867Y173093D01*
X141865Y173090D01*
X141864Y173089D01*
Y173088D01*
X141851Y173074D01*
X141836Y173063D01*
X141822Y173053D01*
X141808Y173045D01*
X141795Y173040D01*
X141789Y173038D01*
X141784Y173036D01*
X141781Y173035D01*
X141778Y173034D01*
X141776Y173033D01*
X141775D01*
X141790Y173025D01*
X141804Y173017D01*
X141815Y173008D01*
X141824Y172998D01*
X141832Y172991D01*
X141837Y172985D01*
X141840Y172981D01*
X141841Y172979D01*
X141849Y172966D01*
X141854Y172953D01*
X141858Y172940D01*
X141861Y172928D01*
X141863Y172918D01*
X141864Y172910D01*
Y172905D01*
Y172904D01*
Y172903D01*
X141863Y172888D01*
X141860Y172873D01*
X141856Y172858D01*
X141852Y172846D01*
X141847Y172836D01*
X141844Y172828D01*
X141840Y172823D01*
X141839Y172822D01*
Y172821D01*
X141830Y172807D01*
X141819Y172795D01*
X141808Y172784D01*
X141797Y172775D01*
X141787Y172768D01*
X141779Y172764D01*
X141776Y172762D01*
X141774Y172760D01*
X141773Y172759D01*
X141772D01*
X141755Y172752D01*
X141739Y172746D01*
X141723Y172743D01*
X141708Y172739D01*
X141695Y172738D01*
X141689D01*
X141685Y172737D01*
X141676D01*
X141662Y172738D01*
X141649Y172739D01*
X141624Y172744D01*
X141602Y172751D01*
X141593Y172755D01*
X141584Y172759D01*
X141576Y172763D01*
X141569Y172767D01*
X141563Y172771D01*
X141558Y172774D01*
X141554Y172777D01*
X141551Y172779D01*
X141549Y172780D01*
X141549Y172781D01*
X141539Y172789D01*
X141531Y172798D01*
X141517Y172818D01*
X141506Y172838D01*
X141497Y172858D01*
X141494Y172867D01*
X141491Y172875D01*
X141489Y172883D01*
X141487Y172889D01*
X141485Y172895D01*
X141484Y172899D01*
X141484Y172902D01*
Y172903D01*
X141562Y172917D01*
X141566Y172897D01*
X141571Y172879D01*
X141578Y172864D01*
X141584Y172853D01*
X141590Y172843D01*
X141595Y172836D01*
X141599Y172833D01*
X141600Y172831D01*
X141613Y172821D01*
X141625Y172814D01*
X141639Y172809D01*
X141650Y172805D01*
X141661Y172803D01*
X141670Y172803D01*
X141674Y172802D01*
X141678D01*
X141694Y172803D01*
X141709Y172806D01*
X141722Y172811D01*
X141733Y172816D01*
X141741Y172822D01*
X141748Y172826D01*
X141751Y172829D01*
X141753Y172831D01*
X141763Y172842D01*
X141770Y172854D01*
X141775Y172866D01*
X141779Y172877D01*
X141781Y172887D01*
X141782Y172894D01*
X141783Y172900D01*
Y172901D01*
Y172902D01*
X141782Y172912D01*
X141781Y172921D01*
X141776Y172938D01*
X141770Y172952D01*
X141763Y172963D01*
X141755Y172972D01*
X141749Y172978D01*
X141744Y172982D01*
X141743Y172983D01*
X141742D01*
X141727Y172992D01*
X141711Y172998D01*
X141696Y173003D01*
X141682Y173006D01*
X141670Y173008D01*
X141660Y173008D01*
X141657Y173009D01*
X141648D01*
X141644Y173008D01*
X141641Y173008D01*
X141639D01*
X141630Y173077D01*
X141642Y173074D01*
X141653Y173072D01*
X141663Y173070D01*
X141671Y173069D01*
X141677Y173068D01*
X141686D01*
X141706Y173070D01*
X141724Y173074D01*
X141739Y173079D01*
X141752Y173086D01*
X141762Y173093D01*
X141769Y173098D01*
X141774Y173102D01*
X141776Y173103D01*
X141783Y173110D01*
X141788Y173118D01*
X141797Y173132D01*
X141804Y173147D01*
X141808Y173161D01*
X141810Y173173D01*
X141811Y173179D01*
Y173183D01*
X141812Y173188D01*
Y173190D01*
Y173192D01*
Y173193D01*
Y173203D01*
X141810Y173213D01*
X141806Y173231D01*
X141799Y173248D01*
X141793Y173261D01*
X141786Y173273D01*
X141779Y173281D01*
X141777Y173283D01*
X141775Y173286D01*
X141774Y173287D01*
X141774Y173288D01*
X141766Y173294D01*
X141759Y173300D01*
X141743Y173310D01*
X141727Y173317D01*
X141712Y173321D01*
X141699Y173324D01*
X141694Y173325D01*
X141689D01*
X141685Y173326D01*
X141679D01*
X141663Y173324D01*
X141647Y173321D01*
X141634Y173317D01*
X141622Y173311D01*
X141612Y173306D01*
X141605Y173301D01*
X141601Y173298D01*
X141599Y173297D01*
X141594Y173291D01*
X141589Y173284D01*
X141579Y173268D01*
X141571Y173253D01*
X141565Y173237D01*
X141560Y173222D01*
X141559Y173216D01*
X141557Y173210D01*
X141556Y173206D01*
X141555Y173203D01*
X141554Y173200D01*
Y173199D01*
X141476Y173210D01*
X141478Y173225D01*
X141481Y173239D01*
X141484Y173252D01*
X141490Y173264D01*
X141495Y173276D01*
X141499Y173287D01*
X141505Y173297D01*
X141510Y173306D01*
X141516Y173313D01*
X141521Y173321D01*
X141526Y173327D01*
X141530Y173332D01*
X141534Y173336D01*
X141537Y173338D01*
X141539Y173340D01*
X141539Y173341D01*
X141550Y173350D01*
X141561Y173358D01*
X141573Y173364D01*
X141585Y173370D01*
X141597Y173374D01*
X141609Y173378D01*
X141630Y173384D01*
X141640Y173387D01*
X141650Y173388D01*
X141659Y173389D01*
X141665Y173390D01*
X141671Y173391D01*
X141679D01*
X141697Y173390D01*
D02*
G37*
G36*
X141275Y172737D02*
X141224D01*
X141215Y172753D01*
X141204Y172768D01*
X141192Y172783D01*
X141181Y172795D01*
X141170Y172807D01*
X141162Y172815D01*
X141159Y172818D01*
X141156Y172821D01*
X141155Y172822D01*
X141154Y172823D01*
X141135Y172838D01*
X141115Y172853D01*
X141095Y172866D01*
X141078Y172877D01*
X141062Y172885D01*
X141055Y172889D01*
X141050Y172892D01*
X141045Y172894D01*
X141042Y172896D01*
X141040Y172898D01*
X141039D01*
Y172974D01*
X141053Y172968D01*
X141067Y172962D01*
X141081Y172955D01*
X141094Y172948D01*
X141105Y172943D01*
X141114Y172938D01*
X141117Y172936D01*
X141120Y172934D01*
X141120Y172933D01*
X141121D01*
X141138Y172923D01*
X141152Y172913D01*
X141165Y172904D01*
X141176Y172896D01*
X141185Y172889D01*
X141191Y172883D01*
X141195Y172880D01*
X141196Y172879D01*
Y173380D01*
X141275D01*
Y172737D01*
D02*
G37*
G36*
X140711Y172815D02*
X140922D01*
Y172739D01*
X140416D01*
Y172815D01*
X140626D01*
Y173380D01*
X140711D01*
Y172815D01*
D02*
G37*
G36*
X140388Y172739D02*
X140302D01*
X140129Y173205D01*
X140122Y173224D01*
X140115Y173243D01*
X140109Y173262D01*
X140104Y173278D01*
X140100Y173291D01*
X140098Y173296D01*
X140097Y173301D01*
X140096Y173305D01*
X140095Y173308D01*
X140094Y173309D01*
Y173310D01*
X140089Y173292D01*
X140083Y173273D01*
X140077Y173255D01*
X140072Y173239D01*
X140067Y173225D01*
X140066Y173219D01*
X140064Y173214D01*
X140062Y173211D01*
X140062Y173208D01*
X140061Y173206D01*
Y173205D01*
X139894Y172739D01*
X139802D01*
X140050Y173380D01*
X140138D01*
X140388Y172739D01*
D02*
G37*
G36*
X134508Y172722D02*
X134457D01*
X134448Y172738D01*
X134437Y172753D01*
X134425Y172768D01*
X134414Y172781D01*
X134403Y172792D01*
X134395Y172801D01*
X134392Y172804D01*
X134389Y172806D01*
X134388Y172807D01*
X134387Y172808D01*
X134368Y172824D01*
X134348Y172838D01*
X134328Y172851D01*
X134311Y172862D01*
X134295Y172871D01*
X134288Y172875D01*
X134283Y172877D01*
X134278Y172880D01*
X134275Y172881D01*
X134273Y172883D01*
X134272D01*
Y172960D01*
X134286Y172954D01*
X134300Y172947D01*
X134314Y172941D01*
X134327Y172934D01*
X134338Y172928D01*
X134347Y172923D01*
X134350Y172921D01*
X134353Y172920D01*
X134353Y172919D01*
X134354D01*
X134371Y172909D01*
X134385Y172899D01*
X134398Y172890D01*
X134409Y172881D01*
X134418Y172875D01*
X134424Y172869D01*
X134428Y172866D01*
X134429Y172865D01*
Y173365D01*
X134508D01*
Y172722D01*
D02*
G37*
G36*
X134010D02*
X133959D01*
X133950Y172738D01*
X133939Y172753D01*
X133928Y172768D01*
X133917Y172781D01*
X133906Y172792D01*
X133898Y172801D01*
X133894Y172804D01*
X133892Y172806D01*
X133890Y172807D01*
X133889Y172808D01*
X133870Y172824D01*
X133851Y172838D01*
X133831Y172851D01*
X133814Y172862D01*
X133798Y172871D01*
X133791Y172875D01*
X133785Y172877D01*
X133781Y172880D01*
X133778Y172881D01*
X133775Y172883D01*
X133774D01*
Y172960D01*
X133789Y172954D01*
X133803Y172947D01*
X133817Y172941D01*
X133829Y172934D01*
X133840Y172928D01*
X133849Y172923D01*
X133853Y172921D01*
X133855Y172920D01*
X133856Y172919D01*
X133857D01*
X133874Y172909D01*
X133888Y172899D01*
X133901Y172890D01*
X133912Y172881D01*
X133920Y172875D01*
X133927Y172869D01*
X133930Y172866D01*
X133932Y172865D01*
Y173365D01*
X134010D01*
Y172722D01*
D02*
G37*
G36*
X133447Y172801D02*
X133658D01*
Y172725D01*
X133151D01*
Y172801D01*
X133362D01*
Y173365D01*
X133447D01*
Y172801D01*
D02*
G37*
G36*
X133124Y172725D02*
X133038D01*
X132865Y173190D01*
X132857Y173210D01*
X132850Y173229D01*
X132845Y173247D01*
X132840Y173263D01*
X132835Y173276D01*
X132834Y173281D01*
X132832Y173286D01*
X132831Y173290D01*
X132830Y173293D01*
X132830Y173295D01*
Y173295D01*
X132825Y173277D01*
X132819Y173258D01*
X132813Y173240D01*
X132808Y173225D01*
X132803Y173210D01*
X132801Y173205D01*
X132800Y173200D01*
X132798Y173196D01*
X132797Y173193D01*
X132796Y173191D01*
Y173190D01*
X132630Y172725D01*
X132537D01*
X132785Y173365D01*
X132874D01*
X133124Y172725D01*
D02*
G37*
G36*
X102853Y172115D02*
X102841Y172097D01*
X102828Y172080D01*
X102817Y172065D01*
X102806Y172053D01*
X102796Y172043D01*
X102789Y172036D01*
X102784Y172032D01*
X102783Y172030D01*
X102782D01*
X102775Y172024D01*
X102767Y172018D01*
X102751Y172007D01*
X102743Y172003D01*
X102737Y172000D01*
X102733Y171998D01*
X102732Y171997D01*
X102748Y171995D01*
X102764Y171992D01*
X102778Y171987D01*
X102792Y171983D01*
X102804Y171978D01*
X102816Y171973D01*
X102826Y171968D01*
X102835Y171963D01*
X102842Y171958D01*
X102849Y171953D01*
X102855Y171949D01*
X102860Y171946D01*
X102863Y171942D01*
X102867Y171940D01*
X102867Y171939D01*
X102868Y171938D01*
X102876Y171929D01*
X102883Y171920D01*
X102889Y171910D01*
X102894Y171901D01*
X102902Y171882D01*
X102907Y171863D01*
X102910Y171847D01*
X102911Y171841D01*
X102912Y171835D01*
X102912Y171830D01*
Y171827D01*
Y171824D01*
Y171823D01*
X102912Y171804D01*
X102908Y171786D01*
X102904Y171769D01*
X102899Y171755D01*
X102894Y171743D01*
X102890Y171734D01*
X102888Y171731D01*
X102887Y171728D01*
X102886Y171728D01*
Y171727D01*
X102875Y171712D01*
X102863Y171698D01*
X102852Y171688D01*
X102840Y171679D01*
X102830Y171673D01*
X102822Y171668D01*
X102818Y171667D01*
X102816Y171666D01*
X102815Y171665D01*
X102814D01*
X102806Y171662D01*
X102796Y171659D01*
X102775Y171655D01*
X102753Y171652D01*
X102732Y171650D01*
X102722Y171649D01*
X102713Y171648D01*
X102706D01*
X102698Y171648D01*
X102400D01*
Y172288D01*
X102485D01*
Y172004D01*
X102595D01*
X102604Y172005D01*
X102612D01*
X102619Y172006D01*
X102624Y172007D01*
X102627D01*
X102629Y172007D01*
X102630D01*
X102644Y172012D01*
X102651Y172015D01*
X102657Y172018D01*
X102662Y172021D01*
X102665Y172023D01*
X102667Y172024D01*
X102668Y172025D01*
X102676Y172031D01*
X102683Y172037D01*
X102691Y172044D01*
X102697Y172052D01*
X102703Y172057D01*
X102707Y172063D01*
X102711Y172067D01*
X102712Y172068D01*
X102722Y172081D01*
X102732Y172095D01*
X102742Y172109D01*
X102752Y172123D01*
X102760Y172136D01*
X102764Y172142D01*
X102767Y172147D01*
X102770Y172150D01*
X102772Y172153D01*
X102773Y172155D01*
Y172156D01*
X102857Y172288D01*
X102964D01*
X102853Y172115D01*
D02*
G37*
G36*
X103238Y172298D02*
X103256Y172296D01*
X103274Y172292D01*
X103291Y172287D01*
X103306Y172281D01*
X103319Y172275D01*
X103331Y172267D01*
X103343Y172260D01*
X103353Y172253D01*
X103362Y172246D01*
X103370Y172240D01*
X103376Y172233D01*
X103381Y172229D01*
X103385Y172225D01*
X103386Y172222D01*
X103387Y172222D01*
X103396Y172209D01*
X103404Y172197D01*
X103411Y172184D01*
X103416Y172172D01*
X103421Y172159D01*
X103426Y172147D01*
X103431Y172122D01*
X103434Y172112D01*
X103436Y172102D01*
X103436Y172093D01*
X103437Y172086D01*
X103438Y172080D01*
Y172076D01*
Y172072D01*
Y172072D01*
X103437Y172055D01*
X103436Y172039D01*
X103433Y172024D01*
X103429Y172009D01*
X103425Y171996D01*
X103420Y171984D01*
X103415Y171972D01*
X103409Y171962D01*
X103404Y171953D01*
X103398Y171945D01*
X103393Y171938D01*
X103389Y171932D01*
X103385Y171927D01*
X103382Y171924D01*
X103381Y171922D01*
X103380Y171922D01*
X103369Y171912D01*
X103357Y171902D01*
X103346Y171895D01*
X103334Y171887D01*
X103321Y171882D01*
X103310Y171877D01*
X103299Y171873D01*
X103288Y171871D01*
X103277Y171868D01*
X103268Y171867D01*
X103260Y171865D01*
X103253Y171864D01*
X103247Y171863D01*
X103239D01*
X103227Y171864D01*
X103216Y171865D01*
X103193Y171870D01*
X103173Y171876D01*
X103155Y171883D01*
X103146Y171887D01*
X103140Y171891D01*
X103133Y171895D01*
X103128Y171897D01*
X103124Y171900D01*
X103121Y171902D01*
X103119Y171903D01*
X103118Y171904D01*
X103152Y171731D01*
X103408D01*
Y171656D01*
X103090D01*
X103028Y171985D01*
X103102Y171996D01*
X103109Y171986D01*
X103116Y171977D01*
X103125Y171969D01*
X103132Y171963D01*
X103139Y171957D01*
X103144Y171954D01*
X103147Y171952D01*
X103149Y171951D01*
X103161Y171945D01*
X103173Y171940D01*
X103185Y171937D01*
X103195Y171935D01*
X103205Y171933D01*
X103211Y171932D01*
X103230D01*
X103240Y171934D01*
X103260Y171938D01*
X103276Y171945D01*
X103291Y171952D01*
X103302Y171959D01*
X103311Y171966D01*
X103313Y171968D01*
X103316Y171970D01*
X103317Y171971D01*
Y171972D01*
X103324Y171979D01*
X103330Y171987D01*
X103339Y172005D01*
X103346Y172022D01*
X103350Y172040D01*
X103353Y172055D01*
X103354Y172062D01*
Y172067D01*
X103355Y172072D01*
Y172075D01*
Y172077D01*
Y172078D01*
Y172092D01*
X103353Y172103D01*
X103349Y172126D01*
X103342Y172145D01*
X103336Y172162D01*
X103331Y172168D01*
X103328Y172174D01*
X103325Y172180D01*
X103321Y172184D01*
X103319Y172187D01*
X103317Y172190D01*
X103316Y172191D01*
X103316Y172192D01*
X103308Y172199D01*
X103301Y172206D01*
X103292Y172212D01*
X103284Y172216D01*
X103268Y172224D01*
X103252Y172229D01*
X103239Y172232D01*
X103233Y172232D01*
X103229Y172233D01*
X103225Y172234D01*
X103219D01*
X103201Y172232D01*
X103186Y172229D01*
X103172Y172225D01*
X103161Y172219D01*
X103151Y172214D01*
X103144Y172209D01*
X103140Y172206D01*
X103138Y172205D01*
X103127Y172192D01*
X103118Y172178D01*
X103111Y172163D01*
X103105Y172148D01*
X103101Y172136D01*
X103100Y172130D01*
X103098Y172125D01*
X103097Y172121D01*
Y172117D01*
X103096Y172116D01*
Y172115D01*
X103014Y172121D01*
X103016Y172136D01*
X103019Y172150D01*
X103022Y172162D01*
X103027Y172175D01*
X103032Y172187D01*
X103037Y172197D01*
X103042Y172207D01*
X103048Y172216D01*
X103053Y172224D01*
X103059Y172231D01*
X103063Y172237D01*
X103068Y172242D01*
X103072Y172246D01*
X103074Y172248D01*
X103076Y172250D01*
X103076Y172251D01*
X103087Y172259D01*
X103098Y172267D01*
X103110Y172273D01*
X103122Y172278D01*
X103134Y172283D01*
X103146Y172287D01*
X103168Y172293D01*
X103179Y172295D01*
X103188Y172297D01*
X103197Y172297D01*
X103205Y172298D01*
X103211Y172299D01*
X103219D01*
X103238Y172298D01*
D02*
G37*
G36*
X102853Y168381D02*
X102841Y168363D01*
X102828Y168346D01*
X102817Y168331D01*
X102806Y168319D01*
X102796Y168309D01*
X102789Y168302D01*
X102784Y168298D01*
X102783Y168296D01*
X102782D01*
X102775Y168290D01*
X102767Y168284D01*
X102751Y168274D01*
X102743Y168269D01*
X102737Y168266D01*
X102733Y168264D01*
X102732Y168264D01*
X102748Y168261D01*
X102764Y168258D01*
X102778Y168254D01*
X102792Y168249D01*
X102804Y168244D01*
X102816Y168239D01*
X102826Y168234D01*
X102835Y168229D01*
X102842Y168224D01*
X102849Y168219D01*
X102855Y168215D01*
X102860Y168212D01*
X102863Y168209D01*
X102867Y168206D01*
X102867Y168205D01*
X102868Y168204D01*
X102876Y168195D01*
X102883Y168186D01*
X102889Y168176D01*
X102894Y168167D01*
X102902Y168148D01*
X102907Y168130D01*
X102910Y168114D01*
X102911Y168107D01*
X102912Y168101D01*
X102912Y168096D01*
Y168093D01*
Y168090D01*
Y168090D01*
X102912Y168070D01*
X102908Y168052D01*
X102904Y168035D01*
X102899Y168021D01*
X102894Y168010D01*
X102890Y168000D01*
X102888Y167997D01*
X102887Y167995D01*
X102886Y167994D01*
Y167993D01*
X102875Y167978D01*
X102863Y167965D01*
X102852Y167954D01*
X102840Y167945D01*
X102830Y167939D01*
X102822Y167935D01*
X102818Y167933D01*
X102816Y167932D01*
X102815Y167931D01*
X102814D01*
X102806Y167928D01*
X102796Y167925D01*
X102775Y167921D01*
X102753Y167918D01*
X102732Y167916D01*
X102722Y167915D01*
X102713Y167915D01*
X102706D01*
X102698Y167914D01*
X102400D01*
Y168554D01*
X102485D01*
Y168270D01*
X102595D01*
X102604Y168271D01*
X102612D01*
X102619Y168272D01*
X102624Y168273D01*
X102627D01*
X102629Y168274D01*
X102630D01*
X102644Y168279D01*
X102651Y168281D01*
X102657Y168284D01*
X102662Y168287D01*
X102665Y168289D01*
X102667Y168290D01*
X102668Y168291D01*
X102676Y168297D01*
X102683Y168303D01*
X102691Y168310D01*
X102697Y168318D01*
X102703Y168324D01*
X102707Y168329D01*
X102711Y168333D01*
X102712Y168334D01*
X102722Y168347D01*
X102732Y168361D01*
X102742Y168375D01*
X102752Y168389D01*
X102760Y168402D01*
X102764Y168408D01*
X102767Y168413D01*
X102770Y168416D01*
X102772Y168419D01*
X102773Y168421D01*
Y168422D01*
X102857Y168554D01*
X102964D01*
X102853Y168381D01*
D02*
G37*
G36*
X103253Y168564D02*
X103272Y168561D01*
X103290Y168557D01*
X103305Y168551D01*
X103317Y168546D01*
X103322Y168544D01*
X103327Y168542D01*
X103331Y168540D01*
X103333Y168539D01*
X103334Y168538D01*
X103335D01*
X103351Y168526D01*
X103366Y168514D01*
X103377Y168500D01*
X103388Y168488D01*
X103396Y168476D01*
X103401Y168467D01*
X103404Y168464D01*
X103406Y168461D01*
X103406Y168459D01*
Y168459D01*
X103416Y168439D01*
X103422Y168419D01*
X103426Y168400D01*
X103430Y168384D01*
X103431Y168369D01*
X103432Y168363D01*
X103433Y168357D01*
Y168353D01*
Y168349D01*
Y168348D01*
Y168347D01*
X103432Y168330D01*
X103431Y168314D01*
X103428Y168299D01*
X103425Y168284D01*
X103420Y168271D01*
X103416Y168259D01*
X103411Y168248D01*
X103406Y168238D01*
X103400Y168229D01*
X103395Y168220D01*
X103391Y168214D01*
X103386Y168208D01*
X103382Y168203D01*
X103380Y168199D01*
X103378Y168198D01*
X103377Y168197D01*
X103366Y168187D01*
X103356Y168178D01*
X103345Y168170D01*
X103333Y168163D01*
X103321Y168158D01*
X103311Y168153D01*
X103300Y168149D01*
X103290Y168146D01*
X103280Y168144D01*
X103271Y168142D01*
X103263Y168140D01*
X103256Y168140D01*
X103251Y168139D01*
X103243D01*
X103226Y168140D01*
X103211Y168142D01*
X103196Y168145D01*
X103183Y168150D01*
X103172Y168154D01*
X103165Y168157D01*
X103161Y168159D01*
X103159Y168160D01*
X103158Y168160D01*
X103157D01*
X103142Y168169D01*
X103129Y168180D01*
X103117Y168189D01*
X103107Y168200D01*
X103099Y168209D01*
X103093Y168217D01*
X103090Y168223D01*
X103088Y168224D01*
Y168207D01*
X103089Y168190D01*
X103091Y168174D01*
X103092Y168160D01*
X103094Y168147D01*
X103096Y168135D01*
X103097Y168124D01*
X103099Y168114D01*
X103101Y168105D01*
X103103Y168098D01*
X103105Y168091D01*
X103106Y168085D01*
X103108Y168081D01*
X103109Y168079D01*
X103110Y168077D01*
Y168076D01*
X103119Y168058D01*
X103128Y168042D01*
X103138Y168029D01*
X103147Y168018D01*
X103156Y168009D01*
X103162Y168003D01*
X103166Y167999D01*
X103168Y167998D01*
X103180Y167990D01*
X103191Y167985D01*
X103202Y167981D01*
X103212Y167979D01*
X103221Y167977D01*
X103228Y167976D01*
X103235D01*
X103251Y167978D01*
X103267Y167981D01*
X103281Y167987D01*
X103292Y167993D01*
X103301Y167999D01*
X103308Y168005D01*
X103312Y168008D01*
X103314Y168010D01*
X103321Y168019D01*
X103326Y168029D01*
X103332Y168040D01*
X103336Y168050D01*
X103340Y168060D01*
X103342Y168069D01*
X103343Y168072D01*
Y168075D01*
X103344Y168075D01*
Y168076D01*
X103422Y168070D01*
X103420Y168057D01*
X103417Y168044D01*
X103409Y168021D01*
X103404Y168010D01*
X103400Y168001D01*
X103395Y167992D01*
X103390Y167985D01*
X103385Y167977D01*
X103380Y167971D01*
X103376Y167966D01*
X103371Y167961D01*
X103368Y167958D01*
X103366Y167955D01*
X103365Y167955D01*
X103364Y167954D01*
X103355Y167946D01*
X103345Y167940D01*
X103335Y167934D01*
X103324Y167929D01*
X103303Y167921D01*
X103284Y167916D01*
X103275Y167915D01*
X103266Y167914D01*
X103259Y167913D01*
X103252Y167912D01*
X103247Y167911D01*
X103240D01*
X103221Y167912D01*
X103204Y167915D01*
X103187Y167918D01*
X103171Y167923D01*
X103157Y167929D01*
X103144Y167935D01*
X103131Y167941D01*
X103121Y167948D01*
X103111Y167955D01*
X103102Y167962D01*
X103095Y167968D01*
X103089Y167974D01*
X103084Y167979D01*
X103081Y167982D01*
X103079Y167985D01*
X103078Y167985D01*
X103066Y168002D01*
X103056Y168021D01*
X103047Y168041D01*
X103039Y168063D01*
X103032Y168085D01*
X103027Y168108D01*
X103022Y168130D01*
X103018Y168152D01*
X103016Y168173D01*
X103013Y168192D01*
X103012Y168209D01*
X103011Y168225D01*
Y168238D01*
X103010Y168243D01*
Y168247D01*
Y168250D01*
Y168253D01*
Y168254D01*
Y168255D01*
X103011Y168285D01*
X103012Y168313D01*
X103016Y168339D01*
X103020Y168363D01*
X103024Y168384D01*
X103029Y168404D01*
X103035Y168421D01*
X103041Y168437D01*
X103047Y168450D01*
X103052Y168462D01*
X103057Y168472D01*
X103062Y168479D01*
X103066Y168486D01*
X103069Y168490D01*
X103071Y168493D01*
X103072Y168494D01*
X103084Y168506D01*
X103096Y168517D01*
X103110Y168527D01*
X103123Y168535D01*
X103136Y168542D01*
X103150Y168548D01*
X103163Y168553D01*
X103176Y168556D01*
X103187Y168559D01*
X103198Y168561D01*
X103207Y168563D01*
X103216Y168564D01*
X103223D01*
X103228Y168565D01*
X103232D01*
X103253Y168564D01*
D02*
G37*
G36*
X138160Y177807D02*
X138171Y177792D01*
X138183Y177777D01*
X138193Y177765D01*
X138204Y177753D01*
X138213Y177745D01*
X138216Y177741D01*
X138218Y177739D01*
X138220Y177738D01*
X138221Y177737D01*
X138240Y177721D01*
X138259Y177707D01*
X138279Y177694D01*
X138297Y177683D01*
X138312Y177675D01*
X138319Y177671D01*
X138325Y177668D01*
X138329Y177666D01*
X138332Y177664D01*
X138335Y177662D01*
X138336D01*
Y177586D01*
X138322Y177592D01*
X138307Y177598D01*
X138293Y177605D01*
X138281Y177612D01*
X138270Y177617D01*
X138261Y177622D01*
X138258Y177624D01*
X138255Y177626D01*
X138254Y177627D01*
X138253D01*
X138237Y177637D01*
X138223Y177646D01*
X138209Y177656D01*
X138198Y177664D01*
X138190Y177671D01*
X138183Y177676D01*
X138180Y177680D01*
X138178Y177681D01*
Y177180D01*
X138100D01*
Y177823D01*
X138151D01*
X138160Y177807D01*
D02*
G37*
G36*
X139325Y177180D02*
X139236D01*
X138986Y177821D01*
X139072D01*
X139246Y177355D01*
X139253Y177336D01*
X139260Y177317D01*
X139266Y177298D01*
X139271Y177282D01*
X139275Y177269D01*
X139276Y177264D01*
X139278Y177259D01*
X139279Y177255D01*
X139280Y177252D01*
X139281Y177251D01*
Y177250D01*
X139286Y177268D01*
X139291Y177287D01*
X139297Y177305D01*
X139302Y177321D01*
X139307Y177335D01*
X139309Y177341D01*
X139311Y177346D01*
X139312Y177349D01*
X139313Y177352D01*
X139314Y177354D01*
Y177355D01*
X139481Y177821D01*
X139573D01*
X139325Y177180D01*
D02*
G37*
G36*
X138959Y177745D02*
X138748D01*
Y177180D01*
X138663D01*
Y177745D01*
X138452D01*
Y177821D01*
X138959D01*
Y177745D01*
D02*
G37*
G36*
X137925Y177406D02*
Y177333D01*
X137647D01*
Y177180D01*
X137569D01*
Y177333D01*
X137482D01*
Y177406D01*
X137569D01*
Y177821D01*
X137633D01*
X137925Y177406D01*
D02*
G37*
G36*
X147868Y169646D02*
X147885Y169645D01*
X147917Y169641D01*
X147932Y169638D01*
X147946Y169635D01*
X147960Y169632D01*
X147972Y169627D01*
X147983Y169624D01*
X147993Y169621D01*
X148001Y169617D01*
X148009Y169615D01*
X148014Y169612D01*
X148019Y169611D01*
X148021Y169609D01*
X148022D01*
X148049Y169593D01*
X148061Y169585D01*
X148072Y169576D01*
X148083Y169567D01*
X148093Y169557D01*
X148101Y169549D01*
X148109Y169540D01*
X148116Y169532D01*
X148122Y169524D01*
X148128Y169517D01*
X148132Y169512D01*
X148135Y169507D01*
X148138Y169503D01*
X148139Y169501D01*
X148139Y169500D01*
X148147Y169487D01*
X148153Y169472D01*
X148159Y169459D01*
X148164Y169446D01*
X148171Y169419D01*
X148176Y169395D01*
X148178Y169383D01*
X148179Y169373D01*
X148179Y169365D01*
X148180Y169358D01*
X148181Y169351D01*
Y169343D01*
X148180Y169327D01*
X148179Y169311D01*
X148175Y169282D01*
X148172Y169268D01*
X148169Y169254D01*
X148165Y169243D01*
X148161Y169231D01*
X148158Y169221D01*
X148154Y169212D01*
X148151Y169204D01*
X148148Y169198D01*
X148145Y169192D01*
X148144Y169188D01*
X148142Y169186D01*
Y169185D01*
X148160Y169159D01*
X148176Y169135D01*
X148189Y169112D01*
X148200Y169091D01*
X148204Y169082D01*
X148209Y169073D01*
X148212Y169066D01*
X148214Y169059D01*
X148217Y169054D01*
X148219Y169051D01*
X148219Y169048D01*
Y169048D01*
X148161Y169022D01*
X148154Y169041D01*
X148144Y169060D01*
X148134Y169078D01*
X148124Y169095D01*
X148116Y169109D01*
X148112Y169116D01*
X148109Y169121D01*
X148106Y169125D01*
X148104Y169128D01*
X148103Y169130D01*
X148102Y169131D01*
X148084Y169114D01*
X148065Y169099D01*
X148047Y169087D01*
X148029Y169077D01*
X148015Y169068D01*
X148009Y169065D01*
X148004Y169063D01*
X147999Y169061D01*
X147995Y169059D01*
X147994Y169058D01*
X147993D01*
X147969Y169050D01*
X147944Y169044D01*
X147920Y169040D01*
X147898Y169038D01*
X147888Y169036D01*
X147879Y169035D01*
X147870D01*
X147864Y169034D01*
X147858D01*
X147854D01*
X147851D01*
X147850D01*
X147833D01*
X147815Y169036D01*
X147783Y169040D01*
X147768Y169043D01*
X147755Y169046D01*
X147741Y169049D01*
X147729Y169053D01*
X147718Y169057D01*
X147709Y169060D01*
X147700Y169063D01*
X147693Y169066D01*
X147687Y169068D01*
X147683Y169070D01*
X147680Y169071D01*
X147680Y169072D01*
X147653Y169088D01*
X147640Y169096D01*
X147629Y169104D01*
X147619Y169113D01*
X147609Y169123D01*
X147600Y169132D01*
X147592Y169140D01*
X147585Y169148D01*
X147579Y169156D01*
X147574Y169163D01*
X147569Y169169D01*
X147565Y169174D01*
X147563Y169178D01*
X147562Y169180D01*
X147561Y169181D01*
X147554Y169194D01*
X147547Y169208D01*
X147541Y169222D01*
X147536Y169236D01*
X147529Y169263D01*
X147524Y169287D01*
X147522Y169298D01*
X147521Y169308D01*
X147520Y169318D01*
X147520Y169325D01*
X147519Y169332D01*
Y169340D01*
X147520Y169357D01*
X147520Y169372D01*
X147525Y169402D01*
X147528Y169416D01*
X147531Y169429D01*
X147535Y169442D01*
X147539Y169452D01*
X147543Y169463D01*
X147546Y169472D01*
X147550Y169480D01*
X147553Y169487D01*
X147555Y169492D01*
X147558Y169496D01*
X147559Y169498D01*
X147560Y169499D01*
X147568Y169512D01*
X147576Y169524D01*
X147595Y169546D01*
X147615Y169565D01*
X147635Y169580D01*
X147644Y169587D01*
X147652Y169592D01*
X147660Y169597D01*
X147666Y169601D01*
X147671Y169604D01*
X147675Y169607D01*
X147678Y169607D01*
X147679Y169608D01*
X147694Y169615D01*
X147709Y169621D01*
X147738Y169631D01*
X147767Y169637D01*
X147780Y169640D01*
X147794Y169642D01*
X147805Y169643D01*
X147816Y169645D01*
X147826Y169646D01*
X147835D01*
X147841Y169647D01*
X147846D01*
X147850D01*
X147850D01*
X147868Y169646D01*
D02*
G37*
G36*
X148015Y168950D02*
X148029Y168947D01*
X148042Y168943D01*
X148054Y168938D01*
X148066Y168933D01*
X148077Y168928D01*
X148087Y168923D01*
X148096Y168918D01*
X148104Y168912D01*
X148111Y168907D01*
X148117Y168902D01*
X148122Y168898D01*
X148126Y168893D01*
X148129Y168891D01*
X148130Y168889D01*
X148131Y168888D01*
X148140Y168878D01*
X148148Y168867D01*
X148154Y168855D01*
X148160Y168843D01*
X148164Y168831D01*
X148169Y168819D01*
X148174Y168798D01*
X148177Y168788D01*
X148179Y168778D01*
X148179Y168769D01*
X148180Y168763D01*
X148181Y168757D01*
Y168749D01*
X148180Y168731D01*
X148179Y168715D01*
X148176Y168699D01*
X148172Y168685D01*
X148168Y168671D01*
X148163Y168659D01*
X148158Y168647D01*
X148152Y168636D01*
X148147Y168627D01*
X148142Y168619D01*
X148137Y168611D01*
X148133Y168605D01*
X148129Y168600D01*
X148126Y168597D01*
X148124Y168595D01*
X148124Y168594D01*
X148113Y168584D01*
X148101Y168574D01*
X148089Y168566D01*
X148077Y168559D01*
X148064Y168553D01*
X148053Y168548D01*
X148041Y168544D01*
X148030Y168540D01*
X148020Y168538D01*
X148011Y168536D01*
X148003Y168534D01*
X147995Y168534D01*
X147990Y168533D01*
X147984D01*
X147982D01*
X147981D01*
X147959Y168534D01*
X147940Y168538D01*
X147922Y168543D01*
X147907Y168549D01*
X147895Y168554D01*
X147890Y168557D01*
X147886Y168559D01*
X147883Y168561D01*
X147880Y168563D01*
X147880Y168564D01*
X147879D01*
X147865Y168577D01*
X147853Y168592D01*
X147843Y168606D01*
X147835Y168620D01*
X147830Y168633D01*
X147828Y168639D01*
X147826Y168644D01*
X147825Y168647D01*
X147825Y168650D01*
X147824Y168652D01*
Y168653D01*
X147815Y168638D01*
X147807Y168624D01*
X147798Y168613D01*
X147789Y168604D01*
X147781Y168596D01*
X147775Y168591D01*
X147771Y168588D01*
X147770Y168587D01*
X147756Y168579D01*
X147743Y168574D01*
X147730Y168570D01*
X147719Y168567D01*
X147709Y168565D01*
X147700Y168564D01*
X147695D01*
X147695D01*
X147694D01*
X147678Y168565D01*
X147663Y168568D01*
X147649Y168572D01*
X147636Y168576D01*
X147626Y168581D01*
X147618Y168584D01*
X147613Y168588D01*
X147612Y168589D01*
X147611D01*
X147597Y168598D01*
X147585Y168609D01*
X147575Y168620D01*
X147565Y168631D01*
X147559Y168641D01*
X147554Y168649D01*
X147552Y168652D01*
X147550Y168654D01*
X147550Y168655D01*
Y168656D01*
X147542Y168673D01*
X147536Y168689D01*
X147533Y168705D01*
X147530Y168720D01*
X147528Y168733D01*
Y168738D01*
X147527Y168743D01*
Y168752D01*
X147528Y168766D01*
X147529Y168779D01*
X147534Y168804D01*
X147541Y168826D01*
X147545Y168835D01*
X147549Y168844D01*
X147553Y168852D01*
X147557Y168859D01*
X147561Y168865D01*
X147565Y168870D01*
X147567Y168874D01*
X147570Y168877D01*
X147570Y168878D01*
X147571Y168879D01*
X147580Y168888D01*
X147589Y168897D01*
X147609Y168911D01*
X147629Y168922D01*
X147648Y168931D01*
X147657Y168934D01*
X147665Y168937D01*
X147674Y168939D01*
X147680Y168941D01*
X147685Y168943D01*
X147690Y168943D01*
X147692Y168944D01*
X147693D01*
X147707Y168866D01*
X147687Y168862D01*
X147670Y168857D01*
X147655Y168850D01*
X147643Y168843D01*
X147633Y168838D01*
X147626Y168833D01*
X147623Y168829D01*
X147621Y168828D01*
X147611Y168815D01*
X147605Y168803D01*
X147600Y168789D01*
X147595Y168778D01*
X147594Y168767D01*
X147593Y168758D01*
X147592Y168754D01*
Y168750D01*
X147593Y168734D01*
X147596Y168719D01*
X147601Y168706D01*
X147606Y168695D01*
X147612Y168687D01*
X147616Y168680D01*
X147620Y168677D01*
X147621Y168675D01*
X147632Y168665D01*
X147645Y168658D01*
X147656Y168653D01*
X147667Y168649D01*
X147677Y168647D01*
X147685Y168646D01*
X147690Y168645D01*
X147691D01*
X147692D01*
X147702Y168646D01*
X147711Y168647D01*
X147728Y168652D01*
X147742Y168658D01*
X147754Y168665D01*
X147762Y168673D01*
X147769Y168679D01*
X147772Y168684D01*
X147774Y168685D01*
Y168686D01*
X147782Y168701D01*
X147789Y168717D01*
X147793Y168732D01*
X147796Y168746D01*
X147798Y168758D01*
X147799Y168768D01*
X147800Y168771D01*
Y168780D01*
X147799Y168784D01*
X147798Y168787D01*
Y168788D01*
X147867Y168798D01*
X147865Y168786D01*
X147862Y168775D01*
X147860Y168765D01*
X147860Y168757D01*
X147859Y168751D01*
Y168742D01*
X147860Y168722D01*
X147865Y168704D01*
X147870Y168689D01*
X147876Y168676D01*
X147883Y168666D01*
X147888Y168659D01*
X147892Y168654D01*
X147894Y168652D01*
X147900Y168645D01*
X147908Y168640D01*
X147922Y168631D01*
X147937Y168624D01*
X147951Y168620D01*
X147964Y168618D01*
X147970Y168617D01*
X147974D01*
X147978Y168616D01*
X147980D01*
X147982D01*
X147983D01*
X147993D01*
X148003Y168618D01*
X148021Y168622D01*
X148038Y168629D01*
X148051Y168635D01*
X148063Y168642D01*
X148071Y168649D01*
X148074Y168651D01*
X148076Y168653D01*
X148077Y168654D01*
X148078Y168654D01*
X148084Y168662D01*
X148090Y168669D01*
X148100Y168685D01*
X148107Y168701D01*
X148111Y168716D01*
X148114Y168729D01*
X148115Y168734D01*
Y168739D01*
X148116Y168743D01*
Y168749D01*
X148114Y168765D01*
X148111Y168781D01*
X148107Y168794D01*
X148101Y168806D01*
X148096Y168816D01*
X148091Y168823D01*
X148088Y168827D01*
X148087Y168828D01*
X148081Y168834D01*
X148074Y168839D01*
X148059Y168848D01*
X148043Y168857D01*
X148027Y168863D01*
X148012Y168868D01*
X148006Y168869D01*
X148000Y168871D01*
X147996Y168872D01*
X147993Y168873D01*
X147990Y168873D01*
X147990D01*
X148000Y168952D01*
X148015Y168950D01*
D02*
G37*
G36*
X153771Y169625D02*
X153788Y169625D01*
X153820Y169620D01*
X153835Y169618D01*
X153849Y169615D01*
X153863Y169611D01*
X153875Y169607D01*
X153886Y169604D01*
X153896Y169600D01*
X153904Y169597D01*
X153912Y169595D01*
X153917Y169592D01*
X153922Y169590D01*
X153924Y169589D01*
X153925D01*
X153952Y169573D01*
X153964Y169565D01*
X153975Y169555D01*
X153986Y169546D01*
X153996Y169537D01*
X154004Y169529D01*
X154012Y169520D01*
X154019Y169511D01*
X154025Y169504D01*
X154031Y169497D01*
X154035Y169491D01*
X154038Y169486D01*
X154041Y169483D01*
X154042Y169480D01*
X154042Y169480D01*
X154050Y169466D01*
X154056Y169452D01*
X154062Y169439D01*
X154067Y169425D01*
X154074Y169399D01*
X154079Y169375D01*
X154081Y169363D01*
X154082Y169353D01*
X154082Y169345D01*
X154083Y169337D01*
X154084Y169330D01*
Y169322D01*
X154083Y169306D01*
X154082Y169290D01*
X154078Y169261D01*
X154075Y169247D01*
X154072Y169234D01*
X154068Y169222D01*
X154064Y169210D01*
X154061Y169200D01*
X154057Y169191D01*
X154054Y169184D01*
X154051Y169177D01*
X154048Y169171D01*
X154047Y169168D01*
X154045Y169165D01*
Y169165D01*
X154063Y169139D01*
X154079Y169115D01*
X154092Y169091D01*
X154103Y169071D01*
X154107Y169061D01*
X154112Y169053D01*
X154115Y169046D01*
X154117Y169039D01*
X154120Y169034D01*
X154122Y169031D01*
X154122Y169028D01*
Y169027D01*
X154064Y169001D01*
X154057Y169021D01*
X154047Y169040D01*
X154037Y169058D01*
X154027Y169075D01*
X154019Y169089D01*
X154015Y169096D01*
X154012Y169101D01*
X154009Y169105D01*
X154007Y169108D01*
X154006Y169110D01*
X154005Y169111D01*
X153987Y169094D01*
X153968Y169079D01*
X153950Y169066D01*
X153932Y169056D01*
X153918Y169048D01*
X153912Y169045D01*
X153907Y169042D01*
X153902Y169041D01*
X153898Y169039D01*
X153897Y169038D01*
X153896D01*
X153872Y169030D01*
X153847Y169024D01*
X153823Y169020D01*
X153801Y169017D01*
X153791Y169016D01*
X153782Y169015D01*
X153773D01*
X153767Y169014D01*
X153761D01*
X153757D01*
X153754D01*
X153753D01*
X153736D01*
X153718Y169016D01*
X153686Y169020D01*
X153671Y169022D01*
X153658Y169026D01*
X153644Y169029D01*
X153632Y169032D01*
X153621Y169036D01*
X153612Y169040D01*
X153603Y169043D01*
X153596Y169046D01*
X153590Y169048D01*
X153586Y169050D01*
X153583Y169051D01*
X153583Y169051D01*
X153556Y169067D01*
X153543Y169076D01*
X153532Y169084D01*
X153522Y169093D01*
X153512Y169102D01*
X153503Y169111D01*
X153495Y169120D01*
X153488Y169128D01*
X153482Y169136D01*
X153477Y169143D01*
X153472Y169149D01*
X153468Y169154D01*
X153466Y169157D01*
X153465Y169160D01*
X153464Y169161D01*
X153457Y169174D01*
X153450Y169188D01*
X153444Y169201D01*
X153439Y169215D01*
X153432Y169242D01*
X153427Y169266D01*
X153425Y169278D01*
X153424Y169288D01*
X153423Y169297D01*
X153423Y169305D01*
X153422Y169311D01*
Y169320D01*
X153423Y169336D01*
X153423Y169352D01*
X153428Y169382D01*
X153431Y169395D01*
X153434Y169409D01*
X153438Y169421D01*
X153442Y169432D01*
X153446Y169443D01*
X153449Y169451D01*
X153453Y169460D01*
X153456Y169466D01*
X153458Y169471D01*
X153461Y169475D01*
X153462Y169478D01*
X153463Y169479D01*
X153471Y169491D01*
X153479Y169504D01*
X153498Y169525D01*
X153518Y169545D01*
X153538Y169560D01*
X153547Y169566D01*
X153555Y169572D01*
X153563Y169577D01*
X153569Y169580D01*
X153574Y169584D01*
X153578Y169586D01*
X153581Y169587D01*
X153582Y169588D01*
X153597Y169595D01*
X153612Y169600D01*
X153641Y169610D01*
X153670Y169617D01*
X153683Y169620D01*
X153697Y169621D01*
X153708Y169623D01*
X153719Y169625D01*
X153729Y169625D01*
X153738D01*
X153744Y169626D01*
X153749D01*
X153753D01*
X153753D01*
X153771Y169625D01*
D02*
G37*
G36*
X153804Y168935D02*
X153832Y168933D01*
X153858Y168930D01*
X153882Y168926D01*
X153902Y168921D01*
X153923Y168916D01*
X153940Y168911D01*
X153956Y168905D01*
X153969Y168899D01*
X153981Y168893D01*
X153991Y168888D01*
X153998Y168884D01*
X154005Y168880D01*
X154009Y168876D01*
X154012Y168875D01*
X154012Y168874D01*
X154025Y168861D01*
X154036Y168849D01*
X154046Y168836D01*
X154054Y168822D01*
X154061Y168809D01*
X154067Y168796D01*
X154072Y168782D01*
X154075Y168770D01*
X154078Y168758D01*
X154080Y168747D01*
X154082Y168738D01*
X154083Y168730D01*
Y168722D01*
X154084Y168717D01*
Y168713D01*
X154083Y168692D01*
X154080Y168673D01*
X154076Y168656D01*
X154070Y168641D01*
X154065Y168628D01*
X154063Y168623D01*
X154061Y168618D01*
X154059Y168615D01*
X154057Y168612D01*
X154057Y168611D01*
Y168611D01*
X154045Y168594D01*
X154032Y168580D01*
X154019Y168568D01*
X154007Y168557D01*
X153995Y168550D01*
X153986Y168544D01*
X153982Y168541D01*
X153980Y168540D01*
X153978Y168539D01*
X153977D01*
X153957Y168530D01*
X153938Y168523D01*
X153919Y168519D01*
X153902Y168516D01*
X153888Y168514D01*
X153882Y168513D01*
X153876Y168512D01*
X153872D01*
X153868D01*
X153867D01*
X153866D01*
X153849Y168513D01*
X153833Y168515D01*
X153818Y168517D01*
X153803Y168521D01*
X153790Y168526D01*
X153778Y168530D01*
X153767Y168535D01*
X153757Y168540D01*
X153748Y168546D01*
X153739Y168551D01*
X153733Y168555D01*
X153727Y168559D01*
X153722Y168563D01*
X153718Y168566D01*
X153717Y168567D01*
X153716Y168568D01*
X153706Y168579D01*
X153697Y168590D01*
X153689Y168601D01*
X153682Y168612D01*
X153677Y168624D01*
X153672Y168635D01*
X153668Y168646D01*
X153665Y168656D01*
X153663Y168666D01*
X153661Y168674D01*
X153659Y168682D01*
X153658Y168689D01*
X153658Y168695D01*
Y168702D01*
X153658Y168719D01*
X153661Y168735D01*
X153664Y168749D01*
X153668Y168762D01*
X153673Y168773D01*
X153676Y168781D01*
X153678Y168784D01*
X153678Y168786D01*
X153679Y168787D01*
Y168788D01*
X153688Y168803D01*
X153698Y168816D01*
X153708Y168828D01*
X153719Y168838D01*
X153728Y168846D01*
X153736Y168852D01*
X153742Y168856D01*
X153743Y168857D01*
X153726D01*
X153709Y168856D01*
X153693Y168855D01*
X153679Y168853D01*
X153666Y168851D01*
X153654Y168850D01*
X153643Y168848D01*
X153633Y168846D01*
X153624Y168844D01*
X153617Y168842D01*
X153610Y168841D01*
X153604Y168839D01*
X153600Y168837D01*
X153598Y168836D01*
X153596Y168836D01*
X153595D01*
X153577Y168826D01*
X153561Y168817D01*
X153548Y168807D01*
X153537Y168798D01*
X153528Y168790D01*
X153522Y168783D01*
X153518Y168779D01*
X153517Y168777D01*
X153509Y168766D01*
X153504Y168755D01*
X153500Y168743D01*
X153498Y168733D01*
X153496Y168724D01*
X153495Y168717D01*
Y168711D01*
X153497Y168694D01*
X153500Y168678D01*
X153506Y168665D01*
X153512Y168653D01*
X153518Y168644D01*
X153523Y168637D01*
X153527Y168633D01*
X153528Y168631D01*
X153538Y168625D01*
X153548Y168619D01*
X153558Y168613D01*
X153569Y168609D01*
X153579Y168606D01*
X153588Y168603D01*
X153591Y168602D01*
X153593D01*
X153594Y168601D01*
X153595D01*
X153589Y168523D01*
X153576Y168526D01*
X153563Y168528D01*
X153540Y168536D01*
X153529Y168541D01*
X153520Y168546D01*
X153511Y168551D01*
X153503Y168556D01*
X153496Y168561D01*
X153490Y168566D01*
X153485Y168570D01*
X153480Y168574D01*
X153477Y168577D01*
X153474Y168579D01*
X153473Y168581D01*
X153473Y168581D01*
X153465Y168591D01*
X153458Y168601D01*
X153453Y168611D01*
X153448Y168621D01*
X153440Y168642D01*
X153435Y168661D01*
X153433Y168671D01*
X153433Y168679D01*
X153432Y168686D01*
X153431Y168693D01*
X153430Y168698D01*
Y168706D01*
X153431Y168724D01*
X153433Y168741D01*
X153437Y168758D01*
X153442Y168774D01*
X153448Y168788D01*
X153453Y168801D01*
X153460Y168814D01*
X153467Y168825D01*
X153474Y168834D01*
X153481Y168843D01*
X153487Y168851D01*
X153493Y168856D01*
X153498Y168861D01*
X153501Y168865D01*
X153503Y168866D01*
X153504Y168867D01*
X153521Y168879D01*
X153540Y168890D01*
X153560Y168899D01*
X153582Y168906D01*
X153604Y168913D01*
X153627Y168919D01*
X153649Y168923D01*
X153671Y168927D01*
X153692Y168930D01*
X153711Y168932D01*
X153728Y168933D01*
X153744Y168935D01*
X153757D01*
X153762Y168936D01*
X153766D01*
X153769D01*
X153772D01*
X153773D01*
X153774D01*
X153804Y168935D01*
D02*
G37*
G36*
X160411Y187917D02*
X160426Y187915D01*
X160441Y187912D01*
X160454Y187908D01*
X160467Y187903D01*
X160479Y187898D01*
X160490Y187893D01*
X160499Y187887D01*
X160509Y187882D01*
X160517Y187877D01*
X160524Y187872D01*
X160529Y187867D01*
X160534Y187863D01*
X160537Y187860D01*
X160539Y187858D01*
X160539Y187857D01*
X160549Y187846D01*
X160558Y187834D01*
X160565Y187821D01*
X160572Y187808D01*
X160578Y187795D01*
X160582Y187782D01*
X160589Y187757D01*
X160591Y187746D01*
X160593Y187735D01*
X160594Y187725D01*
X160595Y187717D01*
X160596Y187710D01*
Y187705D01*
Y187702D01*
Y187701D01*
X160595Y187683D01*
X160594Y187667D01*
X160591Y187652D01*
X160588Y187637D01*
X160583Y187624D01*
X160579Y187612D01*
X160574Y187600D01*
X160568Y187590D01*
X160564Y187581D01*
X160559Y187572D01*
X160554Y187565D01*
X160549Y187560D01*
X160546Y187555D01*
X160544Y187552D01*
X160542Y187550D01*
X160541Y187549D01*
X160530Y187539D01*
X160519Y187530D01*
X160509Y187522D01*
X160497Y187516D01*
X160485Y187510D01*
X160474Y187506D01*
X160464Y187502D01*
X160454Y187499D01*
X160444Y187497D01*
X160435Y187495D01*
X160427Y187493D01*
X160420Y187492D01*
X160414Y187492D01*
X160407D01*
X160389Y187492D01*
X160373Y187495D01*
X160358Y187499D01*
X160345Y187503D01*
X160334Y187507D01*
X160326Y187512D01*
X160323Y187512D01*
X160320Y187514D01*
X160319Y187515D01*
X160319D01*
X160304Y187524D01*
X160291Y187534D01*
X160280Y187544D01*
X160271Y187554D01*
X160264Y187562D01*
X160258Y187570D01*
X160254Y187574D01*
X160254Y187576D01*
Y187569D01*
Y187564D01*
Y187561D01*
Y187560D01*
X160254Y187542D01*
X160255Y187524D01*
X160257Y187507D01*
X160259Y187493D01*
X160262Y187481D01*
X160263Y187476D01*
X160264Y187472D01*
X160264Y187468D01*
Y187466D01*
X160265Y187464D01*
Y187463D01*
X160269Y187447D01*
X160274Y187432D01*
X160279Y187419D01*
X160284Y187408D01*
X160289Y187400D01*
X160291Y187393D01*
X160294Y187390D01*
X160294Y187388D01*
X160301Y187378D01*
X160309Y187370D01*
X160316Y187363D01*
X160324Y187356D01*
X160329Y187351D01*
X160334Y187348D01*
X160339Y187345D01*
X160339Y187344D01*
X160350Y187339D01*
X160361Y187335D01*
X160372Y187333D01*
X160381Y187330D01*
X160390Y187329D01*
X160397Y187328D01*
X160403D01*
X160418Y187329D01*
X160432Y187332D01*
X160444Y187336D01*
X160454Y187340D01*
X160462Y187344D01*
X160468Y187348D01*
X160471Y187351D01*
X160473Y187352D01*
X160482Y187362D01*
X160489Y187373D01*
X160496Y187386D01*
X160500Y187399D01*
X160504Y187410D01*
X160507Y187420D01*
X160508Y187423D01*
Y187426D01*
X160509Y187427D01*
Y187428D01*
X160584Y187423D01*
X160582Y187408D01*
X160579Y187396D01*
X160576Y187383D01*
X160572Y187373D01*
X160567Y187362D01*
X160563Y187352D01*
X160558Y187343D01*
X160553Y187335D01*
X160548Y187328D01*
X160544Y187323D01*
X160539Y187317D01*
X160535Y187313D01*
X160532Y187309D01*
X160529Y187307D01*
X160529Y187306D01*
X160528Y187305D01*
X160519Y187298D01*
X160509Y187292D01*
X160499Y187286D01*
X160489Y187281D01*
X160468Y187273D01*
X160449Y187268D01*
X160439Y187267D01*
X160431Y187266D01*
X160424Y187265D01*
X160418Y187264D01*
X160413Y187263D01*
X160405D01*
X160392Y187264D01*
X160379Y187265D01*
X160356Y187269D01*
X160335Y187275D01*
X160317Y187283D01*
X160309Y187286D01*
X160302Y187289D01*
X160296Y187293D01*
X160291Y187295D01*
X160287Y187298D01*
X160284Y187299D01*
X160283Y187301D01*
X160282D01*
X160263Y187317D01*
X160247Y187334D01*
X160233Y187353D01*
X160222Y187371D01*
X160213Y187387D01*
X160209Y187393D01*
X160207Y187400D01*
X160204Y187405D01*
X160203Y187408D01*
X160202Y187411D01*
Y187412D01*
X160197Y187426D01*
X160193Y187441D01*
X160186Y187472D01*
X160182Y187506D01*
X160180Y187522D01*
X160179Y187537D01*
X160178Y187552D01*
X160177Y187565D01*
X160176Y187577D01*
X160175Y187587D01*
Y187596D01*
Y187602D01*
Y187606D01*
Y187607D01*
Y187629D01*
X160176Y187649D01*
X160178Y187667D01*
X160179Y187685D01*
X160182Y187702D01*
X160184Y187716D01*
X160186Y187729D01*
X160189Y187742D01*
X160192Y187752D01*
X160194Y187762D01*
X160196Y187769D01*
X160199Y187776D01*
X160200Y187781D01*
X160202Y187785D01*
X160203Y187787D01*
Y187787D01*
X160214Y187810D01*
X160226Y187829D01*
X160239Y187845D01*
X160252Y187859D01*
X160264Y187869D01*
X160273Y187877D01*
X160276Y187880D01*
X160279Y187882D01*
X160280Y187883D01*
X160281D01*
X160301Y187895D01*
X160321Y187903D01*
X160340Y187909D01*
X160358Y187913D01*
X160373Y187916D01*
X160379Y187917D01*
X160384D01*
X160389Y187917D01*
X160395D01*
X160411Y187917D01*
D02*
G37*
G36*
X161210Y187274D02*
X161125D01*
Y187558D01*
X161015D01*
X161006Y187557D01*
X160998D01*
X160991Y187557D01*
X160986Y187556D01*
X160983D01*
X160981Y187555D01*
X160980D01*
X160966Y187550D01*
X160959Y187547D01*
X160953Y187544D01*
X160948Y187542D01*
X160945Y187539D01*
X160943Y187538D01*
X160942Y187537D01*
X160934Y187532D01*
X160927Y187526D01*
X160919Y187518D01*
X160913Y187511D01*
X160907Y187505D01*
X160903Y187499D01*
X160899Y187496D01*
X160898Y187494D01*
X160888Y187482D01*
X160878Y187467D01*
X160868Y187453D01*
X160858Y187439D01*
X160850Y187427D01*
X160846Y187421D01*
X160843Y187416D01*
X160840Y187413D01*
X160838Y187409D01*
X160837Y187408D01*
Y187407D01*
X160753Y187274D01*
X160646D01*
X160757Y187447D01*
X160769Y187466D01*
X160782Y187482D01*
X160793Y187497D01*
X160804Y187509D01*
X160814Y187519D01*
X160821Y187527D01*
X160826Y187531D01*
X160827Y187532D01*
X160828D01*
X160835Y187538D01*
X160843Y187544D01*
X160859Y187555D01*
X160867Y187559D01*
X160873Y187562D01*
X160877Y187564D01*
X160878Y187565D01*
X160862Y187567D01*
X160846Y187571D01*
X160832Y187575D01*
X160818Y187579D01*
X160806Y187584D01*
X160794Y187589D01*
X160784Y187594D01*
X160775Y187599D01*
X160768Y187604D01*
X160761Y187609D01*
X160755Y187613D01*
X160750Y187617D01*
X160747Y187620D01*
X160743Y187622D01*
X160743Y187623D01*
X160742Y187624D01*
X160734Y187633D01*
X160727Y187642D01*
X160721Y187652D01*
X160716Y187662D01*
X160708Y187681D01*
X160703Y187699D01*
X160700Y187715D01*
X160699Y187722D01*
X160698Y187727D01*
X160698Y187732D01*
Y187736D01*
Y187738D01*
Y187739D01*
X160698Y187758D01*
X160702Y187777D01*
X160706Y187793D01*
X160711Y187807D01*
X160716Y187819D01*
X160720Y187828D01*
X160722Y187832D01*
X160723Y187834D01*
X160724Y187835D01*
Y187836D01*
X160735Y187851D01*
X160747Y187864D01*
X160758Y187875D01*
X160770Y187883D01*
X160780Y187890D01*
X160788Y187894D01*
X160792Y187896D01*
X160794Y187897D01*
X160795Y187897D01*
X160796D01*
X160804Y187901D01*
X160814Y187903D01*
X160835Y187907D01*
X160857Y187911D01*
X160878Y187912D01*
X160888Y187913D01*
X160897Y187914D01*
X160904D01*
X160912Y187915D01*
X161210D01*
Y187274D01*
D02*
G37*
G36*
X161214Y198958D02*
X161129D01*
Y199242D01*
X161019D01*
X161010Y199241D01*
X161001D01*
X160995Y199241D01*
X160990Y199240D01*
X160986D01*
X160985Y199239D01*
X160984D01*
X160970Y199234D01*
X160963Y199231D01*
X160957Y199228D01*
X160952Y199226D01*
X160949Y199223D01*
X160946Y199222D01*
X160946Y199221D01*
X160938Y199216D01*
X160931Y199210D01*
X160923Y199202D01*
X160916Y199195D01*
X160911Y199189D01*
X160906Y199183D01*
X160903Y199180D01*
X160902Y199178D01*
X160892Y199166D01*
X160882Y199151D01*
X160872Y199137D01*
X160862Y199123D01*
X160854Y199111D01*
X160850Y199105D01*
X160846Y199100D01*
X160844Y199096D01*
X160842Y199093D01*
X160841Y199092D01*
Y199091D01*
X160756Y198958D01*
X160650D01*
X160761Y199131D01*
X160773Y199150D01*
X160786Y199166D01*
X160797Y199181D01*
X160808Y199193D01*
X160818Y199203D01*
X160825Y199211D01*
X160830Y199215D01*
X160831Y199216D01*
X160831D01*
X160839Y199222D01*
X160846Y199228D01*
X160863Y199239D01*
X160871Y199243D01*
X160876Y199246D01*
X160881Y199248D01*
X160882Y199249D01*
X160866Y199251D01*
X160850Y199255D01*
X160836Y199259D01*
X160822Y199263D01*
X160810Y199268D01*
X160798Y199273D01*
X160788Y199278D01*
X160779Y199283D01*
X160771Y199288D01*
X160765Y199293D01*
X160759Y199297D01*
X160754Y199301D01*
X160751Y199304D01*
X160747Y199306D01*
X160746Y199307D01*
X160746Y199308D01*
X160738Y199317D01*
X160731Y199326D01*
X160725Y199336D01*
X160720Y199346D01*
X160712Y199365D01*
X160707Y199383D01*
X160704Y199399D01*
X160703Y199406D01*
X160702Y199411D01*
X160701Y199416D01*
Y199420D01*
Y199422D01*
Y199423D01*
X160702Y199442D01*
X160706Y199461D01*
X160710Y199477D01*
X160715Y199491D01*
X160720Y199503D01*
X160724Y199512D01*
X160726Y199516D01*
X160727Y199518D01*
X160728Y199519D01*
Y199520D01*
X160739Y199535D01*
X160751Y199548D01*
X160762Y199559D01*
X160774Y199567D01*
X160784Y199574D01*
X160792Y199578D01*
X160796Y199580D01*
X160798Y199581D01*
X160799Y199581D01*
X160800D01*
X160808Y199585D01*
X160818Y199587D01*
X160839Y199591D01*
X160861Y199595D01*
X160881Y199596D01*
X160891Y199597D01*
X160901Y199598D01*
X160908D01*
X160916Y199599D01*
X161214D01*
Y198958D01*
D02*
G37*
G36*
X160626Y199184D02*
Y199111D01*
X160348D01*
Y198958D01*
X160270D01*
Y199111D01*
X160183D01*
Y199184D01*
X160270D01*
Y199599D01*
X160334D01*
X160626Y199184D01*
D02*
G37*
G36*
X232856Y169620D02*
X232874Y169620D01*
X232905Y169615D01*
X232920Y169613D01*
X232935Y169610D01*
X232948Y169606D01*
X232960Y169602D01*
X232971Y169599D01*
X232981Y169595D01*
X232990Y169592D01*
X232997Y169590D01*
X233003Y169587D01*
X233007Y169585D01*
X233010Y169584D01*
X233010D01*
X233037Y169568D01*
X233050Y169560D01*
X233060Y169550D01*
X233071Y169541D01*
X233081Y169532D01*
X233090Y169524D01*
X233098Y169515D01*
X233105Y169506D01*
X233110Y169499D01*
X233116Y169492D01*
X233120Y169486D01*
X233124Y169481D01*
X233126Y169478D01*
X233127Y169475D01*
X233128Y169475D01*
X233135Y169461D01*
X233141Y169447D01*
X233147Y169434D01*
X233152Y169420D01*
X233160Y169394D01*
X233165Y169370D01*
X233166Y169358D01*
X233167Y169348D01*
X233168Y169340D01*
X233169Y169332D01*
X233170Y169325D01*
Y169317D01*
X233169Y169301D01*
X233168Y169285D01*
X233164Y169256D01*
X233160Y169242D01*
X233157Y169229D01*
X233154Y169217D01*
X233150Y169205D01*
X233146Y169195D01*
X233143Y169186D01*
X233140Y169179D01*
X233136Y169172D01*
X233134Y169166D01*
X233132Y169163D01*
X233130Y169160D01*
Y169160D01*
X233149Y169134D01*
X233165Y169110D01*
X233178Y169086D01*
X233189Y169066D01*
X233193Y169056D01*
X233197Y169048D01*
X233200Y169041D01*
X233203Y169034D01*
X233205Y169029D01*
X233207Y169026D01*
X233208Y169023D01*
Y169022D01*
X233150Y168996D01*
X233142Y169016D01*
X233133Y169035D01*
X233123Y169053D01*
X233113Y169070D01*
X233105Y169084D01*
X233100Y169090D01*
X233097Y169096D01*
X233095Y169100D01*
X233092Y169103D01*
X233091Y169105D01*
X233090Y169105D01*
X233072Y169089D01*
X233054Y169074D01*
X233035Y169061D01*
X233018Y169051D01*
X233004Y169043D01*
X232997Y169040D01*
X232992Y169037D01*
X232987Y169036D01*
X232984Y169034D01*
X232982Y169033D01*
X232981D01*
X232957Y169025D01*
X232932Y169019D01*
X232908Y169015D01*
X232886Y169012D01*
X232876Y169011D01*
X232867Y169010D01*
X232859D01*
X232852Y169009D01*
X232846D01*
X232842D01*
X232840D01*
X232839D01*
X232821D01*
X232804Y169011D01*
X232771Y169015D01*
X232756Y169017D01*
X232743Y169021D01*
X232730Y169024D01*
X232717Y169027D01*
X232706Y169031D01*
X232697Y169035D01*
X232688Y169038D01*
X232681Y169041D01*
X232675Y169043D01*
X232671Y169045D01*
X232669Y169046D01*
X232668Y169046D01*
X232641Y169062D01*
X232629Y169071D01*
X232617Y169079D01*
X232607Y169088D01*
X232597Y169097D01*
X232588Y169106D01*
X232581Y169115D01*
X232573Y169123D01*
X232567Y169130D01*
X232562Y169138D01*
X232557Y169144D01*
X232554Y169149D01*
X232551Y169152D01*
X232551Y169155D01*
X232550Y169155D01*
X232542Y169169D01*
X232536Y169183D01*
X232530Y169196D01*
X232525Y169210D01*
X232517Y169237D01*
X232512Y169261D01*
X232511Y169273D01*
X232510Y169283D01*
X232509Y169292D01*
X232508Y169300D01*
X232507Y169306D01*
Y169315D01*
X232508Y169331D01*
X232509Y169347D01*
X232514Y169377D01*
X232516Y169390D01*
X232520Y169404D01*
X232524Y169416D01*
X232527Y169427D01*
X232531Y169438D01*
X232535Y169446D01*
X232539Y169455D01*
X232541Y169461D01*
X232544Y169466D01*
X232546Y169470D01*
X232547Y169473D01*
X232548Y169474D01*
X232556Y169486D01*
X232565Y169499D01*
X232584Y169520D01*
X232604Y169540D01*
X232623Y169555D01*
X232632Y169561D01*
X232640Y169567D01*
X232648Y169572D01*
X232655Y169575D01*
X232660Y169579D01*
X232664Y169581D01*
X232666Y169582D01*
X232667Y169583D01*
X232682Y169590D01*
X232697Y169595D01*
X232726Y169605D01*
X232755Y169612D01*
X232769Y169615D01*
X232782Y169616D01*
X232794Y169618D01*
X232805Y169620D01*
X232815Y169620D01*
X232823D01*
X232830Y169621D01*
X232835D01*
X232838D01*
X232839D01*
X232856Y169620D01*
D02*
G37*
G36*
X233159Y168514D02*
X233083D01*
Y168829D01*
X233068Y168818D01*
X233060Y168812D01*
X233055Y168807D01*
X233049Y168802D01*
X233045Y168799D01*
X233042Y168796D01*
X233041Y168796D01*
X233037Y168791D01*
X233031Y168786D01*
X233025Y168780D01*
X233020Y168773D01*
X233006Y168758D01*
X232993Y168742D01*
X232980Y168728D01*
X232975Y168721D01*
X232970Y168716D01*
X232966Y168711D01*
X232963Y168708D01*
X232961Y168706D01*
X232960Y168705D01*
X232947Y168690D01*
X232935Y168675D01*
X232924Y168662D01*
X232913Y168650D01*
X232903Y168639D01*
X232893Y168629D01*
X232885Y168620D01*
X232877Y168612D01*
X232870Y168605D01*
X232865Y168599D01*
X232860Y168594D01*
X232855Y168590D01*
X232852Y168587D01*
X232850Y168585D01*
X232849Y168583D01*
X232848D01*
X232833Y168571D01*
X232818Y168560D01*
X232805Y168551D01*
X232793Y168543D01*
X232784Y168537D01*
X232776Y168534D01*
X232771Y168531D01*
X232770Y168531D01*
X232755Y168526D01*
X232742Y168521D01*
X232729Y168519D01*
X232718Y168516D01*
X232708Y168516D01*
X232700Y168515D01*
X232695D01*
X232694D01*
X232680Y168516D01*
X232666Y168517D01*
X232654Y168520D01*
X232642Y168523D01*
X232620Y168532D01*
X232611Y168536D01*
X232602Y168541D01*
X232594Y168547D01*
X232587Y168551D01*
X232581Y168556D01*
X232576Y168561D01*
X232572Y168564D01*
X232570Y168566D01*
X232568Y168568D01*
X232567Y168569D01*
X232558Y168580D01*
X232551Y168591D01*
X232543Y168602D01*
X232537Y168615D01*
X232532Y168627D01*
X232528Y168639D01*
X232522Y168662D01*
X232520Y168673D01*
X232518Y168683D01*
X232517Y168692D01*
X232516Y168701D01*
X232516Y168706D01*
Y168716D01*
X232516Y168732D01*
X232517Y168748D01*
X232520Y168763D01*
X232523Y168776D01*
X232526Y168790D01*
X232531Y168801D01*
X232535Y168812D01*
X232539Y168822D01*
X232544Y168831D01*
X232548Y168839D01*
X232552Y168846D01*
X232556Y168851D01*
X232559Y168856D01*
X232561Y168859D01*
X232562Y168861D01*
X232563Y168861D01*
X232572Y168871D01*
X232582Y168880D01*
X232593Y168887D01*
X232605Y168894D01*
X232615Y168900D01*
X232627Y168905D01*
X232650Y168912D01*
X232660Y168916D01*
X232670Y168918D01*
X232678Y168920D01*
X232685Y168921D01*
X232692Y168922D01*
X232696D01*
X232700Y168923D01*
X232700D01*
X232709Y168842D01*
X232687Y168841D01*
X232669Y168837D01*
X232653Y168831D01*
X232639Y168825D01*
X232629Y168819D01*
X232620Y168813D01*
X232616Y168810D01*
X232615Y168808D01*
X232603Y168795D01*
X232595Y168780D01*
X232589Y168764D01*
X232585Y168750D01*
X232582Y168737D01*
X232581Y168731D01*
Y168726D01*
X232581Y168723D01*
Y168717D01*
X232582Y168698D01*
X232585Y168681D01*
X232590Y168666D01*
X232596Y168653D01*
X232603Y168643D01*
X232608Y168636D01*
X232611Y168631D01*
X232613Y168630D01*
X232625Y168618D01*
X232639Y168610D01*
X232651Y168604D01*
X232664Y168600D01*
X232675Y168597D01*
X232684Y168596D01*
X232687Y168596D01*
X232689D01*
X232690D01*
X232691D01*
X232700D01*
X232708Y168597D01*
X232725Y168601D01*
X232741Y168607D01*
X232755Y168614D01*
X232768Y168621D01*
X232773Y168625D01*
X232778Y168627D01*
X232781Y168630D01*
X232784Y168631D01*
X232785Y168632D01*
X232786Y168633D01*
X232796Y168641D01*
X232806Y168650D01*
X232817Y168660D01*
X232829Y168671D01*
X232851Y168694D01*
X232873Y168717D01*
X232883Y168728D01*
X232892Y168739D01*
X232900Y168749D01*
X232908Y168757D01*
X232914Y168764D01*
X232918Y168770D01*
X232921Y168773D01*
X232922Y168774D01*
X232942Y168798D01*
X232960Y168819D01*
X232977Y168836D01*
X232991Y168851D01*
X233003Y168862D01*
X233012Y168871D01*
X233015Y168873D01*
X233018Y168876D01*
X233019Y168876D01*
X233020Y168877D01*
X233035Y168890D01*
X233050Y168901D01*
X233065Y168909D01*
X233078Y168916D01*
X233089Y168922D01*
X233097Y168926D01*
X233100Y168927D01*
X233103Y168928D01*
X233104Y168929D01*
X233105D01*
X233115Y168932D01*
X233124Y168935D01*
X233133Y168936D01*
X233141Y168937D01*
X233149Y168938D01*
X233154D01*
X233157D01*
X233159D01*
Y168514D01*
D02*
G37*
G36*
X238708Y169600D02*
X238726Y169599D01*
X238758Y169595D01*
X238773Y169592D01*
X238787Y169589D01*
X238800Y169586D01*
X238813Y169582D01*
X238823Y169578D01*
X238833Y169575D01*
X238842Y169572D01*
X238849Y169569D01*
X238855Y169567D01*
X238859Y169565D01*
X238862Y169563D01*
X238863D01*
X238889Y169547D01*
X238902Y169539D01*
X238913Y169530D01*
X238923Y169521D01*
X238933Y169512D01*
X238942Y169503D01*
X238950Y169494D01*
X238957Y169486D01*
X238963Y169478D01*
X238968Y169472D01*
X238973Y169466D01*
X238976Y169461D01*
X238978Y169458D01*
X238979Y169455D01*
X238980Y169454D01*
X238988Y169441D01*
X238993Y169427D01*
X238999Y169413D01*
X239004Y169400D01*
X239012Y169373D01*
X239017Y169349D01*
X239018Y169338D01*
X239019Y169328D01*
X239020Y169319D01*
X239021Y169312D01*
X239022Y169305D01*
Y169297D01*
X239021Y169281D01*
X239020Y169265D01*
X239016Y169236D01*
X239013Y169222D01*
X239009Y169208D01*
X239006Y169197D01*
X239002Y169185D01*
X238998Y169175D01*
X238995Y169166D01*
X238992Y169158D01*
X238988Y169152D01*
X238986Y169146D01*
X238984Y169143D01*
X238983Y169140D01*
Y169139D01*
X239001Y169113D01*
X239017Y169089D01*
X239030Y169066D01*
X239041Y169045D01*
X239045Y169036D01*
X239049Y169028D01*
X239053Y169020D01*
X239055Y169013D01*
X239058Y169008D01*
X239059Y169005D01*
X239060Y169003D01*
Y169002D01*
X239002Y168976D01*
X238994Y168995D01*
X238985Y169014D01*
X238975Y169033D01*
X238965Y169049D01*
X238957Y169063D01*
X238953Y169070D01*
X238949Y169075D01*
X238947Y169079D01*
X238944Y169083D01*
X238943Y169084D01*
X238943Y169085D01*
X238924Y169068D01*
X238906Y169053D01*
X238888Y169041D01*
X238870Y169031D01*
X238856Y169023D01*
X238849Y169019D01*
X238844Y169017D01*
X238839Y169015D01*
X238836Y169013D01*
X238834Y169013D01*
X238833D01*
X238809Y169004D01*
X238784Y168998D01*
X238760Y168994D01*
X238738Y168992D01*
X238728Y168990D01*
X238719Y168989D01*
X238711D01*
X238704Y168988D01*
X238698D01*
X238694D01*
X238692D01*
X238691D01*
X238673D01*
X238656Y168990D01*
X238623Y168994D01*
X238608Y168997D01*
X238595Y169000D01*
X238582Y169003D01*
X238569Y169007D01*
X238559Y169011D01*
X238549Y169014D01*
X238540Y169018D01*
X238534Y169020D01*
X238528Y169023D01*
X238524Y169024D01*
X238521Y169025D01*
X238520Y169026D01*
X238494Y169042D01*
X238481Y169050D01*
X238469Y169058D01*
X238459Y169068D01*
X238449Y169077D01*
X238440Y169086D01*
X238433Y169094D01*
X238425Y169103D01*
X238419Y169110D01*
X238414Y169118D01*
X238409Y169123D01*
X238406Y169128D01*
X238404Y169132D01*
X238403Y169134D01*
X238402Y169135D01*
X238394Y169148D01*
X238388Y169163D01*
X238382Y169176D01*
X238377Y169190D01*
X238369Y169217D01*
X238364Y169241D01*
X238363Y169253D01*
X238362Y169263D01*
X238361Y169272D01*
X238360Y169279D01*
X238359Y169286D01*
Y169294D01*
X238360Y169311D01*
X238361Y169327D01*
X238366Y169357D01*
X238369Y169370D01*
X238372Y169383D01*
X238376Y169396D01*
X238379Y169407D01*
X238384Y169418D01*
X238387Y169426D01*
X238391Y169434D01*
X238394Y169441D01*
X238396Y169446D01*
X238399Y169450D01*
X238399Y169453D01*
X238400Y169453D01*
X238409Y169466D01*
X238417Y169478D01*
X238436Y169500D01*
X238456Y169519D01*
X238475Y169534D01*
X238484Y169541D01*
X238493Y169547D01*
X238500Y169552D01*
X238507Y169555D01*
X238512Y169558D01*
X238516Y169561D01*
X238519Y169562D01*
X238519Y169562D01*
X238534Y169569D01*
X238549Y169575D01*
X238579Y169585D01*
X238608Y169592D01*
X238621Y169594D01*
X238634Y169596D01*
X238646Y169597D01*
X238657Y169599D01*
X238667Y169600D01*
X238675D01*
X238682Y169601D01*
X238687D01*
X238690D01*
X238691D01*
X238708Y169600D01*
D02*
G37*
G36*
X238858Y168904D02*
X238873Y168901D01*
X238885Y168898D01*
X238898Y168893D01*
X238909Y168889D01*
X238920Y168883D01*
X238930Y168878D01*
X238938Y168872D01*
X238947Y168867D01*
X238953Y168861D01*
X238959Y168857D01*
X238964Y168852D01*
X238968Y168849D01*
X238971Y168846D01*
X238973Y168844D01*
X238973Y168844D01*
X238982Y168833D01*
X238989Y168822D01*
X238996Y168810D01*
X239001Y168798D01*
X239006Y168786D01*
X239010Y168774D01*
X239016Y168752D01*
X239018Y168741D01*
X239019Y168732D01*
X239020Y168723D01*
X239021Y168715D01*
X239022Y168709D01*
Y168701D01*
X239021Y168682D01*
X239018Y168664D01*
X239014Y168646D01*
X239009Y168629D01*
X239003Y168614D01*
X238998Y168601D01*
X238990Y168589D01*
X238983Y168577D01*
X238976Y168567D01*
X238968Y168558D01*
X238963Y168550D01*
X238956Y168544D01*
X238952Y168539D01*
X238948Y168535D01*
X238945Y168534D01*
X238944Y168533D01*
X238932Y168524D01*
X238919Y168516D01*
X238907Y168509D01*
X238894Y168504D01*
X238882Y168499D01*
X238869Y168494D01*
X238845Y168489D01*
X238835Y168486D01*
X238825Y168484D01*
X238816Y168484D01*
X238808Y168483D01*
X238803Y168482D01*
X238798D01*
X238795D01*
X238794D01*
X238778Y168483D01*
X238762Y168484D01*
X238747Y168487D01*
X238732Y168491D01*
X238718Y168495D01*
X238707Y168500D01*
X238695Y168505D01*
X238685Y168511D01*
X238676Y168516D01*
X238668Y168522D01*
X238661Y168527D01*
X238655Y168531D01*
X238650Y168535D01*
X238647Y168538D01*
X238645Y168539D01*
X238644Y168540D01*
X238634Y168551D01*
X238625Y168563D01*
X238618Y168574D01*
X238610Y168586D01*
X238605Y168599D01*
X238600Y168610D01*
X238596Y168621D01*
X238594Y168632D01*
X238591Y168643D01*
X238589Y168652D01*
X238588Y168660D01*
X238587Y168667D01*
X238586Y168673D01*
Y168681D01*
X238587Y168693D01*
X238588Y168704D01*
X238593Y168727D01*
X238598Y168747D01*
X238606Y168765D01*
X238610Y168774D01*
X238613Y168780D01*
X238618Y168787D01*
X238620Y168792D01*
X238623Y168796D01*
X238625Y168799D01*
X238626Y168801D01*
X238627Y168802D01*
X238454Y168768D01*
Y168512D01*
X238379D01*
Y168830D01*
X238708Y168892D01*
X238718Y168818D01*
X238708Y168811D01*
X238700Y168804D01*
X238692Y168795D01*
X238686Y168788D01*
X238680Y168781D01*
X238677Y168776D01*
X238674Y168773D01*
X238673Y168771D01*
X238668Y168759D01*
X238663Y168747D01*
X238659Y168735D01*
X238658Y168725D01*
X238656Y168715D01*
X238655Y168709D01*
Y168690D01*
X238657Y168680D01*
X238661Y168660D01*
X238668Y168644D01*
X238674Y168629D01*
X238682Y168618D01*
X238688Y168609D01*
X238691Y168607D01*
X238693Y168604D01*
X238693Y168603D01*
X238694D01*
X238702Y168596D01*
X238710Y168590D01*
X238728Y168581D01*
X238745Y168574D01*
X238763Y168570D01*
X238778Y168567D01*
X238784Y168566D01*
X238790D01*
X238794Y168565D01*
X238798D01*
X238800D01*
X238801D01*
X238814D01*
X238826Y168567D01*
X238848Y168571D01*
X238868Y168578D01*
X238884Y168584D01*
X238891Y168589D01*
X238897Y168592D01*
X238903Y168595D01*
X238907Y168599D01*
X238910Y168601D01*
X238913Y168603D01*
X238913Y168604D01*
X238914Y168604D01*
X238922Y168612D01*
X238928Y168619D01*
X238934Y168628D01*
X238938Y168636D01*
X238947Y168652D01*
X238952Y168668D01*
X238954Y168681D01*
X238955Y168687D01*
X238956Y168691D01*
X238957Y168695D01*
Y168701D01*
X238955Y168719D01*
X238952Y168734D01*
X238948Y168748D01*
X238942Y168759D01*
X238937Y168769D01*
X238932Y168776D01*
X238928Y168780D01*
X238928Y168782D01*
X238915Y168793D01*
X238901Y168802D01*
X238886Y168809D01*
X238871Y168815D01*
X238858Y168819D01*
X238853Y168820D01*
X238848Y168822D01*
X238843Y168823D01*
X238840D01*
X238838Y168824D01*
X238838D01*
X238843Y168906D01*
X238858Y168904D01*
D02*
G37*
G36*
X245948Y187300D02*
X245863D01*
Y187584D01*
X245753D01*
X245744Y187583D01*
X245736D01*
X245729Y187582D01*
X245724Y187581D01*
X245721D01*
X245719Y187580D01*
X245718D01*
X245704Y187575D01*
X245697Y187573D01*
X245692Y187570D01*
X245687Y187567D01*
X245683Y187565D01*
X245681Y187564D01*
X245680Y187563D01*
X245672Y187557D01*
X245665Y187551D01*
X245657Y187544D01*
X245651Y187536D01*
X245645Y187530D01*
X245641Y187525D01*
X245637Y187521D01*
X245637Y187520D01*
X245627Y187507D01*
X245617Y187493D01*
X245607Y187479D01*
X245597Y187465D01*
X245588Y187452D01*
X245584Y187446D01*
X245581Y187441D01*
X245578Y187438D01*
X245577Y187435D01*
X245575Y187433D01*
Y187432D01*
X245491Y187300D01*
X245384D01*
X245495Y187473D01*
X245507Y187491D01*
X245520Y187508D01*
X245532Y187523D01*
X245542Y187535D01*
X245552Y187545D01*
X245559Y187552D01*
X245564Y187556D01*
X245565Y187558D01*
X245566D01*
X245573Y187564D01*
X245581Y187570D01*
X245597Y187580D01*
X245605Y187585D01*
X245611Y187588D01*
X245615Y187590D01*
X245617Y187590D01*
X245600Y187593D01*
X245584Y187596D01*
X245570Y187600D01*
X245557Y187605D01*
X245544Y187610D01*
X245532Y187615D01*
X245522Y187620D01*
X245513Y187625D01*
X245506Y187630D01*
X245499Y187635D01*
X245493Y187639D01*
X245488Y187642D01*
X245485Y187645D01*
X245482Y187648D01*
X245481Y187649D01*
X245480Y187650D01*
X245472Y187659D01*
X245465Y187668D01*
X245459Y187678D01*
X245454Y187687D01*
X245447Y187706D01*
X245442Y187724D01*
X245438Y187740D01*
X245438Y187747D01*
X245437Y187753D01*
X245436Y187758D01*
Y187761D01*
Y187764D01*
Y187764D01*
X245437Y187784D01*
X245440Y187802D01*
X245444Y187819D01*
X245449Y187833D01*
X245454Y187844D01*
X245458Y187854D01*
X245460Y187857D01*
X245462Y187859D01*
X245462Y187860D01*
Y187861D01*
X245473Y187876D01*
X245485Y187889D01*
X245497Y187900D01*
X245508Y187909D01*
X245518Y187915D01*
X245527Y187919D01*
X245530Y187921D01*
X245532Y187922D01*
X245533Y187923D01*
X245534D01*
X245542Y187926D01*
X245552Y187929D01*
X245573Y187933D01*
X245595Y187936D01*
X245616Y187938D01*
X245626Y187939D01*
X245635Y187939D01*
X245642D01*
X245650Y187940D01*
X245948D01*
Y187300D01*
D02*
G37*
G36*
X245141Y187942D02*
X245156Y187941D01*
X245169Y187939D01*
X245182Y187935D01*
X245193Y187932D01*
X245205Y187928D01*
X245215Y187923D01*
X245223Y187919D01*
X245232Y187914D01*
X245239Y187909D01*
X245245Y187905D01*
X245250Y187902D01*
X245254Y187899D01*
X245257Y187897D01*
X245258Y187895D01*
X245259Y187894D01*
X245268Y187885D01*
X245276Y187876D01*
X245283Y187866D01*
X245288Y187856D01*
X245293Y187846D01*
X245297Y187836D01*
X245303Y187818D01*
X245307Y187802D01*
X245308Y187794D01*
X245308Y187789D01*
X245309Y187784D01*
Y187780D01*
Y187778D01*
Y187777D01*
X245308Y187760D01*
X245306Y187745D01*
X245302Y187732D01*
X245298Y187720D01*
X245293Y187711D01*
X245289Y187704D01*
X245287Y187699D01*
X245286Y187698D01*
X245276Y187686D01*
X245265Y187675D01*
X245253Y187667D01*
X245241Y187660D01*
X245230Y187654D01*
X245222Y187650D01*
X245218Y187648D01*
X245216Y187647D01*
X245214Y187646D01*
X245213D01*
X245234Y187640D01*
X245252Y187631D01*
X245268Y187621D01*
X245280Y187612D01*
X245290Y187603D01*
X245298Y187595D01*
X245302Y187590D01*
X245303Y187590D01*
Y187589D01*
X245314Y187572D01*
X245322Y187555D01*
X245328Y187538D01*
X245331Y187521D01*
X245333Y187506D01*
X245334Y187500D01*
Y187495D01*
X245335Y187490D01*
Y187487D01*
Y187485D01*
Y187485D01*
X245334Y187470D01*
X245333Y187455D01*
X245330Y187440D01*
X245326Y187427D01*
X245322Y187415D01*
X245317Y187403D01*
X245312Y187393D01*
X245306Y187383D01*
X245301Y187375D01*
X245296Y187367D01*
X245291Y187360D01*
X245287Y187355D01*
X245283Y187350D01*
X245280Y187347D01*
X245278Y187345D01*
X245278Y187345D01*
X245266Y187335D01*
X245254Y187326D01*
X245242Y187319D01*
X245229Y187312D01*
X245216Y187307D01*
X245203Y187302D01*
X245179Y187295D01*
X245168Y187294D01*
X245158Y187292D01*
X245148Y187290D01*
X245140Y187290D01*
X245133Y187289D01*
X245124D01*
X245107Y187290D01*
X245091Y187291D01*
X245075Y187294D01*
X245061Y187298D01*
X245047Y187302D01*
X245034Y187306D01*
X245023Y187311D01*
X245013Y187317D01*
X245003Y187322D01*
X244995Y187327D01*
X244988Y187331D01*
X244983Y187336D01*
X244978Y187340D01*
X244974Y187342D01*
X244973Y187344D01*
X244972Y187345D01*
X244962Y187355D01*
X244953Y187366D01*
X244945Y187378D01*
X244938Y187390D01*
X244933Y187401D01*
X244928Y187413D01*
X244923Y187424D01*
X244921Y187435D01*
X244918Y187445D01*
X244917Y187453D01*
X244915Y187461D01*
X244914Y187469D01*
X244913Y187475D01*
Y187479D01*
Y187481D01*
Y187482D01*
X244915Y187504D01*
X244918Y187524D01*
X244923Y187541D01*
X244928Y187556D01*
X244934Y187568D01*
X244937Y187573D01*
X244939Y187577D01*
X244942Y187580D01*
X244943Y187583D01*
X244944Y187584D01*
Y187585D01*
X244957Y187600D01*
X244971Y187612D01*
X244986Y187623D01*
X245001Y187631D01*
X245014Y187638D01*
X245019Y187640D01*
X245024Y187643D01*
X245028Y187645D01*
X245032Y187645D01*
X245033Y187646D01*
X245034D01*
X245018Y187654D01*
X245003Y187662D01*
X244991Y187670D01*
X244981Y187679D01*
X244973Y187686D01*
X244968Y187692D01*
X244964Y187695D01*
X244963Y187697D01*
X244955Y187710D01*
X244949Y187724D01*
X244945Y187736D01*
X244943Y187749D01*
X244940Y187759D01*
X244939Y187768D01*
Y187771D01*
Y187774D01*
Y187774D01*
Y187775D01*
X244940Y187788D01*
X244942Y187800D01*
X244944Y187812D01*
X244948Y187824D01*
X244956Y187844D01*
X244965Y187861D01*
X244970Y187868D01*
X244974Y187874D01*
X244979Y187880D01*
X244983Y187885D01*
X244986Y187889D01*
X244988Y187891D01*
X244990Y187893D01*
X244991Y187894D01*
X245001Y187902D01*
X245011Y187910D01*
X245023Y187916D01*
X245033Y187922D01*
X245045Y187927D01*
X245056Y187931D01*
X245078Y187937D01*
X245088Y187939D01*
X245097Y187940D01*
X245105Y187941D01*
X245112Y187942D01*
X245118Y187943D01*
X245126D01*
X245141Y187942D01*
D02*
G37*
G36*
X245148Y199640D02*
X245162Y199639D01*
X245187Y199635D01*
X245208Y199627D01*
X245218Y199623D01*
X245227Y199620D01*
X245234Y199615D01*
X245242Y199611D01*
X245248Y199607D01*
X245253Y199604D01*
X245257Y199601D01*
X245259Y199599D01*
X245261Y199598D01*
X245262Y199597D01*
X245271Y199589D01*
X245279Y199580D01*
X245293Y199560D01*
X245304Y199540D01*
X245313Y199520D01*
X245317Y199511D01*
X245319Y199503D01*
X245322Y199495D01*
X245323Y199489D01*
X245325Y199483D01*
X245326Y199479D01*
X245327Y199476D01*
Y199475D01*
X245248Y199461D01*
X245244Y199481D01*
X245239Y199499D01*
X245233Y199514D01*
X245226Y199525D01*
X245220Y199535D01*
X245215Y199542D01*
X245212Y199545D01*
X245210Y199547D01*
X245198Y199557D01*
X245185Y199564D01*
X245172Y199569D01*
X245160Y199573D01*
X245149Y199575D01*
X245140Y199575D01*
X245137Y199576D01*
X245133D01*
X245116Y199575D01*
X245102Y199572D01*
X245088Y199567D01*
X245078Y199562D01*
X245069Y199556D01*
X245063Y199552D01*
X245059Y199549D01*
X245058Y199547D01*
X245048Y199536D01*
X245040Y199524D01*
X245035Y199512D01*
X245031Y199501D01*
X245029Y199491D01*
X245028Y199484D01*
X245028Y199478D01*
Y199477D01*
Y199476D01*
X245028Y199466D01*
X245029Y199457D01*
X245034Y199440D01*
X245040Y199426D01*
X245048Y199415D01*
X245055Y199406D01*
X245062Y199400D01*
X245067Y199396D01*
X245068Y199395D01*
X245068D01*
X245083Y199386D01*
X245099Y199380D01*
X245114Y199375D01*
X245128Y199372D01*
X245140Y199370D01*
X245150Y199370D01*
X245153Y199369D01*
X245163D01*
X245167Y199370D01*
X245169Y199370D01*
X245171D01*
X245180Y199301D01*
X245168Y199304D01*
X245158Y199306D01*
X245148Y199308D01*
X245139Y199309D01*
X245133Y199310D01*
X245124D01*
X245104Y199308D01*
X245087Y199304D01*
X245072Y199299D01*
X245058Y199292D01*
X245048Y199285D01*
X245041Y199280D01*
X245036Y199276D01*
X245034Y199275D01*
X245028Y199268D01*
X245023Y199260D01*
X245013Y199246D01*
X245007Y199231D01*
X245003Y199217D01*
X245000Y199205D01*
X244999Y199199D01*
Y199195D01*
X244998Y199190D01*
Y199188D01*
Y199186D01*
Y199185D01*
Y199175D01*
X245000Y199165D01*
X245004Y199147D01*
X245011Y199130D01*
X245018Y199117D01*
X245024Y199105D01*
X245031Y199097D01*
X245033Y199095D01*
X245035Y199092D01*
X245036Y199091D01*
X245037Y199090D01*
X245044Y199084D01*
X245052Y199078D01*
X245068Y199068D01*
X245083Y199061D01*
X245098Y199057D01*
X245111Y199054D01*
X245117Y199053D01*
X245122D01*
X245125Y199052D01*
X245131D01*
X245148Y199054D01*
X245163Y199057D01*
X245177Y199061D01*
X245188Y199067D01*
X245198Y199072D01*
X245205Y199077D01*
X245209Y199080D01*
X245211Y199081D01*
X245217Y199087D01*
X245222Y199094D01*
X245231Y199110D01*
X245239Y199125D01*
X245245Y199141D01*
X245250Y199156D01*
X245252Y199162D01*
X245253Y199168D01*
X245254Y199172D01*
X245255Y199175D01*
X245256Y199178D01*
Y199179D01*
X245334Y199168D01*
X245333Y199153D01*
X245329Y199139D01*
X245326Y199126D01*
X245321Y199114D01*
X245316Y199102D01*
X245311Y199091D01*
X245305Y199081D01*
X245300Y199072D01*
X245294Y199065D01*
X245289Y199057D01*
X245284Y199051D01*
X245280Y199046D01*
X245276Y199042D01*
X245273Y199040D01*
X245272Y199038D01*
X245271Y199037D01*
X245260Y199028D01*
X245249Y199020D01*
X245238Y199014D01*
X245225Y199008D01*
X245213Y199004D01*
X245202Y199000D01*
X245180Y198994D01*
X245170Y198991D01*
X245160Y198990D01*
X245152Y198989D01*
X245145Y198988D01*
X245139Y198987D01*
X245131D01*
X245113Y198988D01*
X245098Y198990D01*
X245082Y198992D01*
X245068Y198996D01*
X245053Y199001D01*
X245041Y199005D01*
X245029Y199010D01*
X245018Y199016D01*
X245009Y199021D01*
X245001Y199026D01*
X244993Y199031D01*
X244988Y199035D01*
X244983Y199040D01*
X244979Y199042D01*
X244978Y199044D01*
X244977Y199045D01*
X244966Y199055D01*
X244957Y199067D01*
X244948Y199080D01*
X244941Y199091D01*
X244935Y199104D01*
X244930Y199115D01*
X244926Y199127D01*
X244923Y199138D01*
X244920Y199148D01*
X244918Y199157D01*
X244917Y199165D01*
X244916Y199173D01*
X244915Y199179D01*
Y199184D01*
Y199186D01*
Y199187D01*
X244917Y199210D01*
X244920Y199229D01*
X244925Y199246D01*
X244931Y199261D01*
X244937Y199274D01*
X244939Y199278D01*
X244942Y199282D01*
X244943Y199285D01*
X244945Y199288D01*
X244947Y199289D01*
Y199290D01*
X244959Y199304D01*
X244974Y199315D01*
X244988Y199325D01*
X245003Y199333D01*
X245015Y199338D01*
X245021Y199340D01*
X245026Y199342D01*
X245029Y199343D01*
X245033Y199344D01*
X245034Y199345D01*
X245035D01*
X245020Y199353D01*
X245007Y199361D01*
X244995Y199370D01*
X244986Y199380D01*
X244978Y199387D01*
X244973Y199393D01*
X244970Y199397D01*
X244969Y199399D01*
X244962Y199412D01*
X244956Y199425D01*
X244953Y199438D01*
X244949Y199450D01*
X244948Y199460D01*
X244947Y199468D01*
Y199473D01*
Y199474D01*
Y199475D01*
X244948Y199490D01*
X244950Y199505D01*
X244954Y199520D01*
X244958Y199532D01*
X244963Y199542D01*
X244967Y199550D01*
X244970Y199555D01*
X244971Y199556D01*
Y199557D01*
X244980Y199571D01*
X244991Y199583D01*
X245003Y199594D01*
X245013Y199603D01*
X245023Y199610D01*
X245031Y199615D01*
X245034Y199616D01*
X245037Y199618D01*
X245038Y199619D01*
X245038D01*
X245055Y199626D01*
X245072Y199632D01*
X245088Y199635D01*
X245103Y199639D01*
X245115Y199640D01*
X245121D01*
X245125Y199641D01*
X245134D01*
X245148Y199640D01*
D02*
G37*
G36*
X245948Y198998D02*
X245863D01*
Y199282D01*
X245753D01*
X245744Y199281D01*
X245736D01*
X245729Y199280D01*
X245724Y199280D01*
X245721D01*
X245719Y199279D01*
X245718D01*
X245704Y199274D01*
X245697Y199271D01*
X245692Y199268D01*
X245687Y199265D01*
X245683Y199263D01*
X245681Y199262D01*
X245680Y199261D01*
X245672Y199255D01*
X245665Y199250D01*
X245657Y199242D01*
X245651Y199235D01*
X245645Y199229D01*
X245641Y199223D01*
X245637Y199220D01*
X245637Y199218D01*
X245627Y199205D01*
X245617Y199191D01*
X245607Y199177D01*
X245597Y199163D01*
X245588Y199150D01*
X245584Y199145D01*
X245581Y199140D01*
X245578Y199136D01*
X245577Y199133D01*
X245575Y199131D01*
Y199130D01*
X245491Y198998D01*
X245384D01*
X245495Y199171D01*
X245507Y199190D01*
X245520Y199206D01*
X245532Y199221D01*
X245542Y199233D01*
X245552Y199243D01*
X245559Y199250D01*
X245564Y199255D01*
X245565Y199256D01*
X245566D01*
X245573Y199262D01*
X245581Y199268D01*
X245597Y199279D01*
X245605Y199283D01*
X245611Y199286D01*
X245615Y199288D01*
X245617Y199289D01*
X245600Y199291D01*
X245584Y199295D01*
X245570Y199299D01*
X245557Y199303D01*
X245544Y199308D01*
X245532Y199313D01*
X245522Y199318D01*
X245513Y199323D01*
X245506Y199328D01*
X245499Y199333D01*
X245493Y199337D01*
X245488Y199340D01*
X245485Y199344D01*
X245482Y199346D01*
X245481Y199347D01*
X245480Y199348D01*
X245472Y199357D01*
X245465Y199366D01*
X245459Y199376D01*
X245454Y199385D01*
X245447Y199405D01*
X245442Y199423D01*
X245438Y199439D01*
X245438Y199445D01*
X245437Y199451D01*
X245436Y199456D01*
Y199460D01*
Y199462D01*
Y199463D01*
X245437Y199482D01*
X245440Y199500D01*
X245444Y199517D01*
X245449Y199531D01*
X245454Y199543D01*
X245458Y199552D01*
X245460Y199555D01*
X245462Y199558D01*
X245462Y199559D01*
Y199560D01*
X245473Y199575D01*
X245485Y199588D01*
X245497Y199599D01*
X245508Y199607D01*
X245518Y199614D01*
X245527Y199618D01*
X245530Y199620D01*
X245532Y199620D01*
X245533Y199621D01*
X245534D01*
X245542Y199625D01*
X245552Y199627D01*
X245573Y199631D01*
X245595Y199635D01*
X245616Y199636D01*
X245626Y199637D01*
X245635Y199638D01*
X245642D01*
X245650Y199639D01*
X245948D01*
Y198998D01*
D02*
G37*
G36*
X294538Y169625D02*
X294555Y169625D01*
X294587Y169620D01*
X294602Y169618D01*
X294616Y169615D01*
X294629Y169611D01*
X294642Y169607D01*
X294653Y169604D01*
X294663Y169600D01*
X294671Y169597D01*
X294678Y169595D01*
X294684Y169592D01*
X294688Y169590D01*
X294691Y169589D01*
X294692D01*
X294718Y169573D01*
X294731Y169565D01*
X294742Y169555D01*
X294753Y169546D01*
X294763Y169537D01*
X294771Y169529D01*
X294779Y169520D01*
X294786Y169511D01*
X294792Y169504D01*
X294798Y169497D01*
X294802Y169491D01*
X294805Y169486D01*
X294808Y169483D01*
X294808Y169480D01*
X294809Y169480D01*
X294817Y169466D01*
X294823Y169452D01*
X294828Y169439D01*
X294833Y169425D01*
X294841Y169399D01*
X294846Y169375D01*
X294848Y169363D01*
X294848Y169353D01*
X294849Y169345D01*
X294850Y169337D01*
X294851Y169330D01*
Y169322D01*
X294850Y169306D01*
X294849Y169290D01*
X294845Y169261D01*
X294842Y169247D01*
X294838Y169234D01*
X294835Y169222D01*
X294831Y169210D01*
X294828Y169200D01*
X294824Y169191D01*
X294821Y169184D01*
X294818Y169177D01*
X294815Y169171D01*
X294813Y169168D01*
X294812Y169165D01*
Y169165D01*
X294830Y169139D01*
X294846Y169115D01*
X294859Y169091D01*
X294870Y169071D01*
X294874Y169061D01*
X294878Y169053D01*
X294882Y169046D01*
X294884Y169039D01*
X294887Y169034D01*
X294888Y169031D01*
X294889Y169028D01*
Y169027D01*
X294831Y169001D01*
X294823Y169021D01*
X294814Y169040D01*
X294804Y169058D01*
X294794Y169075D01*
X294786Y169089D01*
X294782Y169096D01*
X294778Y169101D01*
X294776Y169105D01*
X294773Y169108D01*
X294773Y169110D01*
X294772Y169111D01*
X294753Y169094D01*
X294735Y169079D01*
X294717Y169066D01*
X294699Y169056D01*
X294685Y169048D01*
X294678Y169045D01*
X294673Y169042D01*
X294668Y169041D01*
X294665Y169039D01*
X294663Y169038D01*
X294663D01*
X294638Y169030D01*
X294613Y169024D01*
X294589Y169020D01*
X294568Y169017D01*
X294558Y169016D01*
X294548Y169015D01*
X294540D01*
X294534Y169014D01*
X294528D01*
X294523D01*
X294521D01*
X294520D01*
X294503D01*
X294485Y169016D01*
X294453Y169020D01*
X294438Y169022D01*
X294424Y169026D01*
X294411Y169029D01*
X294399Y169032D01*
X294388Y169036D01*
X294379Y169040D01*
X294369Y169043D01*
X294363Y169046D01*
X294357Y169048D01*
X294353Y169050D01*
X294350Y169051D01*
X294349Y169051D01*
X294323Y169067D01*
X294310Y169076D01*
X294299Y169084D01*
X294289Y169093D01*
X294279Y169102D01*
X294269Y169111D01*
X294262Y169120D01*
X294254Y169128D01*
X294249Y169136D01*
X294244Y169143D01*
X294239Y169149D01*
X294235Y169154D01*
X294233Y169157D01*
X294232Y169160D01*
X294231Y169161D01*
X294224Y169174D01*
X294217Y169188D01*
X294211Y169201D01*
X294206Y169215D01*
X294199Y169242D01*
X294194Y169266D01*
X294192Y169278D01*
X294191Y169288D01*
X294190Y169297D01*
X294189Y169305D01*
X294189Y169311D01*
Y169320D01*
X294189Y169336D01*
X294190Y169352D01*
X294195Y169382D01*
X294198Y169395D01*
X294201Y169409D01*
X294205Y169421D01*
X294209Y169432D01*
X294213Y169443D01*
X294216Y169451D01*
X294220Y169460D01*
X294223Y169466D01*
X294225Y169471D01*
X294228Y169475D01*
X294229Y169478D01*
X294229Y169479D01*
X294238Y169491D01*
X294246Y169504D01*
X294265Y169525D01*
X294285Y169545D01*
X294304Y169560D01*
X294314Y169566D01*
X294322Y169572D01*
X294329Y169577D01*
X294336Y169580D01*
X294341Y169584D01*
X294345Y169586D01*
X294348Y169587D01*
X294349Y169588D01*
X294364Y169595D01*
X294379Y169600D01*
X294408Y169610D01*
X294437Y169617D01*
X294450Y169620D01*
X294464Y169621D01*
X294475Y169623D01*
X294486Y169625D01*
X294496Y169625D01*
X294504D01*
X294511Y169626D01*
X294516D01*
X294519D01*
X294520D01*
X294538Y169625D01*
D02*
G37*
G36*
X294687Y168680D02*
X294840D01*
Y168601D01*
X294687D01*
Y168515D01*
X294614D01*
Y168601D01*
X294199D01*
Y168666D01*
X294614Y168958D01*
X294687D01*
Y168680D01*
D02*
G37*
G36*
X288685Y169616D02*
X288703Y169616D01*
X288735Y169611D01*
X288750Y169609D01*
X288764Y169606D01*
X288777Y169602D01*
X288790Y169598D01*
X288800Y169595D01*
X288810Y169591D01*
X288819Y169588D01*
X288826Y169586D01*
X288832Y169583D01*
X288836Y169581D01*
X288839Y169580D01*
X288840D01*
X288866Y169564D01*
X288879Y169556D01*
X288890Y169546D01*
X288900Y169537D01*
X288910Y169528D01*
X288919Y169520D01*
X288927Y169511D01*
X288934Y169502D01*
X288940Y169495D01*
X288945Y169488D01*
X288950Y169482D01*
X288953Y169477D01*
X288955Y169474D01*
X288956Y169471D01*
X288957Y169471D01*
X288965Y169457D01*
X288970Y169443D01*
X288976Y169430D01*
X288981Y169416D01*
X288989Y169390D01*
X288994Y169366D01*
X288995Y169354D01*
X288996Y169344D01*
X288997Y169336D01*
X288998Y169328D01*
X288999Y169321D01*
Y169313D01*
X288998Y169297D01*
X288997Y169281D01*
X288993Y169252D01*
X288990Y169238D01*
X288986Y169225D01*
X288983Y169213D01*
X288979Y169201D01*
X288975Y169191D01*
X288972Y169182D01*
X288969Y169175D01*
X288965Y169168D01*
X288963Y169162D01*
X288961Y169159D01*
X288960Y169156D01*
Y169156D01*
X288978Y169130D01*
X288994Y169106D01*
X289007Y169082D01*
X289018Y169062D01*
X289022Y169052D01*
X289026Y169044D01*
X289030Y169037D01*
X289032Y169030D01*
X289035Y169025D01*
X289036Y169022D01*
X289037Y169019D01*
Y169018D01*
X288979Y168992D01*
X288971Y169012D01*
X288962Y169031D01*
X288952Y169049D01*
X288942Y169066D01*
X288934Y169080D01*
X288930Y169087D01*
X288926Y169092D01*
X288924Y169096D01*
X288921Y169099D01*
X288920Y169101D01*
X288920Y169102D01*
X288901Y169085D01*
X288883Y169070D01*
X288865Y169057D01*
X288847Y169047D01*
X288833Y169039D01*
X288826Y169036D01*
X288821Y169033D01*
X288816Y169032D01*
X288813Y169030D01*
X288811Y169029D01*
X288810D01*
X288786Y169021D01*
X288761Y169015D01*
X288737Y169011D01*
X288715Y169008D01*
X288705Y169007D01*
X288696Y169006D01*
X288688D01*
X288681Y169005D01*
X288675D01*
X288671D01*
X288669D01*
X288668D01*
X288650D01*
X288633Y169007D01*
X288600Y169011D01*
X288585Y169013D01*
X288572Y169017D01*
X288559Y169020D01*
X288546Y169023D01*
X288535Y169027D01*
X288526Y169031D01*
X288517Y169034D01*
X288510Y169037D01*
X288505Y169039D01*
X288501Y169041D01*
X288498Y169042D01*
X288497Y169042D01*
X288471Y169058D01*
X288458Y169067D01*
X288446Y169075D01*
X288436Y169084D01*
X288426Y169093D01*
X288417Y169102D01*
X288410Y169111D01*
X288402Y169119D01*
X288396Y169126D01*
X288391Y169134D01*
X288386Y169140D01*
X288383Y169145D01*
X288381Y169148D01*
X288380Y169151D01*
X288379Y169151D01*
X288371Y169165D01*
X288365Y169179D01*
X288359Y169192D01*
X288354Y169206D01*
X288346Y169233D01*
X288341Y169257D01*
X288340Y169269D01*
X288339Y169279D01*
X288338Y169288D01*
X288337Y169296D01*
X288336Y169302D01*
Y169311D01*
X288337Y169327D01*
X288338Y169343D01*
X288343Y169373D01*
X288346Y169386D01*
X288349Y169400D01*
X288353Y169412D01*
X288356Y169423D01*
X288361Y169434D01*
X288364Y169442D01*
X288368Y169451D01*
X288371Y169457D01*
X288373Y169462D01*
X288376Y169466D01*
X288376Y169469D01*
X288377Y169470D01*
X288386Y169482D01*
X288394Y169495D01*
X288413Y169516D01*
X288433Y169536D01*
X288452Y169551D01*
X288461Y169557D01*
X288470Y169563D01*
X288477Y169568D01*
X288484Y169571D01*
X288489Y169575D01*
X288493Y169577D01*
X288496Y169578D01*
X288496Y169579D01*
X288511Y169586D01*
X288526Y169591D01*
X288556Y169601D01*
X288585Y169608D01*
X288598Y169611D01*
X288611Y169612D01*
X288623Y169614D01*
X288634Y169616D01*
X288644Y169616D01*
X288652D01*
X288659Y169617D01*
X288664D01*
X288667D01*
X288668D01*
X288685Y169616D01*
D02*
G37*
G36*
X288576Y168848D02*
X288570Y168834D01*
X288563Y168820D01*
X288556Y168807D01*
X288551Y168797D01*
X288546Y168787D01*
X288544Y168784D01*
X288542Y168782D01*
X288541Y168781D01*
Y168780D01*
X288531Y168763D01*
X288521Y168749D01*
X288512Y168736D01*
X288504Y168725D01*
X288497Y168717D01*
X288491Y168710D01*
X288488Y168707D01*
X288487Y168705D01*
X288988D01*
Y168627D01*
X288345D01*
Y168677D01*
X288361Y168687D01*
X288376Y168697D01*
X288391Y168709D01*
X288403Y168720D01*
X288415Y168731D01*
X288423Y168739D01*
X288426Y168742D01*
X288429Y168745D01*
X288430Y168747D01*
X288431Y168747D01*
X288446Y168767D01*
X288461Y168786D01*
X288474Y168806D01*
X288485Y168823D01*
X288493Y168839D01*
X288497Y168846D01*
X288500Y168852D01*
X288502Y168856D01*
X288504Y168859D01*
X288506Y168862D01*
Y168862D01*
X288582D01*
X288576Y168848D01*
D02*
G37*
G36*
X300944Y199651D02*
X300960Y199650D01*
X300975Y199648D01*
X300988Y199645D01*
X301001Y199641D01*
X301013Y199637D01*
X301024Y199633D01*
X301034Y199629D01*
X301043Y199624D01*
X301051Y199620D01*
X301057Y199616D01*
X301063Y199612D01*
X301067Y199609D01*
X301070Y199606D01*
X301072Y199606D01*
X301073Y199605D01*
X301083Y199596D01*
X301091Y199586D01*
X301099Y199575D01*
X301105Y199563D01*
X301111Y199552D01*
X301116Y199541D01*
X301124Y199518D01*
X301127Y199508D01*
X301130Y199498D01*
X301131Y199490D01*
X301133Y199482D01*
X301134Y199476D01*
Y199471D01*
X301135Y199468D01*
Y199467D01*
X301054Y199459D01*
X301052Y199481D01*
X301049Y199499D01*
X301043Y199515D01*
X301036Y199529D01*
X301031Y199539D01*
X301025Y199547D01*
X301021Y199551D01*
X301020Y199553D01*
X301006Y199565D01*
X300991Y199573D01*
X300976Y199579D01*
X300961Y199583D01*
X300949Y199586D01*
X300943Y199586D01*
X300938D01*
X300935Y199587D01*
X300929D01*
X300910Y199586D01*
X300892Y199582D01*
X300877Y199577D01*
X300865Y199571D01*
X300855Y199565D01*
X300847Y199560D01*
X300843Y199556D01*
X300841Y199555D01*
X300830Y199542D01*
X300821Y199529D01*
X300816Y199516D01*
X300811Y199504D01*
X300809Y199493D01*
X300808Y199484D01*
X300807Y199481D01*
Y199479D01*
Y199477D01*
Y199476D01*
Y199468D01*
X300809Y199460D01*
X300813Y199442D01*
X300819Y199426D01*
X300826Y199412D01*
X300833Y199400D01*
X300836Y199395D01*
X300839Y199390D01*
X300841Y199386D01*
X300843Y199384D01*
X300844Y199382D01*
X300845Y199381D01*
X300852Y199371D01*
X300861Y199361D01*
X300871Y199351D01*
X300882Y199339D01*
X300906Y199316D01*
X300929Y199295D01*
X300940Y199285D01*
X300951Y199276D01*
X300961Y199267D01*
X300969Y199260D01*
X300976Y199254D01*
X300981Y199250D01*
X300985Y199246D01*
X300986Y199246D01*
X301010Y199226D01*
X301031Y199207D01*
X301048Y199191D01*
X301062Y199176D01*
X301074Y199165D01*
X301082Y199156D01*
X301085Y199152D01*
X301087Y199150D01*
X301088Y199149D01*
X301089Y199148D01*
X301101Y199132D01*
X301112Y199117D01*
X301121Y199103D01*
X301128Y199090D01*
X301134Y199079D01*
X301137Y199071D01*
X301139Y199067D01*
X301140Y199065D01*
X301141Y199064D01*
Y199063D01*
X301144Y199053D01*
X301146Y199044D01*
X301148Y199035D01*
X301149Y199027D01*
X301150Y199019D01*
Y199014D01*
Y199011D01*
Y199009D01*
X300726D01*
Y199085D01*
X301041D01*
X301030Y199100D01*
X301024Y199107D01*
X301019Y199113D01*
X301014Y199119D01*
X301011Y199123D01*
X301008Y199126D01*
X301007Y199126D01*
X301003Y199131D01*
X300997Y199136D01*
X300991Y199142D01*
X300985Y199148D01*
X300970Y199161D01*
X300954Y199175D01*
X300940Y199187D01*
X300933Y199193D01*
X300928Y199198D01*
X300923Y199201D01*
X300920Y199205D01*
X300917Y199206D01*
X300916Y199207D01*
X300901Y199221D01*
X300886Y199233D01*
X300874Y199244D01*
X300861Y199255D01*
X300851Y199265D01*
X300841Y199275D01*
X300831Y199283D01*
X300824Y199291D01*
X300816Y199297D01*
X300811Y199303D01*
X300806Y199308D01*
X300801Y199312D01*
X300799Y199316D01*
X300796Y199318D01*
X300795Y199319D01*
Y199320D01*
X300782Y199335D01*
X300771Y199350D01*
X300762Y199363D01*
X300755Y199375D01*
X300749Y199384D01*
X300746Y199391D01*
X300743Y199396D01*
X300742Y199398D01*
X300737Y199412D01*
X300733Y199426D01*
X300731Y199439D01*
X300728Y199450D01*
X300727Y199460D01*
X300726Y199467D01*
Y199472D01*
Y199474D01*
X300727Y199488D01*
X300729Y199501D01*
X300731Y199514D01*
X300735Y199526D01*
X300744Y199547D01*
X300748Y199557D01*
X300753Y199566D01*
X300759Y199574D01*
X300763Y199581D01*
X300768Y199586D01*
X300772Y199591D01*
X300776Y199596D01*
X300778Y199598D01*
X300780Y199600D01*
X300781Y199601D01*
X300791Y199610D01*
X300802Y199617D01*
X300814Y199625D01*
X300826Y199631D01*
X300839Y199636D01*
X300851Y199640D01*
X300874Y199645D01*
X300885Y199648D01*
X300895Y199650D01*
X300904Y199650D01*
X300912Y199651D01*
X300918Y199652D01*
X300927D01*
X300944Y199651D01*
D02*
G37*
G36*
X301752Y199009D02*
X301667D01*
Y199293D01*
X301557D01*
X301548Y199292D01*
X301540D01*
X301533Y199291D01*
X301528Y199291D01*
X301525D01*
X301523Y199290D01*
X301522D01*
X301508Y199285D01*
X301501Y199282D01*
X301495Y199279D01*
X301490Y199276D01*
X301487Y199274D01*
X301485Y199273D01*
X301484Y199272D01*
X301476Y199266D01*
X301469Y199261D01*
X301461Y199253D01*
X301455Y199246D01*
X301449Y199240D01*
X301445Y199234D01*
X301441Y199231D01*
X301440Y199229D01*
X301430Y199216D01*
X301420Y199202D01*
X301410Y199188D01*
X301400Y199174D01*
X301392Y199161D01*
X301388Y199156D01*
X301385Y199151D01*
X301382Y199147D01*
X301380Y199144D01*
X301379Y199142D01*
Y199141D01*
X301295Y199009D01*
X301188D01*
X301299Y199182D01*
X301311Y199201D01*
X301324Y199217D01*
X301335Y199232D01*
X301346Y199244D01*
X301356Y199254D01*
X301363Y199261D01*
X301368Y199266D01*
X301369Y199267D01*
X301370D01*
X301377Y199273D01*
X301385Y199279D01*
X301401Y199290D01*
X301409Y199294D01*
X301415Y199297D01*
X301419Y199299D01*
X301420Y199300D01*
X301404Y199302D01*
X301388Y199306D01*
X301374Y199310D01*
X301360Y199314D01*
X301348Y199319D01*
X301336Y199324D01*
X301326Y199329D01*
X301317Y199334D01*
X301310Y199339D01*
X301303Y199344D01*
X301297Y199348D01*
X301292Y199351D01*
X301289Y199355D01*
X301285Y199357D01*
X301285Y199358D01*
X301284Y199359D01*
X301276Y199368D01*
X301269Y199377D01*
X301263Y199387D01*
X301258Y199396D01*
X301250Y199416D01*
X301245Y199434D01*
X301242Y199450D01*
X301241Y199456D01*
X301240Y199462D01*
X301240Y199467D01*
Y199471D01*
Y199473D01*
Y199474D01*
X301240Y199493D01*
X301244Y199511D01*
X301248Y199528D01*
X301253Y199542D01*
X301258Y199554D01*
X301262Y199563D01*
X301264Y199566D01*
X301265Y199569D01*
X301266Y199570D01*
Y199571D01*
X301277Y199586D01*
X301289Y199599D01*
X301300Y199610D01*
X301312Y199618D01*
X301322Y199625D01*
X301330Y199629D01*
X301334Y199631D01*
X301336Y199631D01*
X301337Y199632D01*
X301338D01*
X301346Y199636D01*
X301356Y199638D01*
X301377Y199642D01*
X301399Y199645D01*
X301420Y199647D01*
X301430Y199648D01*
X301439Y199649D01*
X301446D01*
X301454Y199650D01*
X301752D01*
Y199009D01*
D02*
G37*
G36*
X301803Y187325D02*
X301718D01*
Y187609D01*
X301608D01*
X301599Y187608D01*
X301590D01*
X301584Y187607D01*
X301579Y187607D01*
X301575D01*
X301574Y187606D01*
X301573D01*
X301559Y187601D01*
X301552Y187598D01*
X301546Y187595D01*
X301541Y187592D01*
X301538Y187590D01*
X301535Y187589D01*
X301535Y187588D01*
X301527Y187582D01*
X301520Y187577D01*
X301512Y187569D01*
X301505Y187562D01*
X301500Y187556D01*
X301495Y187550D01*
X301492Y187547D01*
X301491Y187545D01*
X301481Y187532D01*
X301471Y187518D01*
X301461Y187504D01*
X301451Y187490D01*
X301443Y187477D01*
X301439Y187472D01*
X301435Y187467D01*
X301433Y187463D01*
X301431Y187460D01*
X301430Y187458D01*
Y187457D01*
X301345Y187325D01*
X301239D01*
X301350Y187498D01*
X301362Y187517D01*
X301375Y187533D01*
X301386Y187548D01*
X301397Y187560D01*
X301407Y187570D01*
X301414Y187577D01*
X301419Y187582D01*
X301420Y187583D01*
X301420D01*
X301428Y187589D01*
X301435Y187595D01*
X301452Y187606D01*
X301460Y187610D01*
X301465Y187613D01*
X301470Y187615D01*
X301471Y187616D01*
X301455Y187618D01*
X301439Y187622D01*
X301425Y187626D01*
X301411Y187630D01*
X301399Y187635D01*
X301387Y187640D01*
X301377Y187645D01*
X301368Y187650D01*
X301360Y187655D01*
X301354Y187660D01*
X301348Y187664D01*
X301343Y187667D01*
X301340Y187671D01*
X301336Y187673D01*
X301335Y187674D01*
X301335Y187675D01*
X301327Y187684D01*
X301320Y187693D01*
X301314Y187703D01*
X301309Y187712D01*
X301301Y187732D01*
X301296Y187750D01*
X301293Y187766D01*
X301292Y187772D01*
X301291Y187778D01*
X301290Y187783D01*
Y187787D01*
Y187789D01*
Y187790D01*
X301291Y187809D01*
X301295Y187827D01*
X301299Y187844D01*
X301304Y187858D01*
X301309Y187870D01*
X301313Y187879D01*
X301315Y187882D01*
X301316Y187885D01*
X301317Y187886D01*
Y187887D01*
X301328Y187902D01*
X301340Y187915D01*
X301351Y187926D01*
X301363Y187934D01*
X301373Y187941D01*
X301381Y187945D01*
X301385Y187947D01*
X301387Y187947D01*
X301388Y187948D01*
X301389D01*
X301397Y187952D01*
X301407Y187954D01*
X301428Y187958D01*
X301450Y187962D01*
X301470Y187963D01*
X301480Y187964D01*
X301490Y187965D01*
X301497D01*
X301505Y187966D01*
X301803D01*
Y187325D01*
D02*
G37*
G36*
X301184Y187882D02*
X300871D01*
X300892Y187855D01*
X300914Y187827D01*
X300933Y187798D01*
X300950Y187772D01*
X300957Y187760D01*
X300964Y187748D01*
X300970Y187738D01*
X300975Y187730D01*
X300979Y187723D01*
X300981Y187717D01*
X300983Y187714D01*
X300984Y187713D01*
X301002Y187676D01*
X301019Y187639D01*
X301032Y187604D01*
X301039Y187588D01*
X301044Y187572D01*
X301049Y187558D01*
X301053Y187546D01*
X301056Y187535D01*
X301060Y187525D01*
X301061Y187517D01*
X301063Y187512D01*
X301065Y187508D01*
Y187507D01*
X301070Y187487D01*
X301074Y187468D01*
X301078Y187450D01*
X301081Y187433D01*
X301084Y187417D01*
X301086Y187402D01*
X301088Y187388D01*
X301090Y187376D01*
X301091Y187364D01*
X301092Y187354D01*
X301093Y187346D01*
Y187338D01*
X301094Y187333D01*
Y187328D01*
Y187326D01*
Y187325D01*
X301013D01*
X301010Y187360D01*
X301005Y187392D01*
X301004Y187407D01*
X301001Y187422D01*
X300998Y187436D01*
X300996Y187448D01*
X300993Y187460D01*
X300991Y187470D01*
X300989Y187479D01*
X300987Y187487D01*
X300986Y187492D01*
X300984Y187497D01*
X300983Y187500D01*
Y187501D01*
X300970Y187543D01*
X300955Y187583D01*
X300947Y187602D01*
X300940Y187621D01*
X300932Y187638D01*
X300925Y187654D01*
X300918Y187669D01*
X300911Y187682D01*
X300906Y187694D01*
X300901Y187704D01*
X300897Y187712D01*
X300894Y187717D01*
X300892Y187722D01*
X300891Y187722D01*
X300880Y187742D01*
X300869Y187761D01*
X300858Y187779D01*
X300847Y187795D01*
X300836Y187811D01*
X300826Y187825D01*
X300817Y187838D01*
X300808Y187850D01*
X300800Y187860D01*
X300792Y187869D01*
X300786Y187877D01*
X300781Y187884D01*
X300776Y187889D01*
X300772Y187892D01*
X300771Y187895D01*
X300770Y187896D01*
Y187957D01*
X301184D01*
Y187882D01*
D02*
G37*
%LPC*%
G36*
X102681Y171931D02*
X102485D01*
Y171718D01*
X102700D01*
X102712Y171720D01*
X102723Y171721D01*
X102733Y171723D01*
X102743Y171725D01*
X102752Y171728D01*
X102759Y171731D01*
X102766Y171733D01*
X102777Y171739D01*
X102785Y171743D01*
X102790Y171747D01*
X102792Y171748D01*
X102802Y171760D01*
X102811Y171772D01*
X102817Y171785D01*
X102821Y171797D01*
X102823Y171807D01*
X102824Y171816D01*
X102825Y171819D01*
Y171822D01*
Y171822D01*
Y171823D01*
X102824Y171835D01*
X102822Y171845D01*
X102819Y171855D01*
X102817Y171863D01*
X102813Y171871D01*
X102810Y171876D01*
X102808Y171880D01*
X102807Y171881D01*
X102801Y171890D01*
X102792Y171898D01*
X102784Y171905D01*
X102777Y171910D01*
X102769Y171914D01*
X102763Y171917D01*
X102759Y171918D01*
X102757Y171919D01*
X102744Y171923D01*
X102730Y171926D01*
X102714Y171928D01*
X102700Y171929D01*
X102687Y171930D01*
X102681Y171931D01*
D02*
G37*
G36*
Y168197D02*
X102485D01*
Y167985D01*
X102700D01*
X102712Y167986D01*
X102723Y167987D01*
X102733Y167990D01*
X102743Y167991D01*
X102752Y167994D01*
X102759Y167997D01*
X102766Y168000D01*
X102777Y168005D01*
X102785Y168010D01*
X102790Y168013D01*
X102792Y168015D01*
X102802Y168026D01*
X102811Y168039D01*
X102817Y168051D01*
X102821Y168063D01*
X102823Y168074D01*
X102824Y168082D01*
X102825Y168085D01*
Y168088D01*
Y168089D01*
Y168090D01*
X102824Y168101D01*
X102822Y168111D01*
X102819Y168121D01*
X102817Y168130D01*
X102813Y168137D01*
X102810Y168142D01*
X102808Y168146D01*
X102807Y168147D01*
X102801Y168156D01*
X102792Y168165D01*
X102784Y168171D01*
X102777Y168176D01*
X102769Y168180D01*
X102763Y168183D01*
X102759Y168184D01*
X102757Y168185D01*
X102744Y168189D01*
X102730Y168192D01*
X102714Y168194D01*
X102700Y168195D01*
X102687Y168196D01*
X102681Y168197D01*
D02*
G37*
G36*
X103236Y168500D02*
X103231D01*
X103218Y168499D01*
X103206Y168497D01*
X103195Y168494D01*
X103186Y168490D01*
X103177Y168487D01*
X103171Y168484D01*
X103167Y168482D01*
X103166Y168481D01*
X103155Y168473D01*
X103145Y168464D01*
X103136Y168455D01*
X103130Y168446D01*
X103125Y168438D01*
X103121Y168431D01*
X103118Y168427D01*
X103117Y168425D01*
X103111Y168411D01*
X103107Y168397D01*
X103105Y168384D01*
X103103Y168372D01*
X103101Y168362D01*
X103101Y168354D01*
Y168349D01*
Y168348D01*
Y168347D01*
X103101Y168335D01*
X103102Y168324D01*
X103106Y168304D01*
X103112Y168288D01*
X103119Y168273D01*
X103126Y168261D01*
X103131Y168253D01*
X103134Y168250D01*
X103136Y168248D01*
X103137Y168247D01*
Y168246D01*
X103144Y168239D01*
X103151Y168234D01*
X103166Y168224D01*
X103182Y168217D01*
X103196Y168213D01*
X103208Y168209D01*
X103214Y168209D01*
X103218D01*
X103222Y168208D01*
X103237D01*
X103246Y168209D01*
X103264Y168214D01*
X103279Y168220D01*
X103292Y168227D01*
X103302Y168234D01*
X103310Y168240D01*
X103315Y168244D01*
X103316Y168245D01*
Y168246D01*
X103323Y168254D01*
X103328Y168262D01*
X103337Y168279D01*
X103344Y168296D01*
X103348Y168313D01*
X103351Y168328D01*
X103351Y168334D01*
Y168340D01*
X103352Y168344D01*
Y168348D01*
Y168350D01*
Y168351D01*
Y168364D01*
X103351Y168375D01*
X103346Y168397D01*
X103341Y168416D01*
X103335Y168432D01*
X103331Y168438D01*
X103328Y168444D01*
X103325Y168449D01*
X103322Y168453D01*
X103320Y168456D01*
X103318Y168459D01*
X103317Y168459D01*
X103316Y168460D01*
X103310Y168467D01*
X103302Y168474D01*
X103288Y168484D01*
X103274Y168490D01*
X103260Y168495D01*
X103248Y168498D01*
X103239Y168499D01*
X103236Y168500D01*
D02*
G37*
G36*
X137647Y177695D02*
Y177406D01*
X137848D01*
X137647Y177695D01*
D02*
G37*
G36*
X147856Y169559D02*
X147852D01*
X147850D01*
X147827Y169558D01*
X147805Y169557D01*
X147785Y169553D01*
X147766Y169549D01*
X147749Y169545D01*
X147733Y169540D01*
X147719Y169534D01*
X147705Y169528D01*
X147695Y169522D01*
X147685Y169517D01*
X147676Y169512D01*
X147670Y169507D01*
X147664Y169503D01*
X147660Y169500D01*
X147658Y169498D01*
X147657Y169497D01*
X147645Y169485D01*
X147635Y169472D01*
X147627Y169460D01*
X147620Y169447D01*
X147613Y169433D01*
X147608Y169420D01*
X147604Y169407D01*
X147600Y169395D01*
X147598Y169384D01*
X147595Y169373D01*
X147594Y169364D01*
X147593Y169356D01*
X147592Y169349D01*
Y169340D01*
X147594Y169317D01*
X147597Y169295D01*
X147602Y169276D01*
X147608Y169259D01*
X147611Y169252D01*
X147615Y169245D01*
X147617Y169239D01*
X147620Y169235D01*
X147621Y169231D01*
X147623Y169228D01*
X147625Y169227D01*
Y169226D01*
X147638Y169208D01*
X147652Y169193D01*
X147667Y169179D01*
X147681Y169168D01*
X147695Y169159D01*
X147700Y169156D01*
X147705Y169153D01*
X147709Y169151D01*
X147712Y169149D01*
X147714Y169148D01*
X147715D01*
X147737Y169139D01*
X147760Y169133D01*
X147783Y169128D01*
X147805Y169125D01*
X147814Y169124D01*
X147823Y169123D01*
X147830Y169123D01*
X147837Y169122D01*
X147843D01*
X147847D01*
X147850D01*
X147850D01*
X147875Y169123D01*
X147899Y169125D01*
X147920Y169128D01*
X147940Y169133D01*
X147959Y169139D01*
X147975Y169145D01*
X147990Y169153D01*
X148004Y169159D01*
X148016Y169166D01*
X148026Y169173D01*
X148035Y169179D01*
X148043Y169185D01*
X148048Y169190D01*
X148052Y169193D01*
X148054Y169196D01*
X148055Y169197D01*
X148041Y169216D01*
X148029Y169236D01*
X148018Y169256D01*
X148010Y169275D01*
X148005Y169283D01*
X148002Y169292D01*
X147999Y169299D01*
X147998Y169305D01*
X147996Y169310D01*
X147995Y169314D01*
X147994Y169317D01*
Y169318D01*
X148055Y169338D01*
X148060Y169322D01*
X148065Y169307D01*
X148072Y169293D01*
X148078Y169280D01*
X148083Y169269D01*
X148088Y169261D01*
X148091Y169256D01*
X148092Y169255D01*
Y169254D01*
X148098Y169269D01*
X148102Y169284D01*
X148104Y169299D01*
X148106Y169312D01*
X148108Y169323D01*
X148109Y169333D01*
Y169340D01*
X148108Y169358D01*
X148106Y169374D01*
X148103Y169390D01*
X148098Y169405D01*
X148093Y169419D01*
X148088Y169432D01*
X148081Y169444D01*
X148075Y169455D01*
X148069Y169464D01*
X148063Y169472D01*
X148058Y169480D01*
X148052Y169487D01*
X148048Y169491D01*
X148044Y169495D01*
X148043Y169497D01*
X148042Y169497D01*
X148029Y169508D01*
X148014Y169517D01*
X147999Y169526D01*
X147984Y169533D01*
X147968Y169539D01*
X147952Y169544D01*
X147936Y169548D01*
X147921Y169552D01*
X147907Y169554D01*
X147894Y169556D01*
X147881Y169557D01*
X147871Y169558D01*
X147862D01*
X147856Y169559D01*
D02*
G37*
G36*
X153759Y169539D02*
X153755D01*
X153753D01*
X153730Y169538D01*
X153708Y169536D01*
X153688Y169533D01*
X153669Y169529D01*
X153652Y169525D01*
X153636Y169520D01*
X153622Y169514D01*
X153608Y169508D01*
X153598Y169502D01*
X153588Y169496D01*
X153579Y169491D01*
X153573Y169487D01*
X153567Y169483D01*
X153563Y169480D01*
X153561Y169478D01*
X153560Y169477D01*
X153548Y169465D01*
X153538Y169452D01*
X153530Y169440D01*
X153523Y169426D01*
X153516Y169413D01*
X153511Y169400D01*
X153507Y169387D01*
X153503Y169375D01*
X153501Y169364D01*
X153498Y169353D01*
X153497Y169344D01*
X153496Y169335D01*
X153495Y169329D01*
Y169320D01*
X153497Y169296D01*
X153500Y169275D01*
X153505Y169255D01*
X153511Y169239D01*
X153514Y169231D01*
X153518Y169225D01*
X153520Y169219D01*
X153523Y169215D01*
X153524Y169210D01*
X153526Y169208D01*
X153528Y169206D01*
Y169205D01*
X153541Y169187D01*
X153555Y169172D01*
X153570Y169159D01*
X153584Y169148D01*
X153598Y169139D01*
X153603Y169136D01*
X153608Y169133D01*
X153612Y169131D01*
X153615Y169129D01*
X153617Y169128D01*
X153618D01*
X153640Y169119D01*
X153663Y169112D01*
X153686Y169108D01*
X153708Y169105D01*
X153717Y169104D01*
X153726Y169103D01*
X153733Y169102D01*
X153740Y169101D01*
X153746D01*
X153750D01*
X153753D01*
X153753D01*
X153778Y169102D01*
X153802Y169105D01*
X153823Y169108D01*
X153843Y169113D01*
X153862Y169119D01*
X153878Y169125D01*
X153893Y169132D01*
X153907Y169139D01*
X153919Y169145D01*
X153929Y169152D01*
X153938Y169159D01*
X153946Y169165D01*
X153951Y169170D01*
X153955Y169173D01*
X153957Y169176D01*
X153958Y169176D01*
X153944Y169195D01*
X153932Y169215D01*
X153921Y169235D01*
X153913Y169255D01*
X153908Y169263D01*
X153905Y169271D01*
X153902Y169279D01*
X153901Y169285D01*
X153899Y169290D01*
X153898Y169294D01*
X153897Y169296D01*
Y169297D01*
X153958Y169318D01*
X153963Y169301D01*
X153968Y169286D01*
X153975Y169272D01*
X153981Y169260D01*
X153986Y169249D01*
X153991Y169240D01*
X153994Y169235D01*
X153995Y169235D01*
Y169234D01*
X154001Y169249D01*
X154005Y169264D01*
X154007Y169279D01*
X154009Y169291D01*
X154011Y169303D01*
X154012Y169312D01*
Y169320D01*
X154011Y169337D01*
X154009Y169354D01*
X154006Y169370D01*
X154001Y169385D01*
X153996Y169399D01*
X153991Y169411D01*
X153984Y169424D01*
X153978Y169435D01*
X153972Y169444D01*
X153966Y169452D01*
X153961Y169460D01*
X153955Y169466D01*
X153951Y169470D01*
X153947Y169475D01*
X153946Y169476D01*
X153945Y169477D01*
X153932Y169488D01*
X153917Y169497D01*
X153902Y169505D01*
X153887Y169513D01*
X153871Y169519D01*
X153855Y169524D01*
X153839Y169528D01*
X153824Y169531D01*
X153810Y169534D01*
X153797Y169535D01*
X153784Y169537D01*
X153774Y169538D01*
X153765D01*
X153759Y169539D01*
D02*
G37*
G36*
X153873Y168845D02*
X153868D01*
X153867D01*
X153866D01*
X153854Y168844D01*
X153843Y168843D01*
X153823Y168839D01*
X153807Y168833D01*
X153792Y168826D01*
X153780Y168820D01*
X153772Y168814D01*
X153769Y168811D01*
X153767Y168810D01*
X153766Y168808D01*
X153765D01*
X153758Y168801D01*
X153753Y168794D01*
X153743Y168779D01*
X153736Y168763D01*
X153732Y168749D01*
X153728Y168737D01*
X153728Y168731D01*
Y168727D01*
X153727Y168723D01*
Y168708D01*
X153728Y168699D01*
X153733Y168681D01*
X153739Y168666D01*
X153746Y168653D01*
X153753Y168643D01*
X153759Y168636D01*
X153763Y168631D01*
X153764Y168629D01*
X153765D01*
X153773Y168622D01*
X153781Y168617D01*
X153798Y168608D01*
X153815Y168601D01*
X153832Y168597D01*
X153847Y168595D01*
X153853Y168594D01*
X153859D01*
X153863Y168593D01*
X153867D01*
X153869D01*
X153870D01*
X153883D01*
X153894Y168595D01*
X153916Y168599D01*
X153935Y168605D01*
X153951Y168611D01*
X153957Y168614D01*
X153962Y168617D01*
X153967Y168621D01*
X153972Y168623D01*
X153975Y168626D01*
X153977Y168627D01*
X153978Y168628D01*
X153979Y168629D01*
X153986Y168636D01*
X153992Y168643D01*
X154002Y168657D01*
X154009Y168671D01*
X154014Y168686D01*
X154017Y168697D01*
X154018Y168706D01*
X154019Y168710D01*
Y168715D01*
X154018Y168727D01*
X154016Y168739D01*
X154013Y168751D01*
X154009Y168760D01*
X154006Y168768D01*
X154003Y168775D01*
X154001Y168778D01*
X154000Y168780D01*
X153992Y168791D01*
X153983Y168801D01*
X153974Y168809D01*
X153965Y168816D01*
X153957Y168821D01*
X153950Y168825D01*
X153946Y168827D01*
X153944Y168828D01*
X153930Y168834D01*
X153916Y168838D01*
X153902Y168841D01*
X153891Y168842D01*
X153881Y168844D01*
X153873Y168845D01*
D02*
G37*
G36*
X160391Y187852D02*
X160386D01*
X160377Y187852D01*
X160368Y187851D01*
X160350Y187847D01*
X160335Y187840D01*
X160323Y187832D01*
X160313Y187825D01*
X160305Y187819D01*
X160300Y187814D01*
X160299Y187813D01*
Y187812D01*
X160292Y187805D01*
X160287Y187797D01*
X160278Y187779D01*
X160271Y187761D01*
X160267Y187744D01*
X160264Y187728D01*
X160264Y187722D01*
Y187716D01*
X160263Y187712D01*
Y187708D01*
Y187706D01*
Y187705D01*
Y187692D01*
X160264Y187681D01*
X160269Y187659D01*
X160274Y187641D01*
X160280Y187626D01*
X160287Y187614D01*
X160290Y187609D01*
X160293Y187606D01*
X160295Y187602D01*
X160297Y187600D01*
X160298Y187599D01*
X160299Y187598D01*
X160305Y187592D01*
X160313Y187586D01*
X160327Y187577D01*
X160342Y187570D01*
X160356Y187566D01*
X160369Y187562D01*
X160374Y187562D01*
X160379D01*
X160383Y187561D01*
X160388D01*
X160398Y187562D01*
X160408Y187562D01*
X160425Y187567D01*
X160441Y187572D01*
X160454Y187580D01*
X160465Y187587D01*
X160473Y187592D01*
X160478Y187597D01*
X160479Y187598D01*
X160479D01*
X160486Y187606D01*
X160491Y187613D01*
X160500Y187630D01*
X160506Y187647D01*
X160511Y187662D01*
X160514Y187677D01*
X160514Y187682D01*
Y187688D01*
X160515Y187692D01*
Y187696D01*
Y187697D01*
Y187698D01*
X160514Y187711D01*
X160514Y187722D01*
X160509Y187744D01*
X160503Y187763D01*
X160496Y187779D01*
X160493Y187786D01*
X160489Y187792D01*
X160486Y187797D01*
X160483Y187802D01*
X160480Y187805D01*
X160479Y187807D01*
X160477Y187808D01*
Y187809D01*
X160469Y187817D01*
X160462Y187823D01*
X160454Y187829D01*
X160447Y187834D01*
X160431Y187842D01*
X160417Y187847D01*
X160404Y187850D01*
X160399Y187851D01*
X160395Y187852D01*
X160391Y187852D01*
D02*
G37*
G36*
X161125Y187844D02*
X160910D01*
X160898Y187842D01*
X160887Y187842D01*
X160877Y187839D01*
X160867Y187837D01*
X160858Y187835D01*
X160851Y187832D01*
X160844Y187829D01*
X160833Y187823D01*
X160825Y187819D01*
X160820Y187816D01*
X160818Y187814D01*
X160808Y187802D01*
X160799Y187790D01*
X160793Y187777D01*
X160789Y187766D01*
X160787Y187755D01*
X160786Y187747D01*
X160785Y187743D01*
Y187741D01*
Y187740D01*
Y187739D01*
X160786Y187727D01*
X160788Y187717D01*
X160791Y187707D01*
X160793Y187699D01*
X160797Y187692D01*
X160800Y187687D01*
X160802Y187682D01*
X160803Y187682D01*
X160809Y187672D01*
X160818Y187664D01*
X160826Y187657D01*
X160833Y187652D01*
X160841Y187648D01*
X160847Y187646D01*
X160851Y187644D01*
X160853Y187643D01*
X160866Y187639D01*
X160880Y187637D01*
X160896Y187634D01*
X160910Y187633D01*
X160923Y187632D01*
X160929Y187632D01*
X161125D01*
Y187844D01*
D02*
G37*
G36*
X161129Y199528D02*
X160914D01*
X160901Y199526D01*
X160891Y199526D01*
X160881Y199523D01*
X160871Y199521D01*
X160862Y199519D01*
X160855Y199516D01*
X160848Y199513D01*
X160836Y199507D01*
X160829Y199503D01*
X160824Y199500D01*
X160822Y199498D01*
X160811Y199486D01*
X160803Y199474D01*
X160797Y199461D01*
X160793Y199450D01*
X160791Y199439D01*
X160790Y199431D01*
X160789Y199427D01*
Y199425D01*
Y199424D01*
Y199423D01*
X160790Y199411D01*
X160791Y199401D01*
X160795Y199391D01*
X160797Y199383D01*
X160801Y199376D01*
X160804Y199371D01*
X160806Y199366D01*
X160806Y199366D01*
X160813Y199356D01*
X160821Y199348D01*
X160830Y199341D01*
X160837Y199336D01*
X160845Y199332D01*
X160851Y199330D01*
X160855Y199328D01*
X160856Y199327D01*
X160870Y199323D01*
X160884Y199321D01*
X160900Y199318D01*
X160914Y199317D01*
X160927Y199316D01*
X160933Y199316D01*
X161129D01*
Y199528D01*
D02*
G37*
G36*
X160348Y199473D02*
Y199184D01*
X160550D01*
X160348Y199473D01*
D02*
G37*
G36*
X232845Y169534D02*
X232840D01*
X232839D01*
X232815Y169533D01*
X232794Y169531D01*
X232773Y169528D01*
X232755Y169524D01*
X232737Y169520D01*
X232721Y169515D01*
X232707Y169509D01*
X232694Y169503D01*
X232683Y169497D01*
X232673Y169491D01*
X232665Y169486D01*
X232658Y169482D01*
X232652Y169478D01*
X232649Y169475D01*
X232646Y169473D01*
X232645Y169472D01*
X232634Y169460D01*
X232624Y169447D01*
X232615Y169435D01*
X232608Y169421D01*
X232601Y169408D01*
X232596Y169395D01*
X232592Y169382D01*
X232589Y169370D01*
X232586Y169359D01*
X232584Y169348D01*
X232582Y169339D01*
X232581Y169330D01*
X232581Y169324D01*
Y169315D01*
X232582Y169291D01*
X232585Y169270D01*
X232590Y169250D01*
X232596Y169234D01*
X232600Y169226D01*
X232603Y169220D01*
X232605Y169214D01*
X232608Y169210D01*
X232610Y169205D01*
X232611Y169203D01*
X232613Y169201D01*
Y169200D01*
X232626Y169182D01*
X232640Y169167D01*
X232655Y169154D01*
X232670Y169143D01*
X232683Y169134D01*
X232689Y169130D01*
X232693Y169128D01*
X232697Y169125D01*
X232700Y169124D01*
X232702Y169123D01*
X232703D01*
X232725Y169114D01*
X232749Y169107D01*
X232771Y169103D01*
X232793Y169100D01*
X232802Y169099D01*
X232811Y169098D01*
X232819Y169097D01*
X232825Y169096D01*
X232831D01*
X232835D01*
X232838D01*
X232839D01*
X232864Y169097D01*
X232887Y169100D01*
X232909Y169103D01*
X232929Y169108D01*
X232947Y169114D01*
X232964Y169120D01*
X232979Y169127D01*
X232992Y169134D01*
X233005Y169140D01*
X233015Y169147D01*
X233024Y169154D01*
X233031Y169160D01*
X233036Y169165D01*
X233040Y169168D01*
X233043Y169170D01*
X233044Y169171D01*
X233030Y169190D01*
X233017Y169210D01*
X233006Y169230D01*
X232998Y169250D01*
X232994Y169258D01*
X232990Y169266D01*
X232988Y169274D01*
X232986Y169280D01*
X232985Y169285D01*
X232983Y169289D01*
X232982Y169291D01*
Y169292D01*
X233044Y169313D01*
X233049Y169296D01*
X233054Y169281D01*
X233060Y169267D01*
X233066Y169255D01*
X233071Y169244D01*
X233076Y169235D01*
X233080Y169230D01*
X233080Y169230D01*
Y169229D01*
X233086Y169244D01*
X233090Y169259D01*
X233093Y169274D01*
X233095Y169286D01*
X233096Y169298D01*
X233097Y169307D01*
Y169315D01*
X233096Y169332D01*
X233095Y169349D01*
X233091Y169365D01*
X233086Y169380D01*
X233081Y169394D01*
X233076Y169406D01*
X233070Y169419D01*
X233064Y169430D01*
X233058Y169439D01*
X233051Y169447D01*
X233046Y169455D01*
X233040Y169461D01*
X233036Y169465D01*
X233033Y169470D01*
X233031Y169471D01*
X233030Y169472D01*
X233017Y169483D01*
X233003Y169492D01*
X232988Y169500D01*
X232972Y169508D01*
X232956Y169514D01*
X232940Y169519D01*
X232925Y169523D01*
X232910Y169526D01*
X232895Y169529D01*
X232882Y169530D01*
X232870Y169532D01*
X232860Y169533D01*
X232850D01*
X232845Y169534D01*
D02*
G37*
G36*
X238697Y169513D02*
X238693D01*
X238691D01*
X238668Y169512D01*
X238646Y169511D01*
X238625Y169508D01*
X238607Y169503D01*
X238589Y169499D01*
X238574Y169494D01*
X238559Y169488D01*
X238546Y169483D01*
X238535Y169477D01*
X238525Y169471D01*
X238517Y169466D01*
X238510Y169462D01*
X238504Y169458D01*
X238501Y169454D01*
X238499Y169453D01*
X238498Y169452D01*
X238486Y169439D01*
X238476Y169427D01*
X238468Y169414D01*
X238460Y169401D01*
X238454Y169388D01*
X238449Y169374D01*
X238444Y169362D01*
X238441Y169349D01*
X238439Y169338D01*
X238436Y169328D01*
X238434Y169318D01*
X238434Y169310D01*
X238433Y169303D01*
Y169294D01*
X238434Y169271D01*
X238438Y169249D01*
X238443Y169230D01*
X238449Y169213D01*
X238452Y169206D01*
X238455Y169199D01*
X238458Y169193D01*
X238460Y169189D01*
X238462Y169185D01*
X238464Y169183D01*
X238465Y169181D01*
Y169180D01*
X238479Y169162D01*
X238493Y169147D01*
X238508Y169133D01*
X238522Y169123D01*
X238535Y169113D01*
X238541Y169110D01*
X238545Y169108D01*
X238549Y169105D01*
X238553Y169103D01*
X238554Y169103D01*
X238555D01*
X238578Y169093D01*
X238601Y169087D01*
X238623Y169083D01*
X238645Y169079D01*
X238654Y169078D01*
X238663Y169078D01*
X238671Y169077D01*
X238678Y169076D01*
X238683D01*
X238688D01*
X238690D01*
X238691D01*
X238716Y169077D01*
X238739Y169079D01*
X238761Y169083D01*
X238781Y169088D01*
X238799Y169093D01*
X238816Y169099D01*
X238831Y169107D01*
X238844Y169113D01*
X238857Y169120D01*
X238867Y169127D01*
X238876Y169133D01*
X238883Y169139D01*
X238888Y169144D01*
X238893Y169148D01*
X238895Y169150D01*
X238896Y169151D01*
X238882Y169170D01*
X238869Y169190D01*
X238858Y169210D01*
X238850Y169229D01*
X238846Y169238D01*
X238843Y169246D01*
X238840Y169253D01*
X238838Y169259D01*
X238837Y169264D01*
X238835Y169268D01*
X238834Y169271D01*
Y169272D01*
X238896Y169293D01*
X238901Y169276D01*
X238906Y169261D01*
X238913Y169247D01*
X238918Y169234D01*
X238923Y169223D01*
X238928Y169215D01*
X238932Y169210D01*
X238933Y169209D01*
Y169208D01*
X238938Y169223D01*
X238943Y169238D01*
X238945Y169253D01*
X238947Y169266D01*
X238948Y169278D01*
X238949Y169287D01*
Y169294D01*
X238948Y169312D01*
X238947Y169328D01*
X238943Y169344D01*
X238938Y169359D01*
X238933Y169373D01*
X238928Y169386D01*
X238922Y169398D01*
X238916Y169409D01*
X238910Y169418D01*
X238903Y169427D01*
X238898Y169434D01*
X238893Y169441D01*
X238888Y169445D01*
X238885Y169449D01*
X238883Y169451D01*
X238883Y169452D01*
X238869Y169463D01*
X238855Y169472D01*
X238840Y169480D01*
X238824Y169488D01*
X238808Y169493D01*
X238793Y169498D01*
X238777Y169503D01*
X238762Y169506D01*
X238748Y169508D01*
X238734Y169510D01*
X238722Y169512D01*
X238712Y169512D01*
X238703D01*
X238697Y169513D01*
D02*
G37*
G36*
X245863Y187869D02*
X245648D01*
X245636Y187868D01*
X245625Y187867D01*
X245615Y187864D01*
X245605Y187863D01*
X245597Y187860D01*
X245589Y187857D01*
X245582Y187854D01*
X245571Y187849D01*
X245563Y187844D01*
X245558Y187841D01*
X245557Y187839D01*
X245546Y187828D01*
X245537Y187815D01*
X245532Y187803D01*
X245527Y187791D01*
X245525Y187780D01*
X245524Y187772D01*
X245523Y187769D01*
Y187766D01*
Y187765D01*
Y187764D01*
X245524Y187753D01*
X245526Y187743D01*
X245529Y187733D01*
X245532Y187724D01*
X245535Y187717D01*
X245538Y187712D01*
X245540Y187708D01*
X245541Y187707D01*
X245547Y187698D01*
X245556Y187689D01*
X245564Y187683D01*
X245572Y187678D01*
X245579Y187674D01*
X245585Y187671D01*
X245589Y187670D01*
X245591Y187669D01*
X245604Y187665D01*
X245618Y187662D01*
X245634Y187660D01*
X245648Y187659D01*
X245662Y187658D01*
X245667Y187657D01*
X245863D01*
Y187869D01*
D02*
G37*
G36*
X245128Y187878D02*
X245124D01*
X245108Y187876D01*
X245094Y187873D01*
X245082Y187869D01*
X245071Y187863D01*
X245062Y187857D01*
X245055Y187853D01*
X245052Y187849D01*
X245050Y187848D01*
X245040Y187836D01*
X245033Y187824D01*
X245028Y187812D01*
X245023Y187800D01*
X245022Y187790D01*
X245021Y187783D01*
X245020Y187779D01*
Y187777D01*
Y187776D01*
Y187775D01*
X245021Y187760D01*
X245024Y187747D01*
X245029Y187734D01*
X245034Y187724D01*
X245040Y187716D01*
X245044Y187710D01*
X245048Y187707D01*
X245049Y187705D01*
X245061Y187696D01*
X245073Y187689D01*
X245086Y187684D01*
X245098Y187680D01*
X245108Y187679D01*
X245116Y187678D01*
X245119Y187677D01*
X245123D01*
X245140Y187678D01*
X245155Y187681D01*
X245168Y187686D01*
X245179Y187691D01*
X245188Y187696D01*
X245195Y187701D01*
X245198Y187704D01*
X245200Y187705D01*
X245209Y187717D01*
X245217Y187729D01*
X245222Y187742D01*
X245225Y187754D01*
X245227Y187764D01*
X245228Y187772D01*
X245228Y187775D01*
Y187778D01*
Y187779D01*
Y187779D01*
X245227Y187794D01*
X245223Y187807D01*
X245219Y187819D01*
X245213Y187829D01*
X245208Y187837D01*
X245203Y187844D01*
X245200Y187847D01*
X245199Y187849D01*
X245188Y187859D01*
X245175Y187865D01*
X245163Y187870D01*
X245151Y187874D01*
X245140Y187876D01*
X245132Y187877D01*
X245128Y187878D01*
D02*
G37*
G36*
X245132Y187613D02*
X245116D01*
X245106Y187611D01*
X245088Y187607D01*
X245072Y187601D01*
X245058Y187595D01*
X245047Y187587D01*
X245038Y187581D01*
X245033Y187577D01*
X245032Y187576D01*
Y187575D01*
X245025Y187569D01*
X245019Y187561D01*
X245010Y187545D01*
X245003Y187530D01*
X244999Y187515D01*
X244996Y187501D01*
X244995Y187495D01*
Y187491D01*
X244994Y187487D01*
Y187484D01*
Y187482D01*
Y187481D01*
Y187471D01*
X244996Y187461D01*
X245000Y187444D01*
X245006Y187428D01*
X245013Y187415D01*
X245019Y187404D01*
X245025Y187396D01*
X245029Y187391D01*
X245030Y187390D01*
X245031Y187390D01*
X245038Y187383D01*
X245045Y187378D01*
X245061Y187369D01*
X245077Y187363D01*
X245091Y187358D01*
X245104Y187355D01*
X245110Y187355D01*
X245115D01*
X245118Y187354D01*
X245124D01*
X245138Y187355D01*
X245150Y187356D01*
X245161Y187359D01*
X245172Y187362D01*
X245180Y187365D01*
X245186Y187368D01*
X245190Y187370D01*
X245192Y187370D01*
X245203Y187378D01*
X245213Y187385D01*
X245221Y187394D01*
X245228Y187401D01*
X245233Y187408D01*
X245236Y187414D01*
X245238Y187417D01*
X245239Y187419D01*
X245244Y187430D01*
X245248Y187442D01*
X245251Y187454D01*
X245253Y187464D01*
X245253Y187472D01*
X245254Y187479D01*
Y187483D01*
Y187485D01*
X245253Y187495D01*
X245253Y187505D01*
X245248Y187522D01*
X245243Y187538D01*
X245236Y187551D01*
X245230Y187562D01*
X245224Y187570D01*
X245220Y187575D01*
X245218Y187576D01*
X245212Y187583D01*
X245204Y187589D01*
X245189Y187597D01*
X245173Y187604D01*
X245159Y187609D01*
X245146Y187611D01*
X245141Y187612D01*
X245136D01*
X245132Y187613D01*
D02*
G37*
G36*
X245863Y199568D02*
X245648D01*
X245636Y199566D01*
X245625Y199565D01*
X245615Y199563D01*
X245605Y199561D01*
X245597Y199559D01*
X245589Y199555D01*
X245582Y199553D01*
X245571Y199547D01*
X245563Y199543D01*
X245558Y199540D01*
X245557Y199538D01*
X245546Y199526D01*
X245537Y199514D01*
X245532Y199501D01*
X245527Y199490D01*
X245525Y199479D01*
X245524Y199470D01*
X245523Y199467D01*
Y199465D01*
Y199464D01*
Y199463D01*
X245524Y199451D01*
X245526Y199441D01*
X245529Y199431D01*
X245532Y199423D01*
X245535Y199415D01*
X245538Y199410D01*
X245540Y199406D01*
X245541Y199405D01*
X245547Y199396D01*
X245556Y199388D01*
X245564Y199381D01*
X245572Y199376D01*
X245579Y199372D01*
X245585Y199370D01*
X245589Y199368D01*
X245591Y199367D01*
X245604Y199363D01*
X245618Y199360D01*
X245634Y199358D01*
X245648Y199357D01*
X245662Y199356D01*
X245667Y199355D01*
X245863D01*
Y199568D01*
D02*
G37*
G36*
X294526Y169539D02*
X294522D01*
X294520D01*
X294497Y169538D01*
X294475Y169536D01*
X294454Y169533D01*
X294436Y169529D01*
X294419Y169525D01*
X294403Y169520D01*
X294389Y169514D01*
X294375Y169508D01*
X294364Y169502D01*
X294354Y169496D01*
X294346Y169491D01*
X294339Y169487D01*
X294334Y169483D01*
X294330Y169480D01*
X294328Y169478D01*
X294327Y169477D01*
X294315Y169465D01*
X294305Y169452D01*
X294297Y169440D01*
X294289Y169426D01*
X294283Y169413D01*
X294278Y169400D01*
X294274Y169387D01*
X294270Y169375D01*
X294268Y169364D01*
X294265Y169353D01*
X294264Y169344D01*
X294263Y169335D01*
X294262Y169329D01*
Y169320D01*
X294264Y169296D01*
X294267Y169275D01*
X294272Y169255D01*
X294278Y169239D01*
X294281Y169231D01*
X294284Y169225D01*
X294287Y169219D01*
X294289Y169215D01*
X294291Y169210D01*
X294293Y169208D01*
X294294Y169206D01*
Y169205D01*
X294308Y169187D01*
X294322Y169172D01*
X294337Y169159D01*
X294351Y169148D01*
X294364Y169139D01*
X294370Y169136D01*
X294374Y169133D01*
X294379Y169131D01*
X294382Y169129D01*
X294384Y169128D01*
X294384D01*
X294407Y169119D01*
X294430Y169112D01*
X294453Y169108D01*
X294474Y169105D01*
X294484Y169104D01*
X294493Y169103D01*
X294500Y169102D01*
X294507Y169101D01*
X294513D01*
X294517D01*
X294519D01*
X294520D01*
X294545Y169102D01*
X294568Y169105D01*
X294590Y169108D01*
X294610Y169113D01*
X294628Y169119D01*
X294645Y169125D01*
X294660Y169132D01*
X294673Y169139D01*
X294686Y169145D01*
X294696Y169152D01*
X294705Y169159D01*
X294713Y169165D01*
X294718Y169170D01*
X294722Y169173D01*
X294724Y169176D01*
X294725Y169176D01*
X294711Y169195D01*
X294698Y169215D01*
X294688Y169235D01*
X294679Y169255D01*
X294675Y169263D01*
X294672Y169271D01*
X294669Y169279D01*
X294668Y169285D01*
X294666Y169290D01*
X294664Y169294D01*
X294663Y169296D01*
Y169297D01*
X294725Y169318D01*
X294730Y169301D01*
X294735Y169286D01*
X294742Y169272D01*
X294748Y169260D01*
X294753Y169249D01*
X294758Y169240D01*
X294761Y169235D01*
X294762Y169235D01*
Y169234D01*
X294768Y169249D01*
X294772Y169264D01*
X294774Y169279D01*
X294776Y169291D01*
X294778Y169303D01*
X294778Y169312D01*
Y169320D01*
X294778Y169337D01*
X294776Y169354D01*
X294773Y169370D01*
X294768Y169385D01*
X294763Y169399D01*
X294758Y169411D01*
X294751Y169424D01*
X294745Y169435D01*
X294739Y169444D01*
X294733Y169452D01*
X294728Y169460D01*
X294722Y169466D01*
X294718Y169470D01*
X294714Y169475D01*
X294713Y169476D01*
X294712Y169477D01*
X294698Y169488D01*
X294684Y169497D01*
X294669Y169505D01*
X294653Y169513D01*
X294638Y169519D01*
X294622Y169524D01*
X294606Y169528D01*
X294591Y169531D01*
X294577Y169534D01*
X294564Y169535D01*
X294551Y169537D01*
X294541Y169538D01*
X294532D01*
X294526Y169539D01*
D02*
G37*
G36*
X294614Y168881D02*
X294325Y168680D01*
X294614D01*
Y168881D01*
D02*
G37*
G36*
X288674Y169530D02*
X288670D01*
X288668D01*
X288645Y169529D01*
X288623Y169527D01*
X288602Y169524D01*
X288584Y169520D01*
X288566Y169516D01*
X288551Y169511D01*
X288536Y169505D01*
X288523Y169499D01*
X288512Y169493D01*
X288502Y169487D01*
X288494Y169482D01*
X288487Y169478D01*
X288481Y169474D01*
X288478Y169471D01*
X288476Y169469D01*
X288475Y169468D01*
X288463Y169456D01*
X288453Y169443D01*
X288445Y169431D01*
X288437Y169417D01*
X288431Y169404D01*
X288426Y169391D01*
X288421Y169378D01*
X288418Y169366D01*
X288416Y169355D01*
X288413Y169344D01*
X288411Y169335D01*
X288411Y169326D01*
X288410Y169320D01*
Y169311D01*
X288411Y169287D01*
X288415Y169266D01*
X288420Y169246D01*
X288426Y169230D01*
X288429Y169222D01*
X288432Y169216D01*
X288435Y169210D01*
X288437Y169206D01*
X288439Y169201D01*
X288441Y169199D01*
X288442Y169197D01*
Y169196D01*
X288456Y169178D01*
X288470Y169163D01*
X288485Y169150D01*
X288499Y169139D01*
X288512Y169130D01*
X288518Y169126D01*
X288522Y169124D01*
X288526Y169122D01*
X288530Y169120D01*
X288531Y169119D01*
X288532D01*
X288555Y169110D01*
X288578Y169103D01*
X288600Y169099D01*
X288622Y169096D01*
X288631Y169095D01*
X288640Y169094D01*
X288648Y169093D01*
X288655Y169092D01*
X288660D01*
X288665D01*
X288667D01*
X288668D01*
X288693Y169093D01*
X288716Y169096D01*
X288738Y169099D01*
X288758Y169104D01*
X288776Y169110D01*
X288793Y169116D01*
X288808Y169123D01*
X288821Y169130D01*
X288834Y169136D01*
X288844Y169143D01*
X288853Y169150D01*
X288860Y169156D01*
X288865Y169161D01*
X288870Y169164D01*
X288872Y169166D01*
X288873Y169167D01*
X288859Y169186D01*
X288846Y169206D01*
X288835Y169226D01*
X288827Y169246D01*
X288823Y169254D01*
X288820Y169262D01*
X288817Y169270D01*
X288815Y169276D01*
X288814Y169281D01*
X288812Y169285D01*
X288811Y169287D01*
Y169288D01*
X288873Y169309D01*
X288878Y169292D01*
X288883Y169277D01*
X288890Y169263D01*
X288895Y169251D01*
X288900Y169240D01*
X288905Y169231D01*
X288909Y169226D01*
X288910Y169226D01*
Y169225D01*
X288915Y169240D01*
X288920Y169255D01*
X288922Y169270D01*
X288924Y169282D01*
X288925Y169294D01*
X288926Y169303D01*
Y169311D01*
X288925Y169328D01*
X288924Y169345D01*
X288920Y169361D01*
X288915Y169376D01*
X288910Y169390D01*
X288905Y169402D01*
X288899Y169415D01*
X288893Y169426D01*
X288887Y169435D01*
X288880Y169443D01*
X288875Y169451D01*
X288870Y169457D01*
X288865Y169461D01*
X288862Y169466D01*
X288860Y169467D01*
X288860Y169468D01*
X288846Y169479D01*
X288832Y169488D01*
X288817Y169496D01*
X288801Y169504D01*
X288785Y169510D01*
X288770Y169515D01*
X288754Y169519D01*
X288739Y169522D01*
X288725Y169525D01*
X288711Y169526D01*
X288699Y169528D01*
X288689Y169529D01*
X288680D01*
X288674Y169530D01*
D02*
G37*
G36*
X301667Y199579D02*
X301452D01*
X301440Y199577D01*
X301429Y199576D01*
X301419Y199574D01*
X301409Y199572D01*
X301400Y199570D01*
X301393Y199566D01*
X301386Y199564D01*
X301375Y199558D01*
X301367Y199554D01*
X301362Y199551D01*
X301360Y199549D01*
X301350Y199537D01*
X301341Y199525D01*
X301335Y199512D01*
X301331Y199501D01*
X301329Y199490D01*
X301328Y199481D01*
X301327Y199478D01*
Y199476D01*
Y199475D01*
Y199474D01*
X301328Y199462D01*
X301330Y199452D01*
X301333Y199442D01*
X301335Y199434D01*
X301339Y199426D01*
X301342Y199421D01*
X301344Y199417D01*
X301345Y199416D01*
X301351Y199407D01*
X301360Y199399D01*
X301368Y199392D01*
X301375Y199387D01*
X301383Y199383D01*
X301389Y199381D01*
X301393Y199379D01*
X301395Y199378D01*
X301408Y199374D01*
X301422Y199371D01*
X301438Y199369D01*
X301452Y199368D01*
X301465Y199367D01*
X301471Y199366D01*
X301667D01*
Y199579D01*
D02*
G37*
G36*
X301718Y187895D02*
X301503D01*
X301490Y187893D01*
X301480Y187892D01*
X301470Y187890D01*
X301460Y187888D01*
X301451Y187886D01*
X301444Y187882D01*
X301437Y187880D01*
X301425Y187874D01*
X301418Y187870D01*
X301413Y187867D01*
X301411Y187865D01*
X301400Y187853D01*
X301392Y187841D01*
X301386Y187828D01*
X301382Y187817D01*
X301380Y187806D01*
X301379Y187797D01*
X301378Y187794D01*
Y187792D01*
Y187791D01*
Y187790D01*
X301379Y187778D01*
X301380Y187768D01*
X301384Y187758D01*
X301386Y187750D01*
X301390Y187742D01*
X301393Y187737D01*
X301395Y187733D01*
X301395Y187732D01*
X301402Y187723D01*
X301410Y187715D01*
X301419Y187708D01*
X301426Y187703D01*
X301434Y187699D01*
X301440Y187697D01*
X301444Y187695D01*
X301445Y187694D01*
X301459Y187690D01*
X301473Y187687D01*
X301489Y187685D01*
X301503Y187684D01*
X301516Y187683D01*
X301522Y187682D01*
X301718D01*
Y187895D01*
D02*
G37*
%LPD*%
D13*
X137429Y171253D02*
Y175153D01*
X142174D01*
Y171253D02*
Y175153D01*
X137429Y171253D02*
X142174D01*
X130165Y171227D02*
Y175127D01*
X134910D01*
Y171227D02*
Y175127D01*
X130165Y171227D02*
X134910D01*
X99744Y170335D02*
X105056D01*
Y174241D01*
X99744D02*
X105056D01*
X99744Y170335D02*
Y174241D01*
Y166601D02*
X105056D01*
Y170508D01*
X99744D02*
X105056D01*
X99744Y166601D02*
Y170508D01*
X137201Y179318D02*
X141945D01*
X137201Y175418D02*
Y179318D01*
Y175418D02*
X141945D01*
Y179318D01*
X146081Y167274D02*
Y172019D01*
Y167274D02*
X149981D01*
Y172019D01*
X146081D02*
X149981D01*
X151984Y167254D02*
Y171999D01*
Y167254D02*
X155884D01*
Y171999D01*
X151984D02*
X155884D01*
X163866Y185321D02*
Y189227D01*
X158554Y185321D02*
X163866D01*
X158554D02*
Y189227D01*
X163866D01*
X163870Y197005D02*
Y200911D01*
X158558Y197005D02*
X163870D01*
X158558D02*
Y200911D01*
X163870D01*
X231070Y167249D02*
Y171993D01*
Y167249D02*
X234970D01*
Y171993D01*
X231070D02*
X234970D01*
X236922Y167229D02*
Y171973D01*
Y167229D02*
X240822D01*
Y171973D01*
X236922D02*
X240822D01*
X248604Y185346D02*
Y189253D01*
X243292Y185346D02*
X248604D01*
X243292D02*
Y189253D01*
X248604D01*
Y197045D02*
Y200951D01*
X243292Y197045D02*
X248604D01*
X243292D02*
Y200951D01*
X248604D01*
X292751Y167254D02*
Y171999D01*
Y167254D02*
X296651D01*
Y171999D01*
X292751D02*
X296651D01*
X286899Y167245D02*
Y171990D01*
Y167245D02*
X290799D01*
Y171990D01*
X286899D02*
X290799D01*
X304408Y197056D02*
Y200962D01*
X299096Y197056D02*
X304408D01*
X299096D02*
Y200962D01*
X304408D01*
X304459Y185372D02*
Y189278D01*
X299147Y185372D02*
X304459D01*
X299147D02*
Y189278D01*
X304459D01*
M02*
