G04*
G04 #@! TF.GenerationSoftware,Altium Limited,Altium Designer,21.6.4 (81)*
G04*
G04 Layer_Physical_Order=2*
G04 Layer_Color=16711680*
%FSLAX43Y43*%
%MOMM*%
G71*
G04*
G04 #@! TF.SameCoordinates,3B1B0440-9CC4-4517-B04E-561091F89696*
G04*
G04*
G04 #@! TF.FilePolarity,Positive*
G04*
G01*
G75*
%ADD11C,0.508*%
G04:AMPARAMS|DCode=18|XSize=1.2mm|YSize=1.3mm|CornerRadius=0.3mm|HoleSize=0mm|Usage=FLASHONLY|Rotation=0.000|XOffset=0mm|YOffset=0mm|HoleType=Round|Shape=RoundedRectangle|*
%AMROUNDEDRECTD18*
21,1,1.200,0.700,0,0,0.0*
21,1,0.600,1.300,0,0,0.0*
1,1,0.600,0.300,-0.350*
1,1,0.600,-0.300,-0.350*
1,1,0.600,-0.300,0.350*
1,1,0.600,0.300,0.350*
%
%ADD18ROUNDEDRECTD18*%
%ADD29C,1.000*%
%ADD31C,3.810*%
%ADD32C,8.890*%
%ADD33C,0.800*%
%ADD34C,6.000*%
G04:AMPARAMS|DCode=35|XSize=1.2mm|YSize=1.3mm|CornerRadius=0.3mm|HoleSize=0mm|Usage=FLASHONLY|Rotation=270.000|XOffset=0mm|YOffset=0mm|HoleType=Round|Shape=RoundedRectangle|*
%AMROUNDEDRECTD35*
21,1,1.200,0.700,0,0,270.0*
21,1,0.600,1.300,0,0,270.0*
1,1,0.600,-0.350,-0.300*
1,1,0.600,-0.350,0.300*
1,1,0.600,0.350,0.300*
1,1,0.600,0.350,-0.300*
%
%ADD35ROUNDEDRECTD35*%
%ADD36R,0.600X0.700*%
G04:AMPARAMS|DCode=37|XSize=1.824mm|YSize=0.618mm|CornerRadius=0.309mm|HoleSize=0mm|Usage=FLASHONLY|Rotation=0.000|XOffset=0mm|YOffset=0mm|HoleType=Round|Shape=RoundedRectangle|*
%AMROUNDEDRECTD37*
21,1,1.824,0.000,0,0,0.0*
21,1,1.206,0.618,0,0,0.0*
1,1,0.618,0.603,0.000*
1,1,0.618,-0.603,0.000*
1,1,0.618,-0.603,0.000*
1,1,0.618,0.603,0.000*
%
%ADD37ROUNDEDRECTD37*%
%ADD38R,1.824X0.618*%
%ADD39R,1.358X2.906*%
%ADD40R,2.500X3.000*%
%ADD41R,11.000X11.000*%
%ADD42R,0.508X1.016*%
%ADD43R,0.618X1.824*%
G04:AMPARAMS|DCode=44|XSize=1.824mm|YSize=0.618mm|CornerRadius=0.309mm|HoleSize=0mm|Usage=FLASHONLY|Rotation=270.000|XOffset=0mm|YOffset=0mm|HoleType=Round|Shape=RoundedRectangle|*
%AMROUNDEDRECTD44*
21,1,1.824,0.000,0,0,270.0*
21,1,1.206,0.618,0,0,270.0*
1,1,0.618,0.000,-0.603*
1,1,0.618,0.000,0.603*
1,1,0.618,0.000,0.603*
1,1,0.618,0.000,-0.603*
%
%ADD44ROUNDEDRECTD44*%
%ADD45C,4.000*%
%ADD46C,2.500*%
%ADD47C,1.500*%
%ADD48C,2.286*%
G36*
X113284Y210363D02*
X60858D01*
Y228829D01*
X49428D01*
Y182220D01*
X36017D01*
Y169850D01*
X49428D01*
X49428Y162154D01*
X61747Y149835D01*
X133955D01*
Y145237D01*
X133999Y144795D01*
X134128Y144370D01*
X134337Y143979D01*
X134619Y143636D01*
X134962Y143354D01*
X135353Y143145D01*
X135778Y143016D01*
X136220Y142972D01*
X136662Y143016D01*
X137087Y143145D01*
X137479Y143354D01*
X137822Y143636D01*
X138103Y143979D01*
X138313Y144370D01*
X138442Y144795D01*
X138485Y145237D01*
Y149835D01*
X200558D01*
X208807Y141586D01*
X208710Y141351D01*
X30607D01*
Y245110D01*
X113284D01*
Y210363D01*
D02*
G37*
G36*
X228409Y195936D02*
X233553D01*
Y180340D01*
X230505D01*
Y158074D01*
X211245D01*
X211046Y158035D01*
X210979Y157990D01*
X210878Y157922D01*
X210878Y157922D01*
X210581Y157625D01*
X210468Y157457D01*
X210429Y157259D01*
Y147371D01*
X210393Y147335D01*
X210293Y147094D01*
Y146834D01*
X210393Y146594D01*
X210577Y146410D01*
X210817Y146310D01*
X211077D01*
X211317Y146410D01*
X211501Y146594D01*
X211601Y146834D01*
Y147094D01*
X211501Y147335D01*
X211465Y147371D01*
Y157038D01*
X230505D01*
Y143247D01*
X210291D01*
X201585Y151953D01*
X201417Y152066D01*
X201219Y152105D01*
X162027D01*
Y188722D01*
X163220D01*
X165417Y190919D01*
Y195313D01*
X163220Y197510D01*
X162001D01*
Y208686D01*
X210439Y208686D01*
X210541Y208788D01*
X228409D01*
Y195936D01*
D02*
G37*
G36*
X296774Y207670D02*
Y203327D01*
X299644Y200457D01*
X300965D01*
Y197561D01*
X284759D01*
Y208610D01*
X295834D01*
X296774Y207670D01*
D02*
G37*
G36*
X240970Y207659D02*
Y203316D01*
X243840Y200446D01*
X245161D01*
Y197550D01*
X228956D01*
Y208599D01*
X240030D01*
X240970Y207659D01*
D02*
G37*
G36*
X156210Y207620D02*
Y203276D01*
X159080Y200406D01*
X160401D01*
Y197510D01*
X144196D01*
Y208559D01*
X155270D01*
X156210Y207620D01*
D02*
G37*
G36*
X108864Y180315D02*
X60833D01*
Y203276D01*
X108864D01*
Y180315D01*
D02*
G37*
G36*
X148996Y187046D02*
X127406D01*
Y173688D01*
X120802Y167084D01*
X103251D01*
Y173764D01*
X106554D01*
X114173Y181256D01*
Y196421D01*
X148996D01*
Y187046D01*
D02*
G37*
G36*
X212014Y221513D02*
X271577D01*
Y221399D01*
X284239Y208737D01*
Y195961D01*
X289255D01*
Y179603D01*
X286842Y177190D01*
Y167517D01*
X286747Y167287D01*
Y167027D01*
X286842Y166797D01*
Y146013D01*
X286745Y145947D01*
X286588Y145885D01*
X286388Y145967D01*
X286128D01*
X285888Y145868D01*
X285851Y145831D01*
X282880D01*
X282682Y145792D01*
X282514Y145680D01*
X280081Y143247D01*
X246736D01*
Y179578D01*
X246761Y179603D01*
Y188747D01*
X247955D01*
X250152Y190945D01*
Y195339D01*
X247955Y197536D01*
X246736D01*
Y204445D01*
X241605Y209575D01*
X143485D01*
Y197383D01*
X114097D01*
Y245110D01*
X188417D01*
X212014Y221513D01*
D02*
G37*
G36*
X316433Y236372D02*
X326593D01*
Y151435D01*
X316433D01*
Y141351D01*
X305257D01*
Y184760D01*
X304140Y185877D01*
X302590D01*
Y188773D01*
X303784D01*
X305981Y190970D01*
Y195364D01*
X303784Y197561D01*
X302565D01*
Y200457D01*
X321183D01*
X321183Y212293D01*
X308610D01*
Y245110D01*
X316433D01*
Y236372D01*
D02*
G37*
%LPC*%
G36*
X178513Y244681D02*
X178001D01*
X177495Y244601D01*
X177008Y244443D01*
X176552Y244210D01*
X176137Y243909D01*
X175775Y243547D01*
X175474Y243132D01*
X175242Y242676D01*
X175083Y242189D01*
X175003Y241683D01*
Y241171D01*
X175083Y240665D01*
X175242Y240178D01*
X175474Y239722D01*
X175775Y239307D01*
X176137Y238945D01*
X176552Y238644D01*
X177008Y238411D01*
X177495Y238253D01*
X178001Y238173D01*
X178513D01*
X179019Y238253D01*
X179506Y238411D01*
X179963Y238644D01*
X180377Y238945D01*
X180739Y239307D01*
X181040Y239722D01*
X181273Y240178D01*
X181431Y240665D01*
X181511Y241171D01*
Y241683D01*
X181431Y242189D01*
X181273Y242676D01*
X181040Y243132D01*
X180739Y243547D01*
X180377Y243909D01*
X179963Y244210D01*
X179506Y244443D01*
X179019Y244601D01*
X178513Y244681D01*
D02*
G37*
%LPD*%
D11*
X125324Y165811D02*
X140538D01*
X145745Y171018D01*
Y176076D01*
X142672Y164846D02*
X144551Y162966D01*
X150622D01*
X130429Y164846D02*
X142672D01*
X154838Y150724D02*
X200584D01*
X131216Y163932D02*
X141630D01*
X154838Y150724D01*
X126162Y155314D02*
Y160579D01*
X130429Y164846D01*
X122415Y158445D02*
X123419D01*
X121412D02*
X122415D01*
X119405Y155314D02*
Y158445D01*
Y155314D02*
X119703Y155016D01*
X122415Y156680D02*
X122428Y156667D01*
X122415Y156680D02*
Y158445D01*
X119703Y155016D02*
X125864D01*
X123419Y158445D02*
X123419Y158445D01*
X121412Y158445D02*
X121412Y158445D01*
X144907Y171679D02*
Y175826D01*
X140030Y166802D02*
X144907Y171679D01*
X125809Y166802D02*
X140030D01*
X236474Y185039D02*
X238217D01*
X234827D02*
X236474D01*
Y181305D02*
Y185039D01*
X234529Y186080D02*
Y187195D01*
Y185337D02*
Y186080D01*
X162973Y186932D02*
X163112Y187071D01*
X162402Y186214D02*
X162973D01*
X235832Y180289D02*
X237297D01*
X239801Y182793D01*
Y187452D01*
X238455Y187477D02*
X239801D01*
X244293D01*
X283058Y144348D02*
X287350D01*
X209372Y141935D02*
X280645D01*
X283058Y144348D01*
X280296Y142729D02*
X282880Y145313D01*
X210077Y142729D02*
X280296D01*
X282880Y145313D02*
X286258D01*
X287426Y144424D02*
Y167132D01*
X287350Y144348D02*
X287426Y144424D01*
X127838Y150876D02*
Y160553D01*
X131216Y163932D01*
X125864Y155016D02*
X126162Y155314D01*
X125453Y167157D02*
X125809Y166802D01*
X136507Y176403D02*
X140533D01*
X142766D01*
X201219Y151587D02*
X210077Y142729D01*
X156997Y151587D02*
X201219D01*
X200584Y150724D02*
X209372Y141935D01*
X149174Y159410D02*
X156997Y151587D01*
X149174Y159410D02*
Y161519D01*
X287401Y167157D02*
X287426Y167132D01*
X289942Y169867D02*
Y170086D01*
Y167156D02*
Y169867D01*
Y167156D02*
X289966Y167132D01*
X210947Y146964D02*
Y157259D01*
X211245Y157556D02*
X231496D01*
X210947Y157259D02*
X211245Y157556D01*
X231496D02*
Y166370D01*
X231445Y166421D02*
X231496Y166370D01*
X234214Y166445D02*
Y169849D01*
X289942Y169867D02*
X290240Y169570D01*
X291597D02*
X291744Y169717D01*
X289799Y169992D02*
Y170577D01*
X290240Y169570D02*
X291597D01*
X291160Y164948D02*
Y165027D01*
X291744Y165611D02*
Y167422D01*
X291160Y165027D02*
X291744Y165611D01*
X291684Y167482D02*
X291744Y167422D01*
X288849Y164102D02*
Y168657D01*
X294403Y163805D02*
X294701Y164102D01*
X289146Y163805D02*
X294403D01*
X294701Y164102D02*
Y168666D01*
X288849Y164102D02*
X289146Y163805D01*
X149200Y165989D02*
Y169393D01*
X149334D01*
X124231Y164465D02*
Y167640D01*
X129733Y172227D02*
X131577D01*
X124231Y167640D02*
X124724Y168132D01*
X136246D01*
X126721Y169215D02*
X129733Y172227D01*
X125374Y167157D02*
X125453D01*
X143045Y176124D02*
X144609D01*
X144907Y175826D01*
X121336Y164135D02*
Y166116D01*
X128397Y173177D02*
X133497D01*
X121336Y166116D02*
X128397Y173177D01*
X136246Y176141D02*
X136507Y176403D01*
X125324Y163830D02*
Y165811D01*
X302336Y179146D02*
X305054D01*
X294701Y171511D02*
X302336Y179146D01*
X305054D02*
X309080Y183172D01*
X296297Y171806D02*
X297263D01*
X294701Y168666D02*
Y171511D01*
X295651Y171160D02*
X296297Y171806D01*
X295651Y170586D02*
Y171160D01*
X297561Y169717D02*
Y171508D01*
X297263Y171806D02*
X297561Y171508D01*
X123419Y160645D02*
Y161925D01*
X125324Y163830D01*
X106502Y160706D02*
X119345D01*
X100889Y166319D02*
Y168478D01*
Y166319D02*
X106502Y160706D01*
X121336Y164135D02*
X121374Y164097D01*
Y160683D02*
X121412Y160645D01*
X121374Y160683D02*
Y164097D01*
X148082Y164382D02*
X148380Y164084D01*
X153637D01*
X153934Y164382D01*
X148082D02*
Y168657D01*
X153934Y164382D02*
Y168666D01*
X247025Y179842D02*
Y186100D01*
X238872Y168641D02*
Y171689D01*
X247025Y179842D01*
X247735Y186216D02*
Y186934D01*
X247140Y186216D02*
X247735D01*
X247025Y186100D02*
X247140Y186216D01*
X247735Y186934D02*
X247850Y187050D01*
X153934Y171663D02*
X162263Y179992D01*
Y186075D01*
X153934Y168666D02*
Y171663D01*
X151536Y181254D02*
Y184963D01*
X150107Y184963D02*
X153221D01*
X151536Y184963D02*
X151536Y184963D01*
X149809Y185260D02*
Y186055D01*
Y185260D02*
X150107Y184963D01*
X153221D02*
X153518Y185260D01*
X146355Y180467D02*
X147861D01*
X145745Y176076D02*
X148158Y178489D01*
Y180169D01*
X147861Y180467D02*
X148158Y180169D01*
X145466Y179578D02*
X146355Y180467D01*
X138887Y179578D02*
X145466D01*
X138062Y177419D02*
Y177919D01*
X138113Y177368D02*
X138613D01*
X138062Y177419D02*
X138113Y177368D01*
X137640Y178341D02*
X138062Y177919D01*
X136246Y178341D02*
X137650D01*
X138255Y170630D02*
Y172253D01*
X136246Y170332D02*
X137957D01*
X138255Y170630D01*
X142979Y172253D02*
X143104Y172128D01*
X138255Y172253D02*
X142979D01*
X142928Y174153D02*
X143104Y174328D01*
X138841Y174153D02*
X142928D01*
X136027Y174127D02*
X136246Y174346D01*
X123514Y174127D02*
X136027D01*
X142766Y176403D02*
X143045Y176124D01*
X236068Y160198D02*
Y160277D01*
X235915Y160429D02*
X236068Y160277D01*
X235915Y160429D02*
Y167509D01*
X233020Y158590D02*
Y168632D01*
X233317Y158293D02*
X238574D01*
X238872Y158590D02*
Y168641D01*
X238574Y158293D02*
X238872Y158590D01*
X233020D02*
X233317Y158293D01*
X241757Y158727D02*
Y167496D01*
X241859Y158547D02*
Y158626D01*
X241757Y158727D02*
X241859Y158626D01*
X241732Y167521D02*
X241757Y167496D01*
X291313Y171653D02*
Y173474D01*
X235483Y171628D02*
Y173449D01*
X234322Y169740D02*
X235884D01*
X233970Y170008D02*
Y170581D01*
X234105Y169957D02*
X234322Y169740D01*
X234020Y169957D02*
X234105D01*
X233970Y170008D02*
X234020Y169957D01*
X235884Y169740D02*
X235915Y169709D01*
X137650Y178341D02*
X138887Y179578D01*
X147086Y179471D02*
X147142Y179527D01*
X147086Y178836D02*
Y179471D01*
X146609Y178358D02*
X147086Y178836D01*
X146609Y178308D02*
Y178358D01*
X148590Y177419D02*
X149631Y178460D01*
X148590Y175598D02*
Y177419D01*
X149631Y178460D02*
Y178714D01*
X119345Y160706D02*
X119405Y160645D01*
X136246Y173190D02*
X140749D01*
X133510D02*
X136246D01*
Y172146D02*
Y173190D01*
X140749D02*
X140762Y173203D01*
X133497Y173177D02*
X133510Y173190D01*
X136418Y174174D02*
X138820D01*
X136246Y174346D02*
X136418Y174174D01*
X138820D02*
X138841Y174153D01*
X301447Y161163D02*
X301473Y161188D01*
X305427Y203937D02*
X305453Y203962D01*
X143016Y178330D02*
X143027Y178341D01*
X140545Y178330D02*
X143016D01*
X140533Y178318D02*
X140545Y178330D01*
X143027Y178341D02*
X143044Y178325D01*
X145192D01*
X145209Y178308D01*
X150571Y177240D02*
Y178714D01*
Y177240D02*
X150574Y177237D01*
X150571Y175623D02*
X150574Y175626D01*
Y177237D01*
X151536Y177724D02*
X152552Y176708D01*
X151536Y177724D02*
Y178714D01*
X152552Y175598D02*
Y176708D01*
X150927Y166210D02*
Y167535D01*
Y166210D02*
X151224Y165913D01*
X152400D01*
X291160Y162738D02*
X296709D01*
X297561Y163590D01*
Y167517D01*
X140533Y178318D02*
X140538Y178313D01*
X110980Y168554D02*
X110991Y168565D01*
X150546Y173474D02*
X150584Y173436D01*
Y171615D02*
X150622Y171577D01*
X150584Y171615D02*
Y173436D01*
X148981Y170607D02*
X149002Y170586D01*
X149334Y169393D02*
X150510D01*
X149002Y169724D02*
Y170586D01*
Y169724D02*
X149334Y169393D01*
X150510D02*
X150852Y169735D01*
X150927D01*
X149795Y186055D02*
Y187170D01*
X156718Y163398D02*
Y167521D01*
X156743Y167547D01*
X156693Y163373D02*
X156718Y163398D01*
X163830Y187071D02*
X165506Y188747D01*
X162973Y186214D02*
Y186932D01*
X163112Y187071D02*
X163830D01*
X162263Y186075D02*
X162402Y186214D01*
X248569Y187050D02*
X251009Y189490D01*
X247850Y187050D02*
X248569D01*
X301485Y225311D02*
X301498Y225298D01*
X301473Y241148D02*
X301485Y241135D01*
X154854Y171503D02*
X155186Y171835D01*
X154833Y170616D02*
X154854Y170637D01*
Y171503D01*
X155186Y171835D02*
X156446D01*
X156743Y169747D02*
Y171537D01*
X156446Y171835D02*
X156743Y171537D01*
X239843Y171478D02*
X240174Y171810D01*
X239822Y170590D02*
X239843Y170611D01*
Y171478D01*
X240174Y171810D02*
X241434D01*
X241732Y169721D02*
Y171512D01*
X241434Y171810D02*
X241732Y171512D01*
X147081Y170607D02*
Y172041D01*
X148514Y173474D01*
X148539D01*
X152984Y170586D02*
X153039Y170641D01*
X152552Y173474D02*
X152578D01*
X152984Y170586D02*
Y173068D01*
X152578Y173474D02*
X152984Y173068D01*
X237922Y170561D02*
X237977Y170616D01*
X237490Y173449D02*
X237515D01*
X237922Y170561D02*
Y173042D01*
X237515Y173449D02*
X237922Y173042D01*
X233502Y173449D02*
X233528D01*
X232070Y172016D02*
X233502Y173449D01*
X232070Y170581D02*
Y172016D01*
X287899Y170607D02*
Y172041D01*
X289332Y173474D01*
X289357D01*
X293344D02*
X293751Y173068D01*
Y170586D02*
Y173068D01*
X293319Y173474D02*
X293344D01*
X293751Y170586D02*
X293806Y170641D01*
X154864Y182829D02*
Y187401D01*
X150894Y180238D02*
X152273D01*
X154864Y182829D01*
X150571Y180561D02*
Y181254D01*
Y180561D02*
X150894Y180238D01*
X151047Y187452D02*
X153721D01*
X150749Y186055D02*
Y187154D01*
X151047Y187452D01*
X153721D02*
X159559D01*
X149497Y187467D02*
X149795Y187170D01*
X151714Y193680D02*
X152208Y194173D01*
X151714Y188595D02*
Y193680D01*
X147505Y187467D02*
X149497D01*
X147208Y187765D02*
X147505Y187467D01*
X147208Y187765D02*
Y194173D01*
X235509Y175623D02*
X235534Y175649D01*
X235509Y175674D02*
Y178765D01*
X234569Y177775D02*
Y178765D01*
X233528Y176733D02*
X234569Y177775D01*
X233528Y175649D02*
Y176733D01*
X236474Y177775D02*
Y178765D01*
Y177775D02*
X237490Y176759D01*
Y175649D02*
Y176759D01*
X235509Y180612D02*
X235832Y180289D01*
X235509Y180612D02*
Y181305D01*
X244293Y187477D02*
X244471Y187300D01*
X238217Y185039D02*
X238455Y185277D01*
X234529Y185337D02*
X234827Y185039D01*
X235483Y187180D02*
X235781Y187477D01*
X235483Y186080D02*
Y187180D01*
X235781Y187477D02*
X238455D01*
X236449Y188620D02*
Y193705D01*
X236942Y194198D01*
X234231Y187493D02*
X234529Y187195D01*
X232240Y187493D02*
X234231D01*
X231942Y187790D02*
X232240Y187493D01*
X231942Y187790D02*
Y194198D01*
X100363Y198164D02*
X100863Y197663D01*
X293319Y175674D02*
Y176784D01*
X292303Y177800D02*
X293319Y176784D01*
X292303Y177800D02*
Y178791D01*
X289357Y175674D02*
Y176759D01*
X290398Y177800D01*
Y178791D01*
X291338Y175700D02*
Y178791D01*
X291313Y175674D02*
X291338Y175700D01*
X295631Y182905D02*
Y187477D01*
X291661Y180315D02*
X293040D01*
X295631Y182905D01*
X294284Y187477D02*
X295631D01*
X291610D02*
X294284D01*
X295631D02*
X300173D01*
X291338Y180638D02*
Y181331D01*
Y180638D02*
X291661Y180315D01*
X292303Y184912D02*
X293591D01*
X290670D02*
X292303D01*
Y181331D02*
Y184912D01*
X290373Y185210D02*
Y186080D01*
Y187180D01*
X293603Y184925D02*
X293967D01*
X294284Y185242D01*
X293591Y184912D02*
X293603Y184925D01*
X290373Y185210D02*
X290670Y184912D01*
X291313Y186080D02*
Y187180D01*
X291610Y187477D01*
X300173D02*
X300326Y187325D01*
X287786Y187775D02*
Y194183D01*
Y187775D02*
X288083Y187477D01*
X290075D01*
X290373Y187180D01*
X292278Y193675D02*
X292786Y194183D01*
X292278Y188620D02*
Y193675D01*
D18*
X305453Y203962D02*
D03*
X307653D02*
D03*
D29*
X310109Y187325D02*
X315417Y182016D01*
X310109Y187325D02*
X313341D01*
X303280D02*
X310109D01*
X98984Y195950D02*
Y196494D01*
X98596Y195563D02*
X98984Y195950D01*
X98577Y193500D02*
Y195000D01*
Y192000D02*
Y193500D01*
Y195000D02*
X98596Y195019D01*
Y195563D01*
X98577Y190109D02*
Y192000D01*
X105258Y206798D02*
Y206819D01*
X106113Y205943D02*
X108204D01*
X105258Y206798D02*
X106113Y205943D01*
X102863Y215824D02*
X107863Y210824D01*
X93363Y179178D02*
X101925D01*
X93320D02*
X93363D01*
X93320Y174219D02*
Y176924D01*
X93320Y176924D01*
Y179178D01*
X93363Y176924D02*
Y179178D01*
X101925D02*
X102367D01*
X104027Y179194D02*
X105065D01*
X105363Y176924D02*
Y178897D01*
X81356Y179194D02*
X98800D01*
X104027D01*
X105065D02*
X105363Y178897D01*
X69363D02*
X69660Y179194D01*
X69363Y176924D02*
Y178897D01*
X81356Y179194D02*
X81363Y179188D01*
Y176924D02*
Y179188D01*
X69660Y179194D02*
X81356D01*
X93523Y209194D02*
X105065D01*
X81356D02*
X93523D01*
X93363Y209034D02*
X93523Y209194D01*
X93363Y206924D02*
Y209034D01*
X69660Y209194D02*
X81356D01*
X81363Y206924D02*
Y209188D01*
X81356Y209194D02*
X81363Y209188D01*
X69363Y206924D02*
Y208897D01*
X69660Y209194D01*
X105065D02*
X105363Y208897D01*
Y206924D02*
Y208897D01*
X303229Y199009D02*
X309474D01*
D31*
X224739Y161163D02*
D03*
Y182626D02*
D03*
Y203962D02*
D03*
Y225425D02*
D03*
X301447Y161163D02*
D03*
Y182499D02*
D03*
Y203962D02*
D03*
Y225298D02*
D03*
X140081Y161163D02*
D03*
Y182626D02*
D03*
Y203962D02*
D03*
Y225425D02*
D03*
X216789Y161163D02*
D03*
Y182499D02*
D03*
Y203962D02*
D03*
Y225298D02*
D03*
X55880Y161163D02*
D03*
Y182626D02*
D03*
Y203962D02*
D03*
Y225425D02*
D03*
X132588Y161163D02*
D03*
Y182499D02*
D03*
Y203962D02*
D03*
Y225298D02*
D03*
D32*
X41605Y176276D02*
D03*
Y206121D02*
D03*
X315595Y206502D02*
D03*
Y176657D02*
D03*
D33*
X227500Y207500D02*
D03*
Y202500D02*
D03*
Y197500D02*
D03*
X228750Y195000D02*
D03*
X227500Y192500D02*
D03*
X228750Y190000D02*
D03*
X227500Y187500D02*
D03*
X228750Y185000D02*
D03*
X227500Y182500D02*
D03*
X225000Y207500D02*
D03*
X226250Y200000D02*
D03*
X225000Y197500D02*
D03*
X226250Y195000D02*
D03*
X225000Y192500D02*
D03*
X226250Y190000D02*
D03*
X225000Y187500D02*
D03*
X226250Y185000D02*
D03*
X222500Y207500D02*
D03*
Y202500D02*
D03*
X223750Y200000D02*
D03*
X222500Y197500D02*
D03*
X223750Y195000D02*
D03*
X222500Y192500D02*
D03*
X223750Y190000D02*
D03*
X222500Y187500D02*
D03*
X223750Y185000D02*
D03*
X220000Y207500D02*
D03*
X221250Y205000D02*
D03*
X220000Y202500D02*
D03*
X221250Y200000D02*
D03*
X220000Y197500D02*
D03*
X221250Y195000D02*
D03*
X220000Y192500D02*
D03*
X221250Y190000D02*
D03*
X220000Y187500D02*
D03*
X221250Y185000D02*
D03*
X220000Y182500D02*
D03*
X217500Y207500D02*
D03*
X218750Y200000D02*
D03*
X217500Y197500D02*
D03*
X218750Y195000D02*
D03*
X217500Y192500D02*
D03*
X218750Y190000D02*
D03*
X217500Y187500D02*
D03*
X218750Y185000D02*
D03*
X215000Y207500D02*
D03*
X216250Y200000D02*
D03*
X215000Y197500D02*
D03*
X216250Y195000D02*
D03*
X215000Y192500D02*
D03*
X216250Y190000D02*
D03*
X215000Y187500D02*
D03*
X216250Y185000D02*
D03*
X212500Y207500D02*
D03*
X213750Y205000D02*
D03*
X212500Y202500D02*
D03*
X213750Y200000D02*
D03*
X212500Y197500D02*
D03*
X213750Y195000D02*
D03*
X212500Y192500D02*
D03*
X213750Y190000D02*
D03*
X212500Y187500D02*
D03*
X213750Y185000D02*
D03*
X212500Y182500D02*
D03*
X140000Y200000D02*
D03*
X137500D02*
D03*
X136250Y202500D02*
D03*
X135000Y200000D02*
D03*
X132500D02*
D03*
X130000D02*
D03*
X321250Y190000D02*
D03*
X320000Y187500D02*
D03*
X321250Y185000D02*
D03*
X320000Y182500D02*
D03*
X321250Y180000D02*
D03*
Y175000D02*
D03*
X320000Y172500D02*
D03*
X321250Y170000D02*
D03*
X320000Y167500D02*
D03*
X321250Y165000D02*
D03*
X320000Y162500D02*
D03*
X321250Y160000D02*
D03*
X320000Y157500D02*
D03*
X321250Y155000D02*
D03*
X320000Y152500D02*
D03*
X318750Y190000D02*
D03*
X317500Y187500D02*
D03*
X318750Y185000D02*
D03*
X317500Y182500D02*
D03*
X318750Y170000D02*
D03*
X317500Y167500D02*
D03*
X318750Y165000D02*
D03*
X317500Y162500D02*
D03*
X318750Y160000D02*
D03*
X317500Y157500D02*
D03*
X318750Y155000D02*
D03*
X317500Y152500D02*
D03*
X316250Y190000D02*
D03*
X315000Y187500D02*
D03*
X316250Y185000D02*
D03*
X315000Y182500D02*
D03*
X316250Y170000D02*
D03*
X315000Y167500D02*
D03*
X316250Y165000D02*
D03*
X315000Y162500D02*
D03*
X316250Y160000D02*
D03*
X315000Y157500D02*
D03*
X316250Y155000D02*
D03*
X315000Y152500D02*
D03*
Y147500D02*
D03*
Y142500D02*
D03*
X313750Y190000D02*
D03*
X312500Y187500D02*
D03*
X313750Y185000D02*
D03*
X312500Y182500D02*
D03*
Y172500D02*
D03*
X313750Y170000D02*
D03*
X312500Y167500D02*
D03*
X313750Y165000D02*
D03*
X312500Y162500D02*
D03*
X313750Y160000D02*
D03*
X312500Y157500D02*
D03*
X313750Y155000D02*
D03*
X312500Y152500D02*
D03*
X313750Y150000D02*
D03*
X312500Y147500D02*
D03*
Y142500D02*
D03*
X311250Y190000D02*
D03*
X310000Y187500D02*
D03*
X311250Y185000D02*
D03*
X310000Y182500D02*
D03*
X311250Y180000D02*
D03*
X310000Y177500D02*
D03*
Y172500D02*
D03*
X311250Y170000D02*
D03*
X310000Y167500D02*
D03*
X311250Y165000D02*
D03*
X310000Y162500D02*
D03*
X311250Y160000D02*
D03*
X310000Y157500D02*
D03*
X311250Y155000D02*
D03*
X310000Y152500D02*
D03*
X311250Y150000D02*
D03*
X310000Y147500D02*
D03*
Y142500D02*
D03*
X308750Y155000D02*
D03*
X307500Y152500D02*
D03*
X308750Y150000D02*
D03*
X307500Y147500D02*
D03*
X308750Y145000D02*
D03*
X307500Y142500D02*
D03*
X111250Y242500D02*
D03*
X110000Y240000D02*
D03*
X111250Y237500D02*
D03*
X110000Y235000D02*
D03*
X111250Y232500D02*
D03*
X110000Y230000D02*
D03*
X111250Y227500D02*
D03*
X110000Y225000D02*
D03*
X111250Y222500D02*
D03*
X110000Y220000D02*
D03*
X111250Y217500D02*
D03*
X110000Y215000D02*
D03*
X111250Y212500D02*
D03*
X108750Y242500D02*
D03*
X107500Y240000D02*
D03*
X108750Y237500D02*
D03*
X107500Y235000D02*
D03*
X108750Y232500D02*
D03*
X107500Y230000D02*
D03*
X108750Y227500D02*
D03*
X107500Y225000D02*
D03*
X108750Y222500D02*
D03*
X106250Y242500D02*
D03*
X105000Y240000D02*
D03*
X106250Y237500D02*
D03*
X105000Y235000D02*
D03*
X106250Y232500D02*
D03*
X105000Y230000D02*
D03*
X106250Y227500D02*
D03*
X105000Y225000D02*
D03*
X106250Y222500D02*
D03*
X103750Y242500D02*
D03*
X102500Y240000D02*
D03*
X103750Y237500D02*
D03*
X102500Y235000D02*
D03*
X103750Y232500D02*
D03*
X102500Y230000D02*
D03*
X103750Y227500D02*
D03*
X102500Y225000D02*
D03*
X103750Y222500D02*
D03*
X101250Y242500D02*
D03*
X100000Y240000D02*
D03*
X101250Y237500D02*
D03*
X100000Y235000D02*
D03*
X101250Y232500D02*
D03*
X100000Y230000D02*
D03*
X101250Y227500D02*
D03*
X100000Y225000D02*
D03*
X101250Y222500D02*
D03*
X98750Y242500D02*
D03*
X97500Y240000D02*
D03*
X98750Y237500D02*
D03*
X97500Y235000D02*
D03*
X98750Y232500D02*
D03*
X97500Y230000D02*
D03*
X98750Y227500D02*
D03*
X97500Y225000D02*
D03*
X98750Y222500D02*
D03*
X96250Y242500D02*
D03*
X95000Y240000D02*
D03*
X96250Y237500D02*
D03*
X95000Y235000D02*
D03*
X96250Y232500D02*
D03*
X95000Y230000D02*
D03*
X96250Y227500D02*
D03*
X95000Y225000D02*
D03*
X96250Y222500D02*
D03*
X93750Y242500D02*
D03*
X92500Y240000D02*
D03*
X93750Y237500D02*
D03*
X92500Y235000D02*
D03*
X93750Y232500D02*
D03*
X92500Y230000D02*
D03*
X93750Y227500D02*
D03*
X92500Y225000D02*
D03*
X93750Y222500D02*
D03*
X91250Y242500D02*
D03*
X90000Y240000D02*
D03*
X91250Y237500D02*
D03*
X90000Y235000D02*
D03*
X91250Y232500D02*
D03*
X90000Y230000D02*
D03*
X91250Y227500D02*
D03*
X90000Y225000D02*
D03*
X91250Y222500D02*
D03*
X88750Y242500D02*
D03*
X87500Y240000D02*
D03*
X88750Y237500D02*
D03*
X87500Y235000D02*
D03*
X88750Y232500D02*
D03*
X87500Y230000D02*
D03*
X88750Y227500D02*
D03*
X87500Y225000D02*
D03*
X88750Y222500D02*
D03*
X86250Y242500D02*
D03*
X85000Y240000D02*
D03*
X86250Y237500D02*
D03*
X85000Y235000D02*
D03*
X86250Y232500D02*
D03*
X85000Y230000D02*
D03*
X86250Y227500D02*
D03*
X85000Y225000D02*
D03*
X86250Y222500D02*
D03*
X83750Y242500D02*
D03*
X82500Y240000D02*
D03*
X83750Y237500D02*
D03*
X82500Y235000D02*
D03*
X83750Y232500D02*
D03*
X82500Y230000D02*
D03*
X83750Y227500D02*
D03*
X82500Y225000D02*
D03*
X83750Y222500D02*
D03*
X81250Y242500D02*
D03*
X80000Y240000D02*
D03*
X81250Y237500D02*
D03*
X80000Y235000D02*
D03*
X81250Y232500D02*
D03*
X80000Y230000D02*
D03*
X81250Y227500D02*
D03*
X80000Y225000D02*
D03*
X81250Y222500D02*
D03*
X78750Y242500D02*
D03*
X77500Y240000D02*
D03*
X78750Y237500D02*
D03*
X77500Y235000D02*
D03*
X78750Y232500D02*
D03*
X77500Y230000D02*
D03*
X78750Y227500D02*
D03*
X77500Y225000D02*
D03*
X78750Y222500D02*
D03*
X76250Y242500D02*
D03*
X75000Y240000D02*
D03*
X76250Y237500D02*
D03*
X75000Y235000D02*
D03*
X76250Y232500D02*
D03*
X75000Y230000D02*
D03*
X76250Y227500D02*
D03*
X75000Y225000D02*
D03*
X76250Y222500D02*
D03*
X73750Y242500D02*
D03*
X72500Y240000D02*
D03*
X73750Y237500D02*
D03*
X72500Y235000D02*
D03*
X73750Y232500D02*
D03*
X72500Y230000D02*
D03*
X73750Y227500D02*
D03*
X72500Y225000D02*
D03*
X73750Y222500D02*
D03*
X71250Y242500D02*
D03*
X70000Y240000D02*
D03*
X71250Y237500D02*
D03*
X70000Y235000D02*
D03*
X71250Y232500D02*
D03*
X70000Y230000D02*
D03*
X71250Y227500D02*
D03*
X70000Y225000D02*
D03*
X71250Y222500D02*
D03*
X68750Y242500D02*
D03*
X67500Y240000D02*
D03*
X68750Y237500D02*
D03*
X67500Y235000D02*
D03*
X68750Y232500D02*
D03*
X67500Y230000D02*
D03*
X68750Y227500D02*
D03*
X67500Y225000D02*
D03*
X68750Y222500D02*
D03*
X66250Y242500D02*
D03*
X65000Y240000D02*
D03*
X66250Y237500D02*
D03*
X65000Y235000D02*
D03*
X66250Y232500D02*
D03*
X65000Y230000D02*
D03*
X66250Y227500D02*
D03*
X65000Y225000D02*
D03*
X66250Y222500D02*
D03*
X63750Y242500D02*
D03*
X62500Y240000D02*
D03*
X63750Y237500D02*
D03*
X62500Y235000D02*
D03*
X63750Y232500D02*
D03*
X62500Y230000D02*
D03*
X63750Y227500D02*
D03*
X62500Y225000D02*
D03*
X63750Y222500D02*
D03*
X61250Y242500D02*
D03*
X60000Y240000D02*
D03*
X61250Y237500D02*
D03*
X60000Y235000D02*
D03*
X61250Y232500D02*
D03*
X60000Y230000D02*
D03*
X58750Y242500D02*
D03*
X57500Y240000D02*
D03*
X58750Y237500D02*
D03*
X57500Y235000D02*
D03*
X58750Y232500D02*
D03*
X57500Y230000D02*
D03*
X56250Y242500D02*
D03*
X55000Y240000D02*
D03*
X56250Y237500D02*
D03*
X55000Y235000D02*
D03*
X56250Y232500D02*
D03*
X55000Y230000D02*
D03*
X53750Y242500D02*
D03*
X52500Y240000D02*
D03*
X53750Y237500D02*
D03*
X52500Y235000D02*
D03*
X53750Y232500D02*
D03*
X52500Y230000D02*
D03*
X51250Y242500D02*
D03*
X50000Y240000D02*
D03*
X51250Y237500D02*
D03*
X50000Y235000D02*
D03*
X51250Y232500D02*
D03*
X50000Y230000D02*
D03*
X48750Y242500D02*
D03*
X47500Y240000D02*
D03*
X48750Y237500D02*
D03*
X47500Y235000D02*
D03*
X48750Y232500D02*
D03*
X47500Y230000D02*
D03*
X48750Y227500D02*
D03*
X47500Y225000D02*
D03*
X48750Y222500D02*
D03*
X47500Y220000D02*
D03*
X48750Y217500D02*
D03*
X47500Y215000D02*
D03*
X48750Y212500D02*
D03*
X47500Y210000D02*
D03*
X48750Y207500D02*
D03*
X47500Y205000D02*
D03*
X48750Y202500D02*
D03*
X47500Y200000D02*
D03*
X48750Y197500D02*
D03*
X47500Y195000D02*
D03*
X46250Y242500D02*
D03*
X45000Y240000D02*
D03*
X46250Y237500D02*
D03*
X45000Y235000D02*
D03*
X46250Y232500D02*
D03*
X45000Y230000D02*
D03*
X46250Y227500D02*
D03*
X45000Y225000D02*
D03*
X46250Y222500D02*
D03*
X45000Y220000D02*
D03*
X46250Y217500D02*
D03*
X45000Y215000D02*
D03*
X46250Y212500D02*
D03*
X45000Y210000D02*
D03*
X46250Y202500D02*
D03*
X45000Y200000D02*
D03*
X46250Y197500D02*
D03*
X45000Y195000D02*
D03*
X43750Y242500D02*
D03*
X42500Y240000D02*
D03*
X43750Y237500D02*
D03*
X42500Y235000D02*
D03*
X43750Y232500D02*
D03*
X42500Y230000D02*
D03*
X43750Y227500D02*
D03*
X42500Y225000D02*
D03*
X43750Y222500D02*
D03*
X42500Y220000D02*
D03*
X43750Y217500D02*
D03*
X42500Y215000D02*
D03*
X43750Y212500D02*
D03*
X42500Y200000D02*
D03*
X43750Y197500D02*
D03*
X42500Y195000D02*
D03*
X41250Y242500D02*
D03*
X40000Y240000D02*
D03*
X41250Y237500D02*
D03*
X40000Y235000D02*
D03*
X41250Y232500D02*
D03*
X40000Y230000D02*
D03*
X41250Y227500D02*
D03*
X40000Y225000D02*
D03*
X41250Y222500D02*
D03*
X40000Y220000D02*
D03*
X41250Y217500D02*
D03*
X40000Y215000D02*
D03*
X41250Y212500D02*
D03*
X40000Y200000D02*
D03*
X41250Y197500D02*
D03*
X40000Y195000D02*
D03*
X38750Y237500D02*
D03*
X37500Y235000D02*
D03*
X38750Y232500D02*
D03*
X37500Y230000D02*
D03*
X38750Y227500D02*
D03*
X37500Y225000D02*
D03*
X38750Y222500D02*
D03*
X37500Y220000D02*
D03*
X38750Y217500D02*
D03*
X37500Y215000D02*
D03*
X38750Y212500D02*
D03*
X37500Y210000D02*
D03*
Y200000D02*
D03*
X38750Y197500D02*
D03*
X36250Y237500D02*
D03*
X35000Y235000D02*
D03*
X36250Y232500D02*
D03*
X35000Y230000D02*
D03*
X36250Y227500D02*
D03*
X35000Y225000D02*
D03*
X36250Y222500D02*
D03*
X35000Y220000D02*
D03*
X36250Y217500D02*
D03*
X35000Y215000D02*
D03*
X36250Y212500D02*
D03*
X35000Y210000D02*
D03*
X36250Y207500D02*
D03*
X35000Y205000D02*
D03*
X36250Y202500D02*
D03*
X35000Y200000D02*
D03*
X33750Y237500D02*
D03*
X32500Y235000D02*
D03*
X33750Y232500D02*
D03*
X32500Y230000D02*
D03*
X33750Y227500D02*
D03*
X32500Y225000D02*
D03*
X33750Y222500D02*
D03*
X32500Y220000D02*
D03*
X33750Y217500D02*
D03*
X32500Y215000D02*
D03*
X33750Y212500D02*
D03*
X32500Y210000D02*
D03*
X33750Y207500D02*
D03*
X32500Y205000D02*
D03*
X33750Y202500D02*
D03*
X32500Y200000D02*
D03*
X122428Y156667D02*
D03*
X286258Y145313D02*
D03*
X127838Y150876D02*
D03*
X149174Y161519D02*
D03*
X287401Y167157D02*
D03*
X289966Y167132D02*
D03*
X210947Y146964D02*
D03*
X231445Y166421D02*
D03*
X291160Y164948D02*
D03*
X234214Y166445D02*
D03*
X149200Y165989D02*
D03*
X117856Y183972D02*
D03*
X120142D02*
D03*
X122428D02*
D03*
X124714D02*
D03*
Y186258D02*
D03*
X122428D02*
D03*
X120142D02*
D03*
X117856D02*
D03*
X124714Y188544D02*
D03*
X122428D02*
D03*
X120142D02*
D03*
X117856D02*
D03*
X124714Y190830D02*
D03*
X122428D02*
D03*
X120142D02*
D03*
X117856D02*
D03*
X124714Y193116D02*
D03*
X122428D02*
D03*
X120142D02*
D03*
X117856D02*
D03*
X124796Y195338D02*
D03*
X122510D02*
D03*
X120224D02*
D03*
X117938D02*
D03*
X115652D02*
D03*
X115570Y193116D02*
D03*
Y190830D02*
D03*
Y188544D02*
D03*
Y186258D02*
D03*
Y183972D02*
D03*
X126721Y169215D02*
D03*
X125374Y167157D02*
D03*
X107500Y197500D02*
D03*
Y192500D02*
D03*
X106250Y200000D02*
D03*
X105000Y197500D02*
D03*
X106250Y195000D02*
D03*
X105000Y192500D02*
D03*
X103750Y200000D02*
D03*
X102500Y197500D02*
D03*
X103750Y195000D02*
D03*
X102500Y192500D02*
D03*
X101250Y200000D02*
D03*
X100000Y197500D02*
D03*
X101250Y195000D02*
D03*
X100000Y192500D02*
D03*
X98750Y200000D02*
D03*
X97500Y197500D02*
D03*
X98750Y195000D02*
D03*
X97500Y192500D02*
D03*
X96250Y200000D02*
D03*
X95000Y197500D02*
D03*
X96250Y195000D02*
D03*
X95000Y192500D02*
D03*
X93750Y200000D02*
D03*
X92500Y197500D02*
D03*
X93750Y195000D02*
D03*
X92500Y192500D02*
D03*
X91250Y200000D02*
D03*
X90000Y197500D02*
D03*
X91250Y195000D02*
D03*
X90000Y192500D02*
D03*
X88750Y200000D02*
D03*
X87500Y197500D02*
D03*
X88750Y195000D02*
D03*
X87500Y192500D02*
D03*
X86250Y200000D02*
D03*
X85000Y197500D02*
D03*
X86250Y195000D02*
D03*
X85000Y192500D02*
D03*
X83750Y200000D02*
D03*
X82500Y197500D02*
D03*
X83750Y195000D02*
D03*
X82500Y192500D02*
D03*
X81250Y200000D02*
D03*
X80000Y197500D02*
D03*
X81250Y195000D02*
D03*
X80000Y192500D02*
D03*
X78750Y200000D02*
D03*
X77500Y197500D02*
D03*
X78750Y195000D02*
D03*
X77500Y192500D02*
D03*
X76250Y200000D02*
D03*
X75000Y197500D02*
D03*
X76250Y195000D02*
D03*
X75000Y192500D02*
D03*
X73750Y200000D02*
D03*
X72500Y197500D02*
D03*
X73750Y195000D02*
D03*
X72500Y192500D02*
D03*
X71250Y200000D02*
D03*
X70000Y197500D02*
D03*
X71250Y195000D02*
D03*
X70000Y192500D02*
D03*
X68750Y200000D02*
D03*
X67500Y197500D02*
D03*
X68750Y195000D02*
D03*
X67500Y192500D02*
D03*
X66250Y200000D02*
D03*
X65000Y197500D02*
D03*
X66250Y195000D02*
D03*
X65000Y192500D02*
D03*
X63750Y200000D02*
D03*
X62500Y197500D02*
D03*
X63750Y195000D02*
D03*
X62500Y192500D02*
D03*
X124231Y164465D02*
D03*
X121336Y164135D02*
D03*
X125324Y165811D02*
D03*
X108204Y205943D02*
D03*
X150622Y162966D02*
D03*
X116713Y183972D02*
D03*
Y186258D02*
D03*
Y188544D02*
D03*
Y190830D02*
D03*
Y193116D02*
D03*
X116795Y195338D02*
D03*
X119081D02*
D03*
X121367D02*
D03*
X123653D02*
D03*
X125939D02*
D03*
X118999Y193116D02*
D03*
X121285D02*
D03*
X123571D02*
D03*
X125857D02*
D03*
X118999Y190830D02*
D03*
X121285D02*
D03*
X123571D02*
D03*
X125857D02*
D03*
X118999Y188544D02*
D03*
X121285D02*
D03*
X123571D02*
D03*
X125857D02*
D03*
X118999Y186258D02*
D03*
X121285D02*
D03*
X123571D02*
D03*
X125857D02*
D03*
Y183972D02*
D03*
X123571D02*
D03*
X121285D02*
D03*
X93320Y174219D02*
D03*
X118999Y183972D02*
D03*
X229464Y171602D02*
D03*
X236068Y160198D02*
D03*
X241859Y158547D02*
D03*
X288315Y186538D02*
D03*
X291351Y171615D02*
D03*
X235521Y171590D02*
D03*
X147142Y179527D02*
D03*
X149666Y176773D02*
D03*
X152400Y165913D02*
D03*
X291160Y162738D02*
D03*
X150622Y171577D02*
D03*
X156693Y163373D02*
D03*
D34*
X321539Y145059D02*
D03*
X178257Y241427D02*
D03*
X178359Y145009D02*
D03*
X35687D02*
D03*
X321513Y241427D02*
D03*
X35687D02*
D03*
D35*
X143104Y172128D02*
D03*
Y174328D02*
D03*
X143027Y176141D02*
D03*
Y178341D02*
D03*
X136246Y174346D02*
D03*
Y172146D02*
D03*
Y178341D02*
D03*
Y176141D02*
D03*
Y168132D02*
D03*
Y170332D02*
D03*
X119405Y158445D02*
D03*
Y160645D02*
D03*
X121412D02*
D03*
Y158445D02*
D03*
X123419Y160645D02*
D03*
Y158445D02*
D03*
X148539Y175674D02*
D03*
Y173474D02*
D03*
X150546Y175674D02*
D03*
Y173474D02*
D03*
X152552Y175674D02*
D03*
Y173474D02*
D03*
X156743Y169747D02*
D03*
Y167547D02*
D03*
X150927Y167535D02*
D03*
Y169735D02*
D03*
X153518Y187460D02*
D03*
Y185260D02*
D03*
X235483Y175649D02*
D03*
Y173449D02*
D03*
X233502Y175649D02*
D03*
Y173449D02*
D03*
X237490Y175649D02*
D03*
Y173449D02*
D03*
X235915Y167509D02*
D03*
Y169709D02*
D03*
X241732Y169721D02*
D03*
Y167521D02*
D03*
X238455Y187477D02*
D03*
Y185277D02*
D03*
X297561Y169717D02*
D03*
Y167517D02*
D03*
X291744D02*
D03*
Y169717D02*
D03*
X291313Y175674D02*
D03*
Y173474D02*
D03*
X293319Y175674D02*
D03*
Y173474D02*
D03*
X289357Y175674D02*
D03*
Y173474D02*
D03*
X294284Y187442D02*
D03*
Y185242D02*
D03*
D36*
X145209Y178308D02*
D03*
X146609D02*
D03*
D37*
X140762Y173203D02*
D03*
X138841Y174153D02*
D03*
X133497Y173177D02*
D03*
X131577Y174127D02*
D03*
X140533Y176418D02*
D03*
X138613Y177368D02*
D03*
D38*
X138841Y172253D02*
D03*
X131577Y172227D02*
D03*
X140533Y178318D02*
D03*
D39*
X100923Y172288D02*
D03*
X103877D02*
D03*
X100923Y168554D02*
D03*
X103877D02*
D03*
X159733Y187274D02*
D03*
X162687D02*
D03*
X159737Y198958D02*
D03*
X162691D02*
D03*
X244471Y187300D02*
D03*
X247425D02*
D03*
X244471Y198998D02*
D03*
X247425D02*
D03*
X300275Y199009D02*
D03*
X303229D02*
D03*
X300326Y187325D02*
D03*
X303280D02*
D03*
D40*
X100363Y176924D02*
D03*
X105363D02*
D03*
X88363D02*
D03*
X93363D02*
D03*
X76363D02*
D03*
X81363D02*
D03*
X64363D02*
D03*
X69363D02*
D03*
X64363Y206924D02*
D03*
X69363D02*
D03*
X76363D02*
D03*
X81363D02*
D03*
X88363D02*
D03*
X93363D02*
D03*
X100363D02*
D03*
X105363D02*
D03*
X152208Y194173D02*
D03*
X147208D02*
D03*
X236942Y194198D02*
D03*
X231942D02*
D03*
X292786Y194183D02*
D03*
X287786D02*
D03*
D41*
X102863Y185824D02*
D03*
X90863D02*
D03*
X78863D02*
D03*
X66863D02*
D03*
Y215824D02*
D03*
X78863D02*
D03*
X90863D02*
D03*
X102863D02*
D03*
X149708Y203073D02*
D03*
X234442Y203098D02*
D03*
X290286Y203083D02*
D03*
D42*
X149809Y186055D02*
D03*
X150749D02*
D03*
X151714D02*
D03*
X149809Y188595D02*
D03*
X150749D02*
D03*
X151714D02*
D03*
X149631Y178714D02*
D03*
X150571D02*
D03*
X151536D02*
D03*
X149631Y181254D02*
D03*
X150571D02*
D03*
X151536D02*
D03*
X234569Y178765D02*
D03*
X235509D02*
D03*
X236474D02*
D03*
X234569Y181305D02*
D03*
X235509D02*
D03*
X236474D02*
D03*
X234544Y186080D02*
D03*
X235483D02*
D03*
X236449D02*
D03*
X234544Y188620D02*
D03*
X235483D02*
D03*
X236449D02*
D03*
X290373Y186080D02*
D03*
X291313D02*
D03*
X292278D02*
D03*
X290373Y188620D02*
D03*
X291313D02*
D03*
X292278D02*
D03*
X290398Y178791D02*
D03*
X291338D02*
D03*
X292303D02*
D03*
X290398Y181331D02*
D03*
X291338D02*
D03*
X292303D02*
D03*
D43*
X147081Y170607D02*
D03*
X152984Y170586D02*
D03*
X232070Y170581D02*
D03*
X237922Y170561D02*
D03*
X293751Y170586D02*
D03*
X287899Y170577D02*
D03*
D44*
X148981Y170607D02*
D03*
X148031Y168686D02*
D03*
X154884Y170586D02*
D03*
X153934Y168666D02*
D03*
X233970Y170581D02*
D03*
X233020Y168661D02*
D03*
X239822Y170561D02*
D03*
X238872Y168641D02*
D03*
X295651Y170586D02*
D03*
X294701Y168666D02*
D03*
X289799Y170577D02*
D03*
X288849Y168657D02*
D03*
D45*
X224727Y225361D02*
X224790Y225425D01*
X224739Y161163D02*
X224790D01*
X216789D02*
X224739D01*
X136220Y161227D02*
X140018D01*
X136220Y145237D02*
Y161227D01*
X132652D02*
X136220D01*
X132588Y161290D02*
X132652Y161227D01*
X301460Y145250D02*
Y161125D01*
X312903Y145204D02*
Y172641D01*
X315595Y175334D02*
Y176657D01*
X312903Y172641D02*
X315595Y175334D01*
X301485Y225311D02*
Y241135D01*
X220790Y225361D02*
X224727D01*
X216852D02*
X220790D01*
X220675Y225476D02*
Y241148D01*
Y225476D02*
X220790Y225361D01*
X216789Y225298D02*
X216852Y225361D01*
X136335Y225425D02*
X140081D01*
X132588D02*
X136335D01*
X136220Y225539D02*
Y241097D01*
Y225539D02*
X136335Y225425D01*
X220624Y145237D02*
X220675Y145288D01*
X140018Y161227D02*
X140081Y161163D01*
D46*
X100363Y168164D02*
Y172288D01*
Y176924D01*
X88363Y168164D02*
X100363D01*
X76363D02*
X88363D01*
X65827D02*
X76363D01*
X88363D02*
Y176924D01*
X76363Y168164D02*
Y176924D01*
X64363Y169628D02*
X65827Y168164D01*
X64363Y169628D02*
Y176924D01*
Y198164D02*
Y206924D01*
X76363Y198164D02*
Y206924D01*
X88363Y198164D02*
Y206924D01*
X100363Y198164D02*
Y206924D01*
D47*
X313055Y203962D02*
X315595Y206502D01*
X307653Y203962D02*
X313055D01*
X301447D02*
X305453D01*
D48*
X301473Y241148D02*
D03*
X220675D02*
D03*
X136220Y241097D02*
D03*
X312598Y145313D02*
D03*
X220675Y145288D02*
D03*
X301473Y145313D02*
D03*
X312522Y241173D02*
D03*
X136220Y145237D02*
D03*
M02*
